<svg width="725" height="213" viewBox="0 0 725 213" fill="none" xmlns="http://www.w3.org/2000/svg">
<g clip-path="url(#clip0_169_2)">
<mask id="mask0_169_2" style="mask-type:luminance" maskUnits="userSpaceOnUse" x="0" y="0" width="725" height="213">
<path d="M724.56 0H0V213H724.56V0Z" fill="white"/>
</mask>
<g mask="url(#mask0_169_2)">
<path d="M54 51.5V103C25.2 103 1.5 79.75 1.5 51.5C1.5 23.25 25.2 0 54 0C82.8 0 106.5 23.25 106.5 51.5H54Z" fill="white"/>
<path d="M150 161.5V213C121.2 213 97.5 189.75 97.5 161.5C97.5 133.25 121.2 110 150 110C178.8 110 202.5 133.25 202.5 161.5H150Z" fill="white"/>
<path d="M150 101.5L204 1.5H96L150 101.5Z" fill="white"/>
<path d="M54 211.5L108 111.5H0L54 211.5Z" fill="white"/>
<path d="M294.86 151H257V51H294.86C325 51 343.43 69.71 343.43 101C343.43 132.29 325 151 294.86 151ZM293.43 135.29C315 135.29 324.86 123.29 324.86 101C324.86 78.71 315 66.71 293.43 66.71H275.57V135.28H293.43V135.29Z" fill="white"/>
<path d="M386.29 153.14C362.72 153.14 347.72 136.14 347.72 113.85C347.72 91.5601 363.01 74.5601 385.86 74.5601C404.86 74.5601 416.15 84.5601 420.86 99.4201C422.57 104.99 423.29 111.13 423.29 117.42V120.28H366.15C366.58 129.57 373.58 139.57 386.29 139.57C396 139.57 401 134.14 402.72 129.57H421.86C417.72 142.57 405.72 153.14 386.29 153.14ZM366.15 106.71H404.86C404.43 96.8501 397.72 88.1401 385.86 88.1401C374 88.1401 367.29 96.8501 366.15 106.71Z" fill="white"/>
<path d="M439.44 76.71L449.73 105.28C453.02 113.85 455.59 123.71 457.73 131.71H458.3C460.44 123.71 463.01 113.85 466.3 105.28L476.59 76.71H495.45L466.88 150.99H449.17L420.6 76.71H439.46H439.44Z" fill="white"/>
<path d="M615.93 153.14C592.36 153.14 577.36 136.14 577.36 113.85C577.36 91.5601 592.65 74.5601 615.5 74.5601C634.5 74.5601 645.79 84.5601 650.5 99.4201C652.21 104.99 652.93 111.13 652.93 117.42V120.28H595.79C596.22 129.57 603.22 139.57 615.93 139.57C625.64 139.57 630.64 134.14 632.36 129.57H651.5C647.36 142.57 635.36 153.14 615.93 153.14ZM595.79 106.71H634.5C634.07 96.8501 627.36 88.1401 615.5 88.1401C603.64 88.1401 596.93 96.8501 595.79 106.71Z" fill="white"/>
<path d="M669.07 76.71L679.359 105.28C682.649 113.85 685.219 123.71 687.359 131.71H687.93C690.07 123.71 692.64 113.85 695.93 105.28L706.219 76.71H725.08L696.51 150.99H678.799L650.229 76.71H669.09H669.07Z" fill="white"/>
<path d="M548.1 110.85H548.07C565.8 109.41 577.18 97.71 577.18 81C577.18 63.14 564.18 51 544.32 51H501.57V151H520.14V111H526.98L557.58 151H579.52L548.08 110.85H548.1ZM520.16 95.29V66.72H544.33C552.9 66.72 558.62 72.43 558.62 81.01C558.62 89.59 552.91 95.3 544.33 95.3H520.16V95.29Z" fill="white"/>
</g>
</g>
<defs>
<clipPath id="clip0_169_2">
<rect width="725" height="213" fill="white"/>
</clipPath>
</defs>
</svg>
