<svg width="463" height="222" viewBox="0 0 463 222" fill="none" xmlns="http://www.w3.org/2000/svg">
<path d="M193.147 121.638V124.881H178.113V134.085H191.297V137.33H178.113V150.592H174.294V121.638H193.147Z" fill="#4A99D9"/>
<mask id="mask0_203_2" style="mask-type:luminance" maskUnits="userSpaceOnUse" x="0" y="0" width="463" height="222">
<path d="M0 0.000765959H462.671V221.33H0V0.000765959Z" fill="white"/>
</mask>
<g mask="url(#mask0_203_2)">
<path d="M200.139 140.432C200.515 141.855 201.104 143.132 201.908 144.267C202.712 145.402 203.744 146.312 205.003 147.003C206.263 147.694 207.763 148.038 209.504 148.038C211.247 148.038 212.747 147.694 214.006 147.003C215.266 146.312 216.299 145.402 217.102 144.267C217.907 143.132 218.496 141.855 218.871 140.432C219.246 139.015 219.436 137.574 219.436 136.116C219.436 134.652 219.246 133.218 218.871 131.794C218.496 130.376 217.907 129.099 217.102 127.964C216.299 126.827 215.266 125.916 214.006 125.226C212.747 124.536 211.247 124.192 209.504 124.192C207.763 124.192 206.263 124.536 205.003 125.226C203.744 125.916 202.712 126.827 201.908 127.964C201.104 129.099 200.515 130.376 200.139 131.794C199.764 133.218 199.576 134.652 199.576 136.116C199.576 137.574 199.764 139.015 200.139 140.432ZM196.623 130.418C197.199 128.591 198.062 126.978 199.215 125.571C200.366 124.167 201.8 123.044 203.516 122.206C205.231 121.367 207.227 120.948 209.504 120.948C211.782 120.948 213.779 121.367 215.495 122.206C217.208 123.044 218.643 124.167 219.796 125.571C220.948 126.978 221.812 128.591 222.388 130.418C222.966 132.242 223.254 134.14 223.254 136.116C223.254 138.088 222.966 139.987 222.388 141.812C221.812 143.638 220.948 145.255 219.796 146.656C218.643 148.064 217.208 149.182 215.495 150.007C213.779 150.828 211.782 151.24 209.504 151.24C207.227 151.24 205.231 150.828 203.516 150.007C201.8 149.182 200.366 148.064 199.215 146.656C198.062 145.255 197.199 143.638 196.623 141.812C196.046 139.987 195.758 138.088 195.758 136.116C195.758 134.14 196.046 132.242 196.623 130.418Z" fill="#4A99D9"/>
<path d="M247.894 148.464C245.936 150.318 243.15 151.24 239.532 151.24C235.835 151.24 232.947 150.358 230.868 148.584C228.795 146.816 227.755 143.998 227.755 140.13V121.639H231.574V140.13C231.574 142.724 232.256 144.691 233.624 146.031C234.99 147.372 236.96 148.038 239.532 148.038C241.97 148.038 243.827 147.372 245.099 146.031C246.372 144.691 247.01 142.724 247.01 140.13V121.639H250.828V140.13C250.828 143.835 249.85 146.611 247.894 148.464Z" fill="#4A99D9"/>
<path d="M260.955 121.638L276.068 145.117H276.147V121.638H279.767V150.592H275.587L260.595 127.353H260.514V150.592H256.896V121.638H260.955Z" fill="#4A99D9"/>
<path d="M296.125 147.346C296.555 147.346 297.093 147.316 297.735 147.248C298.377 147.177 299.061 147.018 299.785 146.757C300.508 146.502 301.225 146.132 301.936 145.644C302.647 145.16 303.284 144.497 303.845 143.656C304.408 142.818 304.869 141.769 305.232 140.514C305.593 139.257 305.775 137.736 305.775 135.95C305.775 134.224 305.608 132.674 305.272 131.309C304.936 129.945 304.388 128.781 303.623 127.822C302.859 126.862 301.875 126.133 300.668 125.632C299.463 125.132 297.979 124.881 296.208 124.881H289.775V147.346H296.125ZM295.807 121.638C300.228 121.638 303.631 122.773 306.015 125.041C308.399 127.314 309.592 130.777 309.592 135.422C309.592 137.858 309.325 140.014 308.788 141.892C308.252 143.773 307.421 145.353 306.297 146.638C305.172 147.924 303.736 148.902 301.997 149.577C300.255 150.252 298.192 150.592 295.807 150.592H285.956V121.638H295.807Z" fill="#4A99D9"/>
<path d="M328.928 138.628L324.145 125.124H324.063L319.203 138.628H328.928ZM326.275 121.637L337.489 150.592H333.269L330.132 141.873H317.992L314.777 150.592H310.88L322.055 121.637H326.275Z" fill="#4A99D9"/>
<path d="M337.247 124.882V121.639H360.199V124.882H350.634V150.594H346.814V124.882H337.247Z" fill="#4A99D9"/>
<path d="M367.354 150.592H363.537V121.638H367.354V150.592Z" fill="#4A99D9"/>
<path d="M376.559 140.432C376.934 141.855 377.526 143.132 378.33 144.267C379.133 145.402 380.162 146.312 381.423 147.003C382.682 147.694 384.181 148.038 385.925 148.038C387.667 148.038 389.169 147.694 390.43 147.003C391.687 146.312 392.718 145.402 393.522 144.267C394.326 143.132 394.918 141.855 395.29 140.432C395.665 139.015 395.855 137.574 395.855 136.116C395.855 134.652 395.665 133.218 395.29 131.794C394.918 130.376 394.326 129.099 393.522 127.964C392.718 126.827 391.687 125.916 390.43 125.226C389.169 124.536 387.667 124.192 385.925 124.192C384.181 124.192 382.682 124.536 381.423 125.226C380.162 125.916 379.133 126.827 378.33 127.964C377.526 129.099 376.934 130.376 376.559 131.794C376.183 133.218 375.997 134.652 375.997 136.116C375.997 137.574 376.183 139.015 376.559 140.432ZM373.042 130.418C373.615 128.591 374.485 126.978 375.635 125.571C376.786 124.167 378.222 123.044 379.937 122.206C381.651 121.367 383.649 120.948 385.925 120.948C388.202 120.948 390.199 121.367 391.914 122.206C393.629 123.044 395.063 124.167 396.215 125.571C397.367 126.978 398.233 128.591 398.807 130.418C399.386 132.242 399.674 134.14 399.674 136.116C399.674 138.088 399.386 139.987 398.807 141.812C398.233 143.638 397.367 145.255 396.215 146.656C395.063 148.064 393.629 149.182 391.914 150.007C390.199 150.828 388.202 151.24 385.925 151.24C383.649 151.24 381.651 150.828 379.937 150.007C378.222 149.182 376.786 148.064 375.635 146.656C374.485 145.255 373.615 143.638 373.042 141.812C372.467 139.987 372.177 138.088 372.177 136.116C372.177 134.14 372.467 132.242 373.042 130.418Z" fill="#4A99D9"/>
<path d="M408.355 121.638L423.469 145.117H423.547V121.638H427.166V150.592H422.986L407.995 127.353H407.913V150.592H404.294V121.638H408.355Z" fill="#4A99D9"/>
</g>
<mask id="mask1_203_2" style="mask-type:luminance" maskUnits="userSpaceOnUse" x="337" y="49" width="81" height="62">
<path d="M337.495 49.0318C345.751 49.5078 345.516 56.6371 345.516 56.6371V102.758C345.516 103.568 345.431 104.381 345.223 105.168C343.831 110.418 338.83 110.822 337.716 110.846H354.308V80.8531C350.478 82.9931 346.171 83.3811 346.171 83.3811V77.9691C355.616 77.0211 358.186 70.8398 358.186 70.8398H365.268V110.846H377.21C367.286 109.968 367.051 100.553 367.051 100.553V78.6865C381.846 80.0518 382.932 94.4931 382.932 94.4931V61.6705C382.774 66.3065 379.723 70.3718 379.723 70.3718C374.215 77.7691 367.046 77.4745 367.046 77.4745V50.7758C378.647 50.2438 384.85 56.0945 386.046 57.3518C386.242 57.5571 386.439 57.7571 386.64 57.9558C395.816 66.9411 394.696 77.1585 394.696 77.1585C397.664 67.9385 401.911 65.0078 404.007 64.0905C404.964 63.6731 406.052 63.6211 407.003 64.0531C411.544 66.1251 408.96 76.3278 408.96 76.3278C407.572 83.6571 400.808 91.3731 400.808 91.3731C395.432 98.0571 388.24 103.148 388.24 103.148C399.927 96.8105 407.214 87.7771 407.214 87.7771C416.367 77.0798 417.238 65.2558 417.238 65.2558C418.103 56.9065 414.684 53.7865 414.684 53.7865C407.343 47.0691 399.294 60.2358 399.294 60.2358C395.106 67.1571 394.762 73.5918 394.762 73.5918V49.0318H337.495ZM337.495 110.846C337.495 110.846 337.575 110.849 337.716 110.846H337.495Z" fill="white"/>
</mask>
<g mask="url(#mask1_203_2)">
<path fill-rule="evenodd" clip-rule="evenodd" d="M417.667 111.088H417.354V47.0692H417.667V111.088Z" fill="#6CB62F"/>
<path fill-rule="evenodd" clip-rule="evenodd" d="M417.459 111.088H417.148V47.0692H417.459V111.088Z" fill="#6CB52F"/>
<path fill-rule="evenodd" clip-rule="evenodd" d="M417.249 111.088H416.937V47.0692H417.249V111.088Z" fill="#6CB52F"/>
<path fill-rule="evenodd" clip-rule="evenodd" d="M417.04 111.088H416.729V47.0692H417.04V111.088Z" fill="#6CB52F"/>
<path fill-rule="evenodd" clip-rule="evenodd" d="M416.831 111.088H416.521V47.0692H416.831V111.088Z" fill="#6CB42F"/>
<path fill-rule="evenodd" clip-rule="evenodd" d="M416.625 111.088H416.313V47.0692H416.625V111.088Z" fill="#6CB42F"/>
<path fill-rule="evenodd" clip-rule="evenodd" d="M416.417 111.088H416.103V47.0692H416.417V111.088Z" fill="#6CB32F"/>
<path fill-rule="evenodd" clip-rule="evenodd" d="M416.208 111.088H415.897V47.0692H416.208V111.088Z" fill="#6CB32F"/>
<path fill-rule="evenodd" clip-rule="evenodd" d="M415.998 111.088H415.687V47.0692H415.998V111.088Z" fill="#6CB22F"/>
<path fill-rule="evenodd" clip-rule="evenodd" d="M415.791 111.088H415.478V47.0692H415.791V111.088Z" fill="#6CB22F"/>
<path fill-rule="evenodd" clip-rule="evenodd" d="M415.583 111.088H415.269V47.0692H415.583V111.088Z" fill="#6CB02F"/>
<path fill-rule="evenodd" clip-rule="evenodd" d="M415.375 111.088H415.064V47.0692H415.375V111.088Z" fill="#6CB02F"/>
<path fill-rule="evenodd" clip-rule="evenodd" d="M415.167 111.088H414.854V47.0692H415.167V111.088Z" fill="#6CB02F"/>
<path fill-rule="evenodd" clip-rule="evenodd" d="M414.959 111.088H414.646V47.0692H414.959V111.088Z" fill="#6CB02F"/>
<path fill-rule="evenodd" clip-rule="evenodd" d="M414.749 111.088H414.437V47.0692H414.749V111.088Z" fill="#6CB02F"/>
<path fill-rule="evenodd" clip-rule="evenodd" d="M414.543 111.088H414.229V47.0692H414.543V111.088Z" fill="#6CAE2F"/>
<path fill-rule="evenodd" clip-rule="evenodd" d="M414.331 111.088H414.018V47.0692H414.331V111.088Z" fill="#6CAE2F"/>
<path fill-rule="evenodd" clip-rule="evenodd" d="M414.124 111.088H413.814V47.0692H414.124V111.088Z" fill="#6CAD2F"/>
<path fill-rule="evenodd" clip-rule="evenodd" d="M413.917 111.088H413.604V47.0692H413.917V111.088Z" fill="#6CAD2F"/>
<path fill-rule="evenodd" clip-rule="evenodd" d="M413.708 111.088H413.395V47.0692H413.708V111.088Z" fill="#6CAC2F"/>
<path fill-rule="evenodd" clip-rule="evenodd" d="M413.5 111.088H413.187V47.0692H413.5V111.088Z" fill="#6CAC2F"/>
<path fill-rule="evenodd" clip-rule="evenodd" d="M413.29 111.088H412.98V47.0692H413.29V111.088Z" fill="#6CAA2E"/>
<path fill-rule="evenodd" clip-rule="evenodd" d="M413.083 111.088H412.77V47.0692H413.083V111.088Z" fill="#6CAA2E"/>
<path fill-rule="evenodd" clip-rule="evenodd" d="M412.872 111.088H412.562V47.0692H412.872V111.088Z" fill="#6CAA2E"/>
<path fill-rule="evenodd" clip-rule="evenodd" d="M412.668 111.088H412.354V47.0692H412.668V111.088Z" fill="#6CAA2E"/>
<path fill-rule="evenodd" clip-rule="evenodd" d="M412.455 111.088H412.146V47.0692H412.455V111.088Z" fill="#6CA82E"/>
<path fill-rule="evenodd" clip-rule="evenodd" d="M412.247 111.088H411.938V47.0692H412.247V111.088Z" fill="#6CA82E"/>
<path fill-rule="evenodd" clip-rule="evenodd" d="M412.041 111.088H411.73V47.0692H412.041V111.088Z" fill="#6CA72E"/>
<path fill-rule="evenodd" clip-rule="evenodd" d="M411.832 111.088H411.518V47.0692H411.832V111.088Z" fill="#6CA72E"/>
<path fill-rule="evenodd" clip-rule="evenodd" d="M411.623 111.088H411.312V47.0692H411.623V111.088Z" fill="#6CA72E"/>
<path fill-rule="evenodd" clip-rule="evenodd" d="M411.417 111.088H411.103V47.0692H411.417V111.088Z" fill="#6DA62E"/>
<path fill-rule="evenodd" clip-rule="evenodd" d="M411.21 111.088H410.896V47.0692H411.21V111.088Z" fill="#6DA62E"/>
<path fill-rule="evenodd" clip-rule="evenodd" d="M411 111.088H410.689V47.0692H411V111.088Z" fill="#6DA52E"/>
<path fill-rule="evenodd" clip-rule="evenodd" d="M410.788 111.088H410.479V47.0692H410.788V111.088Z" fill="#6DA52E"/>
<path fill-rule="evenodd" clip-rule="evenodd" d="M410.583 111.088H410.27V47.0692H410.583V111.088Z" fill="#6DA42E"/>
<path fill-rule="evenodd" clip-rule="evenodd" d="M410.375 111.088H410.065V47.0692H410.375V111.088Z" fill="#6DA42E"/>
<path fill-rule="evenodd" clip-rule="evenodd" d="M410.164 111.088H409.854V47.0692H410.164V111.088Z" fill="#6DA32D"/>
<path fill-rule="evenodd" clip-rule="evenodd" d="M409.956 111.088H409.642V47.0692H409.956V111.088Z" fill="#6DA32D"/>
<path fill-rule="evenodd" clip-rule="evenodd" d="M409.748 111.088H409.438V47.0692H409.748V111.088Z" fill="#6DA32D"/>
<path fill-rule="evenodd" clip-rule="evenodd" d="M409.538 111.088H409.229V47.0692H409.538V111.088Z" fill="#6DA12D"/>
<path fill-rule="evenodd" clip-rule="evenodd" d="M409.332 111.088H409.018V47.0692H409.332V111.088Z" fill="#6DA12D"/>
<path fill-rule="evenodd" clip-rule="evenodd" d="M409.124 111.088H408.813V47.0692H409.124V111.088Z" fill="#6DA12F"/>
<path fill-rule="evenodd" clip-rule="evenodd" d="M408.915 111.088H408.604V47.0692H408.915V111.088Z" fill="#6DA12F"/>
<path fill-rule="evenodd" clip-rule="evenodd" d="M408.705 111.088H408.395V47.0692H408.705V111.088Z" fill="#6DA12F"/>
<path fill-rule="evenodd" clip-rule="evenodd" d="M408.498 111.088H408.188V47.0692H408.498V111.088Z" fill="#6DA030"/>
<path fill-rule="evenodd" clip-rule="evenodd" d="M408.288 111.088H407.981V47.0692H408.288V111.088Z" fill="#6DA030"/>
<path fill-rule="evenodd" clip-rule="evenodd" d="M408.083 111.088H407.769V47.0692H408.083V111.088Z" fill="#6DA030"/>
<path fill-rule="evenodd" clip-rule="evenodd" d="M407.873 111.088H407.562V47.0692H407.873V111.088Z" fill="#6DA032"/>
<path fill-rule="evenodd" clip-rule="evenodd" d="M407.665 111.088H407.354V47.0692H407.665V111.088Z" fill="#6DA032"/>
<path fill-rule="evenodd" clip-rule="evenodd" d="M407.457 111.088H407.145V47.0692H407.457V111.088Z" fill="#6D9F31"/>
<path fill-rule="evenodd" clip-rule="evenodd" d="M407.248 111.088H406.934V47.0692H407.248V111.088Z" fill="#6D9F33"/>
<path fill-rule="evenodd" clip-rule="evenodd" d="M407.038 111.088H406.729V47.0692H407.038V111.088Z" fill="#6D9F33"/>
<path fill-rule="evenodd" clip-rule="evenodd" d="M406.834 111.088H406.521V47.0692H406.834V111.088Z" fill="#6D9F33"/>
<path fill-rule="evenodd" clip-rule="evenodd" d="M406.621 111.088H406.309V47.0692H406.621V111.088Z" fill="#6D9F34"/>
<path fill-rule="evenodd" clip-rule="evenodd" d="M406.415 111.088H406.104V47.0692H406.415V111.088Z" fill="#6D9F35"/>
<path fill-rule="evenodd" clip-rule="evenodd" d="M406.207 111.088H405.894V47.0692H406.207V111.088Z" fill="#6D9F35"/>
<path fill-rule="evenodd" clip-rule="evenodd" d="M405.998 111.088H405.685V47.0692H405.998V111.088Z" fill="#6D9F36"/>
<path fill-rule="evenodd" clip-rule="evenodd" d="M405.788 111.088H405.475V47.0692H405.788V111.088Z" fill="#6D9F36"/>
<path fill-rule="evenodd" clip-rule="evenodd" d="M405.584 111.088H405.27V47.0692H405.584V111.088Z" fill="#6D9F36"/>
<path fill-rule="evenodd" clip-rule="evenodd" d="M405.374 111.088H405.061V47.0692H405.374V111.088Z" fill="#6E9D38"/>
<path fill-rule="evenodd" clip-rule="evenodd" d="M405.167 111.088H404.853V47.0692H405.167V111.088Z" fill="#6E9D38"/>
<path fill-rule="evenodd" clip-rule="evenodd" d="M404.956 111.088H404.643V47.0692H404.956V111.088Z" fill="#6D9D39"/>
<path fill-rule="evenodd" clip-rule="evenodd" d="M404.75 111.088H404.437V47.0692H404.75V111.088Z" fill="#6D9D39"/>
<path fill-rule="evenodd" clip-rule="evenodd" d="M404.538 111.088H404.225V47.0692H404.538V111.088Z" fill="#6D9D39"/>
<path fill-rule="evenodd" clip-rule="evenodd" d="M404.332 111.088H404.018V47.0692H404.332V111.088Z" fill="#6D9C3B"/>
<path fill-rule="evenodd" clip-rule="evenodd" d="M404.121 111.088H403.811V47.0692H404.121V111.088Z" fill="#6D9C3B"/>
<path fill-rule="evenodd" clip-rule="evenodd" d="M403.915 111.088H403.604V47.0692H403.915V111.088Z" fill="#6D9C3B"/>
<path fill-rule="evenodd" clip-rule="evenodd" d="M403.707 111.088H403.393V47.0692H403.707V111.088Z" fill="#6D9C3C"/>
<path fill-rule="evenodd" clip-rule="evenodd" d="M403.498 111.088H403.185V47.0692H403.498V111.088Z" fill="#6D9C3C"/>
<path fill-rule="evenodd" clip-rule="evenodd" d="M403.29 111.088H402.978V47.0692H403.29V111.088Z" fill="#6D9A3C"/>
<path fill-rule="evenodd" clip-rule="evenodd" d="M403.08 111.088H402.767V47.0692H403.08V111.088Z" fill="#6D9A3E"/>
<path fill-rule="evenodd" clip-rule="evenodd" d="M402.872 111.088H402.562V47.0692H402.872V111.088Z" fill="#6D9A3E"/>
<path fill-rule="evenodd" clip-rule="evenodd" d="M402.667 111.088H402.354V47.0692H402.667V111.088Z" fill="#6D9A3E"/>
<path fill-rule="evenodd" clip-rule="evenodd" d="M402.456 111.088H402.143V47.0692H402.456V111.088Z" fill="#6E9B3E"/>
<path fill-rule="evenodd" clip-rule="evenodd" d="M402.249 111.088H401.937V47.0692H402.249V111.088Z" fill="#6D993E"/>
<path fill-rule="evenodd" clip-rule="evenodd" d="M402.039 111.088H401.726V47.0692H402.039V111.088Z" fill="#6D993E"/>
<path fill-rule="evenodd" clip-rule="evenodd" d="M401.832 111.088H401.518V47.0692H401.832V111.088Z" fill="#6D9940"/>
<path fill-rule="evenodd" clip-rule="evenodd" d="M401.623 111.088H401.307V47.0692H401.623V111.088Z" fill="#6D9940"/>
<path fill-rule="evenodd" clip-rule="evenodd" d="M401.414 111.088H401.104V47.0692H401.414V111.088Z" fill="#6D9940"/>
<path fill-rule="evenodd" clip-rule="evenodd" d="M401.208 111.088H400.895V47.0692H401.208V111.088Z" fill="#6E9841"/>
<path fill-rule="evenodd" clip-rule="evenodd" d="M400.997 111.088H400.683V47.0692H400.997V111.088Z" fill="#6E9841"/>
<path fill-rule="evenodd" clip-rule="evenodd" d="M400.79 111.088H400.477V47.0692H400.79V111.088Z" fill="#6E9841"/>
<path fill-rule="evenodd" clip-rule="evenodd" d="M400.581 111.088H400.267V47.0692H400.581V111.088Z" fill="#6E9841"/>
<path fill-rule="evenodd" clip-rule="evenodd" d="M400.372 111.088H400.059V47.0692H400.372V111.088Z" fill="#6E9841"/>
<path fill-rule="evenodd" clip-rule="evenodd" d="M400.164 111.088H399.854V47.0692H400.164V111.088Z" fill="#6E9742"/>
<path fill-rule="evenodd" clip-rule="evenodd" d="M399.955 111.088H399.645V47.0692H399.955V111.088Z" fill="#6E9743"/>
<path fill-rule="evenodd" clip-rule="evenodd" d="M399.748 111.088H399.435V47.0692H399.748V111.088Z" fill="#6E9743"/>
<path fill-rule="evenodd" clip-rule="evenodd" d="M399.539 111.088H399.226V47.0692H399.539V111.088Z" fill="#6E9743"/>
<path fill-rule="evenodd" clip-rule="evenodd" d="M399.331 111.088H399.018V47.0692H399.331V111.088Z" fill="#6E9743"/>
<path fill-rule="evenodd" clip-rule="evenodd" d="M399.123 111.088H398.81V47.0692H399.123V111.088Z" fill="#6E9544"/>
<path fill-rule="evenodd" clip-rule="evenodd" d="M398.914 111.088H398.601V47.0692H398.914V111.088Z" fill="#6E9545"/>
<path fill-rule="evenodd" clip-rule="evenodd" d="M398.704 111.088H398.395V47.0692H398.704V111.088Z" fill="#6E9545"/>
<path fill-rule="evenodd" clip-rule="evenodd" d="M398.498 111.088H398.187V47.0692H398.498V111.088Z" fill="#6E9545"/>
<path fill-rule="evenodd" clip-rule="evenodd" d="M398.29 111.088H397.977V47.0692H398.29V111.088Z" fill="#6E9546"/>
<path fill-rule="evenodd" clip-rule="evenodd" d="M398.082 111.088H397.769V47.0692H398.082V111.088Z" fill="#6F9446"/>
<path fill-rule="evenodd" clip-rule="evenodd" d="M397.873 111.088H397.559V47.0692H397.873V111.088Z" fill="#6F9446"/>
<path fill-rule="evenodd" clip-rule="evenodd" d="M397.663 111.088H397.353V47.0692H397.663V111.088Z" fill="#6F9448"/>
<path fill-rule="evenodd" clip-rule="evenodd" d="M397.453 111.088H397.143V47.0692H397.453V111.088Z" fill="#6F9448"/>
<path fill-rule="evenodd" clip-rule="evenodd" d="M397.247 111.088H396.934V47.0692H397.247V111.088Z" fill="#6F9448"/>
<path fill-rule="evenodd" clip-rule="evenodd" d="M397.04 111.088H396.727V47.0692H397.04V111.088Z" fill="#6E9348"/>
<path fill-rule="evenodd" clip-rule="evenodd" d="M396.831 111.088H396.518V47.0692H396.831V111.088Z" fill="#6E9348"/>
<path fill-rule="evenodd" clip-rule="evenodd" d="M396.623 111.088H396.31V47.0692H396.623V111.088Z" fill="#6E9348"/>
<path fill-rule="evenodd" clip-rule="evenodd" d="M396.417 111.088H396.101V47.0692H396.417V111.088Z" fill="#6F9449"/>
<path fill-rule="evenodd" clip-rule="evenodd" d="M396.204 111.088H395.891V47.0692H396.204V111.088Z" fill="#6F9449"/>
<path fill-rule="evenodd" clip-rule="evenodd" d="M395.997 111.088H395.683V47.0692H395.997V111.088Z" fill="#6F9249"/>
<path fill-rule="evenodd" clip-rule="evenodd" d="M395.791 111.088H395.477V47.0692H395.791V111.088Z" fill="#6F924A"/>
<path fill-rule="evenodd" clip-rule="evenodd" d="M395.579 111.088H395.27V47.0692H395.579V111.088Z" fill="#6F924A"/>
<path fill-rule="evenodd" clip-rule="evenodd" d="M395.373 111.088H395.059V47.0692H395.373V111.088Z" fill="#6F924A"/>
<path fill-rule="evenodd" clip-rule="evenodd" d="M395.164 111.088H394.85V47.0692H395.164V111.088Z" fill="#6F924B"/>
<path fill-rule="evenodd" clip-rule="evenodd" d="M394.956 111.088H394.646V47.0692H394.956V111.088Z" fill="#6F914C"/>
<path fill-rule="evenodd" clip-rule="evenodd" d="M394.745 111.088H394.432V47.0692H394.745V111.088Z" fill="#6F914D"/>
<path fill-rule="evenodd" clip-rule="evenodd" d="M394.539 111.088H394.225V47.0692H394.539V111.088Z" fill="#6F914D"/>
<path fill-rule="evenodd" clip-rule="evenodd" d="M394.333 111.088H394.019V47.0692H394.333V111.088Z" fill="#6F914D"/>
<path fill-rule="evenodd" clip-rule="evenodd" d="M394.122 111.088H393.809V47.0692H394.122V111.088Z" fill="#6F914D"/>
<path fill-rule="evenodd" clip-rule="evenodd" d="M393.915 111.088H393.601V47.0692H393.915V111.088Z" fill="#70904E"/>
<path fill-rule="evenodd" clip-rule="evenodd" d="M393.704 111.088H393.394V47.0692H393.704V111.088Z" fill="#70904E"/>
<path fill-rule="evenodd" clip-rule="evenodd" d="M393.498 111.088H393.185V47.0692H393.498V111.088Z" fill="#70904F"/>
<path fill-rule="evenodd" clip-rule="evenodd" d="M393.286 111.088H392.972V47.0692H393.286V111.088Z" fill="#70904F"/>
<path fill-rule="evenodd" clip-rule="evenodd" d="M393.081 111.088H392.769V47.0692H393.081V111.088Z" fill="#70904F"/>
<path fill-rule="evenodd" clip-rule="evenodd" d="M392.873 111.088H392.562V47.0692H392.873V111.088Z" fill="#708E4F"/>
<path fill-rule="evenodd" clip-rule="evenodd" d="M392.663 111.088H392.35V47.0692H392.663V111.088Z" fill="#708E4F"/>
<path fill-rule="evenodd" clip-rule="evenodd" d="M392.455 111.088H392.145V47.0692H392.455V111.088Z" fill="#708E4F"/>
<path fill-rule="evenodd" clip-rule="evenodd" d="M392.247 111.088H391.934V47.0692H392.247V111.088Z" fill="#718F51"/>
<path fill-rule="evenodd" clip-rule="evenodd" d="M392.038 111.088H391.725V47.0692H392.038V111.088Z" fill="#718F51"/>
<path fill-rule="evenodd" clip-rule="evenodd" d="M391.83 111.088H391.518V47.0692H391.83V111.088Z" fill="#708E51"/>
<path fill-rule="evenodd" clip-rule="evenodd" d="M391.622 111.088H391.309V47.0692H391.622V111.088Z" fill="#708D52"/>
<path fill-rule="evenodd" clip-rule="evenodd" d="M391.415 111.088H391.102V47.0692H391.415V111.088Z" fill="#6F8D52"/>
<path fill-rule="evenodd" clip-rule="evenodd" d="M391.202 111.088H390.893V47.0692H391.202V111.088Z" fill="#6F8D52"/>
<path fill-rule="evenodd" clip-rule="evenodd" d="M390.996 111.088H390.686V47.0692H390.996V111.088Z" fill="#6F8D53"/>
<path fill-rule="evenodd" clip-rule="evenodd" d="M390.79 111.088H390.474V47.0692H390.79V111.088Z" fill="#6F8C53"/>
<path fill-rule="evenodd" clip-rule="evenodd" d="M390.58 111.088H390.267V47.0692H390.58V111.088Z" fill="#6F8C53"/>
<path fill-rule="evenodd" clip-rule="evenodd" d="M390.369 111.088H390.056V47.0692H390.369V111.088Z" fill="#6F8C54"/>
<path fill-rule="evenodd" clip-rule="evenodd" d="M390.165 111.088H389.851V47.0692H390.165V111.088Z" fill="#6F8C54"/>
<path fill-rule="evenodd" clip-rule="evenodd" d="M389.952 111.088H389.643V47.0692H389.952V111.088Z" fill="#6F8C55"/>
<path fill-rule="evenodd" clip-rule="evenodd" d="M389.747 111.088H389.434V47.0692H389.747V111.088Z" fill="#708B55"/>
<path fill-rule="evenodd" clip-rule="evenodd" d="M389.539 111.088H389.225V47.0692H389.539V111.088Z" fill="#708B55"/>
<path fill-rule="evenodd" clip-rule="evenodd" d="M389.329 111.088H389.016V47.0692H389.329V111.088Z" fill="#708B56"/>
<path fill-rule="evenodd" clip-rule="evenodd" d="M389.119 111.088H388.809V47.0692H389.119V111.088Z" fill="#708B56"/>
<path fill-rule="evenodd" clip-rule="evenodd" d="M388.912 111.088H388.602V47.0692H388.912V111.088Z" fill="#708B56"/>
<path fill-rule="evenodd" clip-rule="evenodd" d="M388.706 111.088H388.393V47.0692H388.706V111.088Z" fill="#6F8958"/>
<path fill-rule="evenodd" clip-rule="evenodd" d="M388.495 111.088H388.185V47.0692H388.495V111.088Z" fill="#6F8958"/>
<path fill-rule="evenodd" clip-rule="evenodd" d="M388.288 111.088H387.974V47.0692H388.288V111.088Z" fill="#6F8958"/>
<path fill-rule="evenodd" clip-rule="evenodd" d="M388.081 111.088H387.767V47.0692H388.081V111.088Z" fill="#708A59"/>
<path fill-rule="evenodd" clip-rule="evenodd" d="M387.87 111.088H387.558V47.0692H387.87V111.088Z" fill="#708A59"/>
<path fill-rule="evenodd" clip-rule="evenodd" d="M387.661 111.088H387.353V47.0692H387.661V111.088Z" fill="#6F8859"/>
<path fill-rule="evenodd" clip-rule="evenodd" d="M387.452 111.088H387.143V47.0692H387.452V111.088Z" fill="#6F885A"/>
<path fill-rule="evenodd" clip-rule="evenodd" d="M387.247 111.088H386.937V47.0692H387.247V111.088Z" fill="#6F885A"/>
<path fill-rule="evenodd" clip-rule="evenodd" d="M387.039 111.088H386.725V47.0692H387.039V111.088Z" fill="#6F885A"/>
<path fill-rule="evenodd" clip-rule="evenodd" d="M386.828 111.088H386.518V47.0692H386.828V111.088Z" fill="#6F885B"/>
<path fill-rule="evenodd" clip-rule="evenodd" d="M386.622 111.088H386.309V47.0692H386.622V111.088Z" fill="#70875B"/>
<path fill-rule="evenodd" clip-rule="evenodd" d="M386.412 111.088H386.099V47.0692H386.412V111.088Z" fill="#70875B"/>
<path fill-rule="evenodd" clip-rule="evenodd" d="M386.204 111.088H385.89V47.0692H386.204V111.088Z" fill="#70875D"/>
<path fill-rule="evenodd" clip-rule="evenodd" d="M385.994 111.088H385.685V47.0692H385.994V111.088Z" fill="#70875D"/>
<path fill-rule="evenodd" clip-rule="evenodd" d="M385.788 111.088H385.475V47.0692H385.788V111.088Z" fill="#70875D"/>
<path fill-rule="evenodd" clip-rule="evenodd" d="M385.581 111.088H385.267V47.0692H385.581V111.088Z" fill="#70865E"/>
<path fill-rule="evenodd" clip-rule="evenodd" d="M385.37 111.088H385.058V47.0692H385.37V111.088Z" fill="#70865E"/>
<path fill-rule="evenodd" clip-rule="evenodd" d="M385.163 111.088H384.85V47.0692H385.163V111.088Z" fill="#70865F"/>
<path fill-rule="evenodd" clip-rule="evenodd" d="M384.952 111.088H384.639V47.0692H384.952V111.088Z" fill="#70865F"/>
<path fill-rule="evenodd" clip-rule="evenodd" d="M384.745 111.088H384.437V47.0692H384.745V111.088Z" fill="#70845F"/>
<path fill-rule="evenodd" clip-rule="evenodd" d="M384.54 111.088H384.226V47.0692H384.54V111.088Z" fill="#708460"/>
<path fill-rule="evenodd" clip-rule="evenodd" d="M384.326 111.088H384.016V47.0692H384.326V111.088Z" fill="#708460"/>
<path fill-rule="evenodd" clip-rule="evenodd" d="M384.122 111.088H383.809V47.0692H384.122V111.088Z" fill="#708460"/>
<path fill-rule="evenodd" clip-rule="evenodd" d="M383.911 111.088H383.602V47.0692H383.911V111.088Z" fill="#708461"/>
<path fill-rule="evenodd" clip-rule="evenodd" d="M383.704 111.088H383.391V47.0692H383.704V111.088Z" fill="#708362"/>
<path fill-rule="evenodd" clip-rule="evenodd" d="M383.494 111.088H383.186V47.0692H383.494V111.088Z" fill="#708362"/>
<path fill-rule="evenodd" clip-rule="evenodd" d="M383.287 111.088H382.977V47.0692H383.287V111.088Z" fill="#708363"/>
<path fill-rule="evenodd" clip-rule="evenodd" d="M383.081 111.088H382.769V47.0692H383.081V111.088Z" fill="#708363"/>
<path fill-rule="evenodd" clip-rule="evenodd" d="M382.87 111.088H382.558V47.0692H382.87V111.088Z" fill="#708363"/>
<path fill-rule="evenodd" clip-rule="evenodd" d="M382.663 111.088H382.353V47.0692H382.663V111.088Z" fill="#708264"/>
<path fill-rule="evenodd" clip-rule="evenodd" d="M382.455 111.088H382.139V47.0692H382.455V111.088Z" fill="#708264"/>
<path fill-rule="evenodd" clip-rule="evenodd" d="M382.244 111.088H381.934V47.0692H382.244V111.088Z" fill="#708264"/>
<path fill-rule="evenodd" clip-rule="evenodd" d="M382.036 111.088H381.726V47.0692H382.036V111.088Z" fill="#708265"/>
<path fill-rule="evenodd" clip-rule="evenodd" d="M381.827 111.088H381.518V47.0692H381.827V111.088Z" fill="#708265"/>
<path fill-rule="evenodd" clip-rule="evenodd" d="M381.622 111.088H381.31V47.0692H381.622V111.088Z" fill="#718166"/>
<path fill-rule="evenodd" clip-rule="evenodd" d="M381.408 111.088H381.099V47.0692H381.408V111.088Z" fill="#718167"/>
<path fill-rule="evenodd" clip-rule="evenodd" d="M381.204 111.088H380.891V47.0692H381.204V111.088Z" fill="#718167"/>
<path fill-rule="evenodd" clip-rule="evenodd" d="M380.995 111.088H380.686V47.0692H380.995V111.088Z" fill="#718167"/>
<path fill-rule="evenodd" clip-rule="evenodd" d="M380.785 111.088H380.475V47.0692H380.785V111.088Z" fill="#708168"/>
<path fill-rule="evenodd" clip-rule="evenodd" d="M380.577 111.088H380.267V47.0692H380.577V111.088Z" fill="#718068"/>
<path fill-rule="evenodd" clip-rule="evenodd" d="M380.372 111.088H380.059V47.0692H380.372V111.088Z" fill="#718068"/>
<path fill-rule="evenodd" clip-rule="evenodd" d="M380.159 111.088H379.85V47.0692H380.159V111.088Z" fill="#718069"/>
<path fill-rule="evenodd" clip-rule="evenodd" d="M379.954 111.088H379.641V47.0692H379.954V111.088Z" fill="#718069"/>
<path fill-rule="evenodd" clip-rule="evenodd" d="M379.745 111.088H379.432V47.0692H379.745V111.088Z" fill="#71806A"/>
<path fill-rule="evenodd" clip-rule="evenodd" d="M379.536 111.088H379.227V47.0692H379.536V111.088Z" fill="#717E6A"/>
<path fill-rule="evenodd" clip-rule="evenodd" d="M379.327 111.088H379.014V47.0692H379.327V111.088Z" fill="#717E6A"/>
<path fill-rule="evenodd" clip-rule="evenodd" d="M379.119 111.088H378.807V47.0692H379.119V111.088Z" fill="#717E6B"/>
<path fill-rule="evenodd" clip-rule="evenodd" d="M378.913 111.088H378.601V47.0692H378.913V111.088Z" fill="#717E6B"/>
<path fill-rule="evenodd" clip-rule="evenodd" d="M378.702 111.088H378.388V47.0692H378.702V111.088Z" fill="#717E6B"/>
<path fill-rule="evenodd" clip-rule="evenodd" d="M378.495 111.088H378.182V47.0692H378.495V111.088Z" fill="#717D6D"/>
<path fill-rule="evenodd" clip-rule="evenodd" d="M378.287 111.088H377.977V47.0692H378.287V111.088Z" fill="#717D6D"/>
<path fill-rule="evenodd" clip-rule="evenodd" d="M378.077 111.088H377.764V47.0692H378.077V111.088Z" fill="#717D6D"/>
<path fill-rule="evenodd" clip-rule="evenodd" d="M377.869 111.088H377.556V47.0692H377.869V111.088Z" fill="#727D6E"/>
<path fill-rule="evenodd" clip-rule="evenodd" d="M377.659 111.088H377.35V47.0692H377.659V111.088Z" fill="#727D6E"/>
<path fill-rule="evenodd" clip-rule="evenodd" d="M377.455 111.088H377.142V47.0692H377.455V111.088Z" fill="#717C6E"/>
<path fill-rule="evenodd" clip-rule="evenodd" d="M377.243 111.088H376.93V47.0692H377.243V111.088Z" fill="#717C6F"/>
<path fill-rule="evenodd" clip-rule="evenodd" d="M377.036 111.088H376.726V47.0692H377.036V111.088Z" fill="#717C6F"/>
<path fill-rule="evenodd" clip-rule="evenodd" d="M376.829 111.088H376.516V47.0692H376.829V111.088Z" fill="#717C6F"/>
<path fill-rule="evenodd" clip-rule="evenodd" d="M376.617 111.088H376.307V47.0692H376.617V111.088Z" fill="#717C71"/>
<path fill-rule="evenodd" clip-rule="evenodd" d="M376.41 111.088H376.101V47.0692H376.41V111.088Z" fill="#717A71"/>
<path fill-rule="evenodd" clip-rule="evenodd" d="M376.205 111.088H375.891V47.0692H376.205V111.088Z" fill="#717A71"/>
<path fill-rule="evenodd" clip-rule="evenodd" d="M375.995 111.088H375.682V47.0692H375.995V111.088Z" fill="#717A72"/>
<path fill-rule="evenodd" clip-rule="evenodd" d="M375.786 111.088H375.472V47.0692H375.786V111.088Z" fill="#717A72"/>
<path fill-rule="evenodd" clip-rule="evenodd" d="M375.577 111.088H375.264V47.0692H375.577V111.088Z" fill="#717A72"/>
<path fill-rule="evenodd" clip-rule="evenodd" d="M375.37 111.088H375.056V47.0692H375.37V111.088Z" fill="#727A74"/>
<path fill-rule="evenodd" clip-rule="evenodd" d="M375.158 111.088H374.848V47.0692H375.158V111.088Z" fill="#727A74"/>
<path fill-rule="evenodd" clip-rule="evenodd" d="M374.953 111.088H374.641V47.0692H374.953V111.088Z" fill="#727975"/>
<path fill-rule="evenodd" clip-rule="evenodd" d="M374.746 111.088H374.432V47.0692H374.746V111.088Z" fill="#727975"/>
<path fill-rule="evenodd" clip-rule="evenodd" d="M374.536 111.088H374.226V47.0692H374.536V111.088Z" fill="#727975"/>
<path fill-rule="evenodd" clip-rule="evenodd" d="M374.328 111.088H374.018V47.0692H374.328V111.088Z" fill="#727876"/>
<path fill-rule="evenodd" clip-rule="evenodd" d="M374.119 111.088H373.806V47.0692H374.119V111.088Z" fill="#727876"/>
<path fill-rule="evenodd" clip-rule="evenodd" d="M373.911 111.088H373.602V47.0692H373.911V111.088Z" fill="#727876"/>
<path fill-rule="evenodd" clip-rule="evenodd" d="M373.702 111.088H373.393V47.0692H373.702V111.088Z" fill="#717878"/>
<path fill-rule="evenodd" clip-rule="evenodd" d="M373.494 111.088H373.182V47.0692H373.494V111.088Z" fill="#717878"/>
<path fill-rule="evenodd" clip-rule="evenodd" d="M373.288 111.088H372.978V47.0692H373.288V111.088Z" fill="#727678"/>
<path fill-rule="evenodd" clip-rule="evenodd" d="M373.077 111.088H372.764V47.0692H373.077V111.088Z" fill="#727779"/>
<path fill-rule="evenodd" clip-rule="evenodd" d="M372.869 111.088H337.496V47.0692H372.869V111.088Z" fill="#767879"/>
</g>
<mask id="mask2_203_2" style="mask-type:luminance" maskUnits="userSpaceOnUse" x="0" y="0" width="463" height="222">
<path d="M0 0.000765959H462.671V221.33H0V0.000765959Z" fill="white"/>
</mask>
<g mask="url(#mask2_203_2)">
<path d="M372.294 165.336H371.166V156.688H372.294V165.336Z" fill="white"/>
<path d="M384.614 161.537C384.549 160.329 384.473 158.867 384.473 157.803H384.448C384.138 158.803 383.792 159.895 383.358 161.089L381.83 165.279H380.982L379.572 161.162C379.161 159.933 378.828 158.831 378.585 157.803H378.557C378.533 158.883 378.47 160.319 378.39 161.626L378.161 165.334H377.096L377.7 156.687H379.124L380.6 160.867C380.958 161.933 381.238 162.883 381.473 163.782H381.497C381.728 162.911 382.034 161.959 382.42 160.867L383.958 156.687H385.381L385.921 165.334H384.818L384.614 161.537Z" fill="white"/>
<path d="M391.839 160.961C392.086 161.025 392.394 161.051 392.764 161.051C394.114 161.051 394.934 160.384 394.934 159.216C394.934 158.063 394.114 157.511 392.891 157.511C392.407 157.511 392.034 157.547 391.839 157.599V160.961ZM390.726 156.792C391.266 156.704 391.972 156.624 392.868 156.624C393.971 156.624 394.778 156.881 395.29 157.341C395.752 157.752 396.048 158.381 396.048 159.152C396.048 159.933 395.819 160.551 395.384 160.999C394.778 161.627 393.83 161.949 392.738 161.949C392.407 161.949 392.099 161.933 391.839 161.869V165.336H390.726V156.792Z" fill="white"/>
<path d="M404.879 161.742L404.021 159.251C403.827 158.69 403.699 158.174 403.57 157.678H403.543C403.418 158.174 403.289 158.711 403.107 159.242L402.261 161.742H404.879ZM402.031 162.613L401.133 165.334H399.977L402.929 156.686H404.261L407.21 165.334H406.022L405.095 162.613H402.031Z" fill="white"/>
<path d="M417.595 165.069C417.199 165.271 416.361 165.477 415.312 165.477C412.873 165.477 411.055 163.937 411.055 161.09C411.055 158.369 412.887 156.547 415.568 156.547C416.635 156.547 417.327 156.779 417.623 156.93L417.339 157.845C416.928 157.635 416.327 157.486 415.608 157.486C413.579 157.486 412.232 158.781 412.232 161.05C412.232 163.182 413.452 164.529 415.543 164.529C416.236 164.529 416.928 164.387 417.379 164.167L417.595 165.069Z" fill="white"/>
<path d="M423.73 157.636H421.101V156.688H427.503V157.636H424.859V165.336H423.73V157.636Z" fill="white"/>
<path fill-rule="evenodd" clip-rule="evenodd" d="M264.815 158.644C265.977 158.644 266.921 159.586 266.921 160.748C266.921 161.915 265.977 162.854 264.815 162.854C263.651 162.854 262.71 161.915 262.71 160.748C262.71 159.586 263.651 158.644 264.815 158.644Z" fill="white"/>
<path fill-rule="evenodd" clip-rule="evenodd" d="M358.029 158.644C359.191 158.644 360.133 159.586 360.133 160.748C360.133 161.915 359.191 162.854 358.029 162.854C356.866 162.854 355.922 161.915 355.922 160.748C355.922 159.586 356.866 158.644 358.029 158.644Z" fill="white"/>
<path d="M279.286 165.336H278.158V156.688H279.286V165.336Z" fill="white"/>
<path d="M284.319 165.336V156.688H285.55L288.31 161.063C288.939 162.079 289.45 162.989 289.846 163.872L289.887 163.857C289.785 162.707 289.761 161.655 289.761 160.308V156.688H290.81V165.336H289.678L286.937 160.949C286.333 159.985 285.757 158.999 285.333 158.063L285.293 158.075C285.361 159.164 285.37 160.204 285.37 161.64V165.336H284.319Z" fill="white"/>
<path d="M301.873 165.069C301.475 165.271 300.641 165.477 299.59 165.477C297.153 165.477 295.33 163.937 295.33 161.09C295.33 158.369 297.166 156.547 299.849 156.547C300.911 156.547 301.603 156.779 301.899 156.93L301.617 157.845C301.207 157.635 300.605 157.486 299.882 157.486C297.859 157.486 296.51 158.781 296.51 161.05C296.51 163.182 297.731 164.529 299.821 164.529C300.515 164.529 301.207 164.387 301.655 164.167L301.873 165.069Z" fill="white"/>
<path d="M306.353 156.688H307.482V164.397H311.177V165.336H306.353V156.688Z" fill="white"/>
<path d="M316.621 156.687V161.819C316.621 163.743 317.481 164.565 318.634 164.565C319.905 164.565 320.741 163.718 320.741 161.819V156.687H321.867V161.743C321.867 164.397 320.47 165.477 318.599 165.477C316.826 165.477 315.491 164.477 315.491 161.782V156.687H316.621Z" fill="white"/>
<path d="M328.003 164.461C328.284 164.501 328.695 164.513 329.13 164.513C331.531 164.513 332.815 163.183 332.815 160.844C332.826 158.805 331.672 157.511 329.311 157.511C328.735 157.511 328.298 157.559 328.003 157.627V164.461ZM326.886 156.817C327.566 156.704 328.374 156.624 329.26 156.624C330.864 156.624 332.004 157.007 332.764 157.704C333.543 158.409 333.994 159.409 333.994 160.808C333.994 162.216 333.543 163.372 332.751 164.167C331.93 164.973 330.595 165.412 328.915 165.412C328.106 165.412 327.452 165.376 326.886 165.308V156.817Z" fill="white"/>
<path d="M342.977 161.28H339.629V164.397H343.376V165.336H338.5V156.688H343.184V157.627H339.629V160.36H342.977V161.28Z" fill="white"/>
<path d="M175.197 165.336H174.067V156.688H175.197V165.336Z" fill="white"/>
<path d="M180.229 165.336V156.688H181.459L184.219 161.063C184.847 162.079 185.36 162.989 185.756 163.872L185.796 163.857C185.693 162.707 185.668 161.655 185.668 160.308V156.688H186.72V165.336H185.591L182.845 160.949C182.243 159.985 181.665 158.999 181.241 158.063L181.204 158.075C181.267 159.164 181.28 160.204 181.28 161.64V165.336H180.229Z" fill="white"/>
<path d="M191.753 165.336V156.688H192.985L195.742 161.063C196.37 162.079 196.885 162.989 197.282 163.872L197.32 163.857C197.217 162.707 197.192 161.655 197.192 160.308V156.688H198.244V165.336H197.116L194.369 160.949C193.768 159.985 193.189 158.999 192.766 158.063L192.728 158.075C192.792 159.164 192.805 160.204 192.805 161.64V165.336H191.753Z" fill="white"/>
<path d="M203.944 161.05C203.944 162.913 204.945 164.566 206.713 164.566C208.485 164.566 209.486 162.937 209.486 160.974C209.486 159.243 208.589 157.446 206.728 157.446C204.868 157.446 203.944 159.163 203.944 161.05ZM210.668 160.921C210.668 163.885 208.857 165.477 206.65 165.477C204.354 165.477 202.764 163.691 202.764 161.078C202.764 158.333 204.458 156.538 206.766 156.538C209.14 156.538 210.668 158.345 210.668 160.921Z" fill="white"/>
<path d="M217.098 165.336L214.264 156.688H215.482L216.829 160.949C217.188 162.115 217.508 163.167 217.753 164.18H217.778C218.022 163.183 218.366 162.091 218.766 160.961L220.228 156.688H221.421L218.33 165.336H217.098Z" fill="white"/>
<path d="M229.686 161.742L228.827 159.251C228.635 158.69 228.506 158.174 228.378 157.678H228.351C228.225 158.174 228.095 158.711 227.914 159.242L227.071 161.742H229.686ZM226.838 162.613L225.939 165.334H224.786L227.737 156.686H229.071L232.021 165.334H230.827L229.903 162.613H226.838Z" fill="white"/>
<path d="M238.018 157.636H235.388V156.688H241.786V157.636H239.145V165.336H238.018V157.636Z" fill="white"/>
<path d="M250.296 161.28H246.948V164.397H250.695V165.336H245.82V156.688H250.503V157.627H246.948V160.36H250.296V161.28Z" fill="white"/>
<path d="M143.997 78.1132L130.66 96.6585H129.316L116.148 78.1132V108.201H109.873V68.9812H117.157L130.101 87.3572L142.988 68.9812H150.273V108.201H143.997V78.1132Z" fill="white"/>
<path d="M182.552 94.3579C182.552 89.1472 179.078 85.5619 173.812 85.5619C168.488 85.5619 165.126 89.4299 165.126 94.3579C165.126 99.2912 168.768 103.158 173.812 103.158C178.855 103.158 182.552 99.5152 182.552 94.3579ZM158.85 120.977V80.5192H164.286L164.622 85.0032C166.752 81.6406 170.672 79.9606 174.372 79.9606C182.61 80.0166 188.323 86.0112 188.323 94.3579C188.323 102.71 182.944 108.759 174.372 108.759C171.01 108.759 166.695 107.527 164.622 104.11V120.977H158.85Z" fill="white"/>
<path d="M200.261 68.9219V84.6112C202.671 81.2485 205.92 80.1299 209.227 80.1299C217.015 80.1299 220.601 85.3379 220.601 93.2405V108.145H214.829V93.2939C214.829 88.0859 212.141 85.5072 207.883 85.5072C203.399 85.5072 200.261 89.2045 200.261 93.7459V108.145H194.489V68.9219H200.261Z" fill="white"/>
<path d="M232.148 94.3032C232.148 100.019 236.181 103.494 241.112 103.494C253.046 103.494 253.046 85.1726 241.112 85.1726C236.181 85.1726 232.148 88.6446 232.148 94.3032ZM250.246 80.5206H255.848V108.145H250.357L250.077 103.662C248.228 107.191 243.97 108.873 240.552 108.873C232.484 108.93 226.377 103.719 226.377 94.3032C226.377 85.0592 232.708 79.9046 240.665 79.9046C244.586 79.9046 248.34 81.7539 250.077 84.8912L250.246 80.5206Z" fill="white"/>
<path d="M281.347 87.301C279.162 85.2837 276.809 84.7237 274.063 84.7237C270.533 84.6677 268.179 85.8437 268.179 88.0277C268.237 90.3263 270.646 91.2237 274.174 91.557C279.275 92.005 285.943 93.1277 285.886 100.244C285.829 105.398 281.29 108.986 274.119 108.986C269.637 108.986 265.153 107.976 261.513 103.885L264.538 99.7943C267.115 102.654 270.982 103.829 274.231 103.885C276.978 103.885 280.059 102.877 280.114 100.298C280.171 97.8357 277.817 96.881 273.726 96.4903C268.517 95.9837 262.521 94.3037 262.463 88.197C262.463 82.0903 268.797 79.793 273.953 79.793C278.209 79.793 281.514 80.7423 284.595 83.4917L281.347 87.301Z" fill="white"/>
<path d="M291.66 108.145H297.43V80.4085H291.66V108.145ZM298.16 72.3979C298.16 77.1579 290.986 77.1579 290.986 72.3979C290.986 67.6899 298.16 67.6899 298.16 72.3979Z" fill="white"/>
<path d="M322.925 87.301C320.742 85.2837 318.388 84.7237 315.641 84.7237C312.112 84.6677 309.757 85.8437 309.757 88.0277C309.813 90.3263 312.225 91.2237 315.753 91.557C320.853 92.005 327.521 93.1277 327.465 100.244C327.409 105.398 322.87 108.986 315.698 108.986C311.217 108.986 306.733 107.976 303.092 103.885L306.116 99.7943C308.693 102.654 312.561 103.829 315.812 103.885C318.556 103.885 321.637 102.877 321.693 100.298C321.75 97.8357 319.397 96.881 315.306 96.4903C310.094 95.9837 304.098 94.3037 304.044 88.197C304.044 82.0903 310.374 79.793 315.53 79.793C319.789 79.793 323.094 80.7423 326.176 83.4917L322.925 87.301Z" fill="white"/>
</g>
<path d="M58.0237 80.1563L76.601 99.4043L86.3023 89.299L58.4596 60.347C52.869 65.6976 52.6743 74.5656 58.0237 80.1563Z" fill="url(#paint0_linear_203_2)"/>
<mask id="mask3_203_2" style="mask-type:luminance" maskUnits="userSpaceOnUse" x="0" y="0" width="463" height="222">
<path d="M0 0.000765959H462.671V221.33H0V0.000765959Z" fill="white"/>
</mask>
<g mask="url(#mask3_203_2)">
<mask id="mask4_203_2" style="mask-type:luminance" maskUnits="userSpaceOnUse" x="69" y="82" width="18" height="18">
<mask id="mask5_203_2" style="mask-type:luminance" maskUnits="userSpaceOnUse" x="69" y="82" width="18" height="18">
<path d="M69.8447 82.4139H86.3027V99.4082H69.8447V82.4139Z" fill="white"/>
</mask>
<g mask="url(#mask5_203_2)">
<g opacity="0.639999">
<mask id="mask6_203_2" style="mask-type:luminance" maskUnits="userSpaceOnUse" x="69" y="82" width="18" height="18">
<path d="M69.8447 82.4127H86.3031V99.4082H69.8447V82.4127Z" fill="white"/>
</mask>
<g mask="url(#mask6_203_2)">
<mask id="mask7_203_2" style="mask-type:luminance" maskUnits="userSpaceOnUse" x="69" y="82" width="18" height="18">
<path d="M79.7541 82.4122L86.3034 89.3002L76.6047 99.4082L69.8447 92.3215C73.1487 89.0189 76.4514 85.7162 79.7541 82.4122Z" fill="white"/>
</mask>
<g mask="url(#mask7_203_2)">
<path d="M79.7541 82.4122L86.3034 89.3002L76.6047 99.4082L69.8447 92.3215C73.1487 89.0189 76.4514 85.7162 79.7541 82.4122Z" fill="url(#paint1_linear_203_2)"/>
</g>
</g>
</g>
</g>
</mask>
<g mask="url(#mask4_203_2)">
<mask id="mask8_203_2" style="mask-type:luminance" maskUnits="userSpaceOnUse" x="69" y="82" width="18" height="18">
<path d="M69.8447 82.4139H86.3027V99.4082H69.8447V82.4139Z" fill="white"/>
</mask>
<g mask="url(#mask8_203_2)">
<g opacity="0.639999">
<path d="M79.7531 82.4135L86.3024 89.3002L76.6037 99.4082L69.8438 92.3215C73.1477 89.0189 76.4504 85.7149 79.7531 82.4135Z" fill="url(#paint2_linear_203_2)"/>
</g>
</g>
</g>
<path d="M60.4423 116.235L86.3023 89.3012C91.9996 95.2545 91.893 104.893 86.0663 110.72L70.5983 126.187C67.821 128.964 63.3196 128.964 60.5423 126.187C57.8063 123.449 57.7623 119.028 60.4423 116.235Z" fill="#D90D5E"/>
</g>
<path d="M35.4775 131.467L61.0562 158.16C66.6469 152.811 66.8415 143.944 61.4935 138.351L45.1789 121.36L35.4775 131.467Z" fill="url(#paint3_linear_203_2)"/>
<mask id="mask9_203_2" style="mask-type:luminance" maskUnits="userSpaceOnUse" x="0" y="0" width="463" height="222">
<path d="M0 0.000765959H462.671V221.33H0V0.000765959Z" fill="white"/>
</mask>
<g mask="url(#mask9_203_2)">
<mask id="mask10_203_2" style="mask-type:luminance" maskUnits="userSpaceOnUse" x="35" y="121" width="17" height="18">
<mask id="mask11_203_2" style="mask-type:luminance" maskUnits="userSpaceOnUse" x="35" y="121" width="17" height="18">
<path d="M35.4766 121.357H51.9336V138.352H35.4766V121.357Z" fill="white"/>
</mask>
<g mask="url(#mask11_203_2)">
<g opacity="0.639999">
<mask id="mask12_203_2" style="mask-type:luminance" maskUnits="userSpaceOnUse" x="35" y="121" width="17" height="18">
<path d="M35.4766 121.357H51.9336V138.352H35.4766V121.357Z" fill="white"/>
</mask>
<g mask="url(#mask12_203_2)">
<mask id="mask13_203_2" style="mask-type:luminance" maskUnits="userSpaceOnUse" x="35" y="121" width="17" height="18">
<path d="M42.0249 138.352L35.4756 131.466L45.1743 121.357L51.9329 128.444C48.6303 131.748 45.3276 135.049 42.0249 138.352Z" fill="white"/>
</mask>
<g mask="url(#mask13_203_2)">
<path d="M42.0249 138.352L35.4756 131.466L45.1743 121.357L51.9329 128.444C48.6303 131.748 45.3276 135.049 42.0249 138.352Z" fill="url(#paint4_linear_203_2)"/>
</g>
</g>
</g>
</g>
</mask>
<g mask="url(#mask10_203_2)">
<mask id="mask14_203_2" style="mask-type:luminance" maskUnits="userSpaceOnUse" x="35" y="121" width="17" height="18">
<path d="M35.4766 121.357H51.9336V138.352H35.4766V121.357Z" fill="white"/>
</mask>
<g mask="url(#mask14_203_2)">
<g opacity="0.639999">
<path d="M42.0259 138.352L35.4766 131.466L45.1766 121.357L51.9339 128.445C48.6312 131.749 45.3272 135.05 42.0259 138.352Z" fill="url(#paint5_linear_203_2)"/>
</g>
</g>
</g>
</g>
<path d="M52.7709 92.9881L35.7122 110.044C29.8869 115.871 29.7789 125.512 35.4776 131.467L62.8949 102.907C65.5669 100.124 65.5216 95.7135 62.7949 92.9881C61.4109 91.6041 59.5976 90.9121 57.7829 90.9121C55.9696 90.9121 54.1562 91.6041 52.7709 92.9881Z" fill="url(#paint6_linear_203_2)"/>
<defs>
<linearGradient id="paint0_linear_203_2" x1="86.3022" y1="79.8762" x2="54.136" y2="79.8762" gradientUnits="userSpaceOnUse">
<stop stop-color="#8C40A5"/>
<stop offset="0.111962" stop-color="#8C40A5"/>
<stop offset="0.691686" stop-color="#C60E79"/>
<stop offset="1" stop-color="#C60E79"/>
</linearGradient>
<linearGradient id="paint1_linear_203_2" x1="76.2865" y1="89.0177" x2="83.2092" y2="95.9403" gradientUnits="userSpaceOnUse">
<stop stop-color="#231F20"/>
<stop offset="0.986077" stop-color="white"/>
<stop offset="1" stop-color="white"/>
</linearGradient>
<linearGradient id="paint2_linear_203_2" x1="76.2858" y1="89.0179" x2="83.2085" y2="95.9405" gradientUnits="userSpaceOnUse">
<stop stop-color="white"/>
<stop offset="0.986077" stop-color="#231F20"/>
<stop offset="1" stop-color="#231F20"/>
</linearGradient>
<linearGradient id="paint3_linear_203_2" x1="35.4765" y1="139.76" x2="65.3803" y2="139.76" gradientUnits="userSpaceOnUse">
<stop stop-color="#459EDA"/>
<stop offset="0.847521" stop-color="#97D432"/>
<stop offset="1" stop-color="#97D432"/>
</linearGradient>
<linearGradient id="paint4_linear_203_2" x1="45.4924" y1="131.747" x2="38.5693" y2="124.824" gradientUnits="userSpaceOnUse">
<stop stop-color="#231F20"/>
<stop offset="0.986077" stop-color="white"/>
<stop offset="1" stop-color="white"/>
</linearGradient>
<linearGradient id="paint5_linear_203_2" x1="45.4937" y1="131.748" x2="38.5706" y2="124.825" gradientUnits="userSpaceOnUse">
<stop stop-color="white"/>
<stop offset="0.986077" stop-color="#231F20"/>
<stop offset="1" stop-color="#231F20"/>
</linearGradient>
<linearGradient id="paint6_linear_203_2" x1="27.5662" y1="128.784" x2="68.1104" y2="88.2394" gradientUnits="userSpaceOnUse">
<stop stop-color="#ADE4EF"/>
<stop offset="1" stop-color="#459EDA"/>
</linearGradient>
</defs>
</svg>
