<svg xmlns="http://www.w3.org/2000/svg" xmlns:xlink="http://www.w3.org/1999/xlink" viewBox="0 0 400 93.18"><defs><style>.a{fill:#0065c1;}.b{fill:#00b2ff;}.c{fill:#23dfeb;}.d{fill:url(#a);}</style><linearGradient id="a" x1="35.42" y1="57.44" x2="44.75" y2="41.69" gradientTransform="matrix(1, 0, 0, -1, 0, 96)" gradientUnits="userSpaceOnUse"><stop offset="0" stop-color="#00b2ff"></stop><stop offset="1" stop-color="#23dfeb"></stop></linearGradient></defs><path class="a" d="M135.08,68.13c-2.59,2.07-6.47,3.1-10.36,3.1-10.09,0-15.87-5.35-15.87-15.52V33.53h-7.59V24.9h7.59V14.38h10.79V24.9H132v8.63H119.64V55.45c0,4.49,2.24,6.9,6.38,6.9a9.69,9.69,0,0,0,6-1.9Z"></path><path class="a" d="M170.62,24.05V34.31a13.81,13.81,0,0,0-2.5-.25c-8.19,0-13.36,4.83-13.36,14.23V70.64H144V24.58h10.26v6.73C157.34,26.46,163,24.05,170.62,24.05Z"></path><path class="a" d="M224.8,24.56V70.62H214.54V64.76c-3.46,4.22-8.89,6.47-14.84,6.47-11.82,0-19.84-6.47-19.84-20.35V24.56h10.79V49.41c0,8.36,4,12.34,10.79,12.34,7.5,0,12.59-4.66,12.59-13.89V24.56Z"></path><path class="a" d="M316,44.23V70.62H305.18v-25c0-8.2-3.79-12.17-10.35-12.17-7.07,0-12,4.65-12,13.8V70.61H272.05v-25c0-8.2-3.79-12.16-10.36-12.16-7.16,0-12,4.65-12,13.8V70.6H238.91V24.54h10.26v5.87c3.46-4.14,8.8-6.38,15.1-6.38,6.73,0,12.34,2.49,15.52,7.67C283.5,27,289.72,24,297,24,308.22,24.05,316,30.34,316,44.23Z"></path><path class="a" d="M328.31,10.5A6.57,6.57,0,0,1,335.22,4c4,0,6.9,2.67,6.9,6.22a6.91,6.91,0,0,1-13.81.26Zm1.47,14.06h10.79V70.62H329.78Z"></path><path class="a" d="M350.92,47.6c0-13.8,10.35-23.55,24.49-23.55C389.73,24.05,400,33.8,400,47.6s-10.27,23.63-24.59,23.63C361.26,71.23,350.92,61.4,350.92,47.6Zm38.21,0c0-8.79-5.87-14.41-13.72-14.41s-13.63,5.62-13.63,14.41S367.64,62,375.41,62,389.13,56.39,389.13,47.6Z"></path><path class="b" d="M6.51,27.07l9-5.18-.08,33,7.73-4.47V36.73l17.06-9.86L53,34.24,76.16,20.69,40.33,0,0,23.29V63.74L6.51,60ZM24.66,16.71,40.73,7.44l22.56,13-8.83,5.16L40.73,17.69,24.66,27Z"></path><path class="c" d="M74.36,33.31V66.24l-9,5.18.08-33-8.21,4.75V56.46L40.2,66.32l-12.46-7.2L4.55,72.51l35.8,20.67L80.67,69.89V29.67ZM56.79,76.5,40.72,85.78,17.87,72.58l8.89-5.13,14,8.06,16.07-9.27Z"></path><path class="d" d="M30.9,41.24V52l9.28,5.37L49.48,52V41.24l-9.3-5.36Z"></path></svg>