<svg width="508" height="69" viewBox="0 0 508 69" fill="none" xmlns="http://www.w3.org/2000/svg">
<path d="M45.8127 45.6264L45.8104 68.112L23.3249 68.1143L23.3271 45.6287L45.8127 45.6264Z" fill="#3998FF"/>
<path d="M129.784 0.634204L129.782 23.1198L107.296 23.1221L107.298 0.636475L129.784 0.634204Z" fill="#3998FF"/>
<path d="M84.8281 0.661548L84.8258 23.1371L62.3502 23.1394L62.3525 0.663818L84.8281 0.661548Z" fill="#D763FF"/>
<path d="M45.8128 23.1642L45.8105 45.6699L23.3048 45.6722L23.3071 23.1665L45.8128 23.1642Z" fill="#8A88FF"/>
<path d="M23.3284 0.686203L23.3261 23.1919L0.820458 23.1941L0.822754 0.688477L23.3284 0.686203Z" fill="#FFB800"/>
<path d="M107.294 23.1303L107.292 45.636L84.7863 45.6382L84.7886 23.1326L107.294 23.1303Z" fill="#FFB800"/>
<path d="M107.294 0.62761L107.292 23.1333L84.7863 23.1355L84.7886 0.629883L107.294 0.62761Z" fill="#8A88FF"/>
<path d="M45.8128 0.670578L45.8105 23.1762L23.3048 23.1785L23.3071 0.672852L45.8128 0.670578Z" fill="#FF7979"/>
<path d="M107.294 45.6264L107.292 68.132L84.7863 68.1343L84.7886 45.6287L107.294 45.6264Z" fill="#FF7979"/>
<path d="M68.302 45.6264L68.2997 68.132L45.7941 68.1343L45.7964 45.6287L68.302 45.6264Z" fill="#19E6F3"/>
<path d="M45.8128 23.155L45.8105 45.6606L23.3048 45.6629L23.3071 23.1572L45.8128 23.155Z" fill="#3A36FF"/>
<path d="M169.906 60.5222V52.4228L196.478 17.1122L200.599 21.8723H171.753V10.7889H209.267V18.8173L182.908 54.199L178.645 49.8651H210.048V60.5222H169.906ZM236.814 61.2327C232.646 61.2327 228.999 60.4038 225.873 58.746C222.794 57.0882 220.402 54.8147 218.697 51.9254C217.039 48.9888 216.21 45.6496 216.21 41.9077C216.21 38.9711 216.684 36.295 217.631 33.8794C218.579 31.4164 219.905 29.3086 221.61 27.5561C223.362 25.8036 225.399 24.4537 227.72 23.5064C230.088 22.5118 232.67 22.0144 235.464 22.0144C238.117 22.0144 240.532 22.4881 242.711 23.4354C244.89 24.3827 246.784 25.7089 248.395 27.414C250.005 29.1192 251.237 31.1322 252.089 33.4531C252.942 35.774 253.345 38.308 253.297 41.0552L253.226 44.1813H223.244L221.539 37.7159H243.919L242.711 38.9948V37.5738C242.616 36.3897 242.237 35.3714 241.574 34.5188C240.959 33.6189 240.13 32.9084 239.088 32.3874C238.093 31.8664 236.956 31.6059 235.677 31.6059C233.783 31.6059 232.172 31.9848 230.846 32.7426C229.567 33.4531 228.596 34.4951 227.933 35.8687C227.27 37.2423 226.939 38.9474 226.939 40.9841C226.939 43.0208 227.365 44.8207 228.217 46.3837C229.117 47.9468 230.396 49.1546 232.054 50.0072C233.759 50.8597 235.772 51.286 238.093 51.286C239.656 51.286 241.077 51.0492 242.356 50.5755C243.635 50.1019 245.008 49.2967 246.477 48.1599L251.805 55.691C250.337 56.9224 248.774 57.9645 247.116 58.8171C245.458 59.6223 243.753 60.2143 242.001 60.5932C240.295 61.0195 238.567 61.2327 236.814 61.2327ZM260.538 60.5222V7.94703H271.977V60.5222H260.538ZM285.034 60.5222V13.2756H296.472V60.5222H285.034ZM278.355 32.8137V22.796H303.719V32.8137H278.355ZM330.045 60.5222V37.3607C330.045 35.4187 329.5 33.9978 328.41 33.0979C327.368 32.1505 325.9 31.6769 324.006 31.6769C322.158 31.6769 320.501 32.0321 319.032 32.7426C317.611 33.4057 316.238 34.5188 314.911 36.0818L308.091 29.4744C310.364 27.1535 312.969 25.33 315.906 24.0038C318.843 22.6775 322.04 22.0144 325.498 22.0144C328.671 22.0144 331.418 22.4881 333.739 23.4354C336.06 24.3827 337.86 25.8273 339.139 27.7693C340.417 29.7113 341.057 32.1742 341.057 35.1582V60.5222H330.045ZM320.24 61.2327C317.872 61.2327 315.717 60.759 313.775 59.8117C311.88 58.8644 310.364 57.5619 309.228 55.9041C308.138 54.199 307.594 52.2096 307.594 49.9361C307.594 47.9941 307.949 46.289 308.659 44.8207C309.37 43.3524 310.412 42.1446 311.785 41.1973C313.206 40.2026 314.959 39.4684 317.043 38.9948C319.174 38.4738 321.637 38.2133 324.432 38.2133H335.87L335.231 45.3891H324.716C323.721 45.3891 322.845 45.4838 322.087 45.6733C321.329 45.8154 320.69 46.0759 320.169 46.4548C319.648 46.7863 319.245 47.1889 318.961 47.6626C318.724 48.1362 318.606 48.7046 318.606 49.3677C318.606 50.0782 318.795 50.694 319.174 51.215C319.553 51.736 320.051 52.1386 320.666 52.4228C321.329 52.707 322.087 52.8491 322.94 52.8491C324.171 52.8491 325.332 52.6596 326.421 52.2807C327.558 51.8544 328.553 51.2623 329.405 50.5045C330.305 49.7467 331.016 48.8704 331.537 47.8757L333.526 52.9912C332.531 54.6016 331.323 56.0225 329.902 57.254C328.529 58.4855 327.013 59.4565 325.355 60.167C323.745 60.8774 322.04 61.2327 320.24 61.2327ZM351.317 60.5222V10.7889H363.466V49.794H385.633V60.5222H351.317ZM412.263 60.5222V37.3607C412.263 35.4187 411.718 33.9978 410.629 33.0979C409.586 32.1505 408.118 31.6769 406.224 31.6769C404.376 31.6769 402.719 32.0321 401.25 32.7426C399.829 33.4057 398.456 34.5188 397.13 36.0818L390.309 29.4744C392.582 27.1535 395.188 25.33 398.124 24.0038C401.061 22.6775 404.258 22.0144 407.716 22.0144C410.889 22.0144 413.636 22.4881 415.957 23.4354C418.278 24.3827 420.078 25.8273 421.357 27.7693C422.636 29.7113 423.275 32.1742 423.275 35.1582V60.5222H412.263ZM402.458 61.2327C400.09 61.2327 397.935 60.759 395.993 59.8117C394.098 58.8644 392.582 57.5619 391.446 55.9041C390.356 54.199 389.812 52.2096 389.812 49.9361C389.812 47.9941 390.167 46.289 390.877 44.8207C391.588 43.3524 392.63 42.1446 394.003 41.1973C395.424 40.2026 397.177 39.4684 399.261 38.9948C401.392 38.4738 403.855 38.2133 406.65 38.2133H418.089L417.449 45.3891H406.934C405.939 45.3891 405.063 45.4838 404.305 45.6733C403.547 45.8154 402.908 46.0759 402.387 46.4548C401.866 46.7863 401.463 47.1889 401.179 47.6626C400.942 48.1362 400.824 48.7046 400.824 49.3677C400.824 50.0782 401.013 50.694 401.392 51.215C401.771 51.736 402.269 52.1386 402.884 52.4228C403.547 52.707 404.305 52.8491 405.158 52.8491C406.389 52.8491 407.55 52.6596 408.639 52.2807C409.776 51.8544 410.771 51.2623 411.623 50.5045C412.523 49.7467 413.234 48.8704 413.755 47.8757L415.744 52.9912C414.749 54.6016 413.541 56.0225 412.121 57.254C410.747 58.4855 409.231 59.4565 407.573 60.167C405.963 60.8774 404.258 61.2327 402.458 61.2327ZM455.062 61.2327C453.357 61.2327 451.723 60.9958 450.16 60.5222C448.644 60.0485 447.247 59.4328 445.968 58.675C444.689 57.8698 443.623 56.9461 442.771 55.9041C441.966 54.8621 441.445 53.7727 441.208 52.6359L443.694 51.7833L443.055 60.3801H432.398V7.94703H443.908V31.6059L441.563 30.8243C441.847 29.6402 442.392 28.5271 443.197 27.4851C444.002 26.4431 444.997 25.5194 446.181 24.7142C447.413 23.8617 448.763 23.1986 450.231 22.7249C451.699 22.2513 453.215 22.0144 454.778 22.0144C458.046 22.0144 460.935 22.867 463.446 24.5721C466.003 26.2773 468.016 28.6219 469.485 31.6059C470.953 34.5425 471.687 37.9054 471.687 41.6946C471.687 45.4838 470.953 48.8467 469.485 51.7833C468.064 54.72 466.098 57.0409 463.588 58.746C461.077 60.4038 458.236 61.2327 455.062 61.2327ZM452.078 51.6413C453.783 51.6413 455.252 51.2386 456.483 50.4334C457.762 49.5809 458.757 48.4204 459.467 46.9521C460.178 45.4364 460.533 43.6839 460.533 41.6946C460.533 39.6579 460.178 37.9054 459.467 36.4371C458.804 34.9214 457.833 33.761 456.554 32.9558C455.275 32.1032 453.783 31.6769 452.078 31.6769C450.373 31.6769 448.881 32.1032 447.602 32.9558C446.323 33.761 445.329 34.9214 444.618 36.4371C443.908 37.9054 443.552 39.6579 443.552 41.6946C443.552 43.6839 443.908 45.4364 444.618 46.9521C445.329 48.4204 446.323 49.5809 447.602 50.4334C448.881 51.2386 450.373 51.6413 452.078 51.6413ZM491.879 61.2327C488.279 61.2327 485.059 60.6643 482.217 59.5275C479.375 58.3434 477.101 56.733 475.396 54.6963L482.359 48.7283C483.827 50.1966 485.485 51.286 487.332 51.9965C489.179 52.6596 490.932 52.9912 492.59 52.9912C493.205 52.9912 493.75 52.9201 494.224 52.778C494.697 52.6359 495.1 52.4465 495.431 52.2096C495.81 51.9254 496.095 51.6176 496.284 51.286C496.474 50.9071 496.568 50.4808 496.568 50.0072C496.568 49.0599 496.166 48.3494 495.36 47.8757C494.982 47.6389 494.295 47.3547 493.3 47.0232C492.305 46.6442 491.027 46.2653 489.464 45.8864C487.237 45.318 485.295 44.6312 483.638 43.826C482.027 43.0208 480.701 42.0972 479.659 41.0552C478.712 40.1079 477.977 39.0185 477.456 37.787C476.983 36.5555 476.746 35.1819 476.746 33.6662C476.746 31.3453 477.433 29.3086 478.806 27.5561C480.227 25.8036 482.075 24.4537 484.348 23.5064C486.622 22.5118 489.085 22.0144 491.737 22.0144C493.821 22.0144 495.787 22.2513 497.634 22.7249C499.529 23.1986 501.281 23.8617 502.892 24.7142C504.549 25.5668 506.018 26.5852 507.296 27.7693L501.257 34.5188C500.452 33.7136 499.505 33.0031 498.416 32.3874C497.326 31.7243 496.237 31.2032 495.147 30.8243C494.058 30.398 493.04 30.1849 492.092 30.1849C491.382 30.1849 490.742 30.256 490.174 30.398C489.653 30.4928 489.203 30.6822 488.824 30.9664C488.493 31.2032 488.232 31.5111 488.043 31.89C487.853 32.2216 487.758 32.6005 487.758 33.0268C487.758 33.5478 487.877 34.0215 488.114 34.4478C488.398 34.8267 488.777 35.1819 489.25 35.5135C489.677 35.7503 490.411 36.0582 491.453 36.4371C492.542 36.816 493.963 37.2423 495.716 37.7159C497.942 38.3317 499.836 39.0422 501.399 39.8474C503.01 40.6052 504.289 41.5051 505.236 42.5472C506.041 43.3524 506.61 44.2997 506.941 45.3891C507.32 46.4311 507.51 47.5679 507.51 48.7994C507.51 51.215 506.823 53.3701 505.449 55.2647C504.123 57.1119 502.276 58.5802 499.907 59.6696C497.587 60.7116 494.91 61.2327 491.879 61.2327Z" fill="white"/>
</svg>
