<svg width="980" height="497" viewBox="0 0 980 497" fill="none" xmlns="http://www.w3.org/2000/svg">
<rect y="129" width="980" height="368" rx="80" fill="#122438"/>
<ellipse cx="490" cy="206" rx="266" ry="206" fill="#122438"/>
<g clip-path="url(#clip0_37_2377)">
<path d="M923.14 202.383C919.69 201.989 916.474 200.437 914.018 197.981C911.563 195.525 910.012 192.309 909.619 188.858L907.999 174.01L906.381 188.868C905.988 192.319 904.437 195.535 901.982 197.991C899.526 200.447 896.31 201.999 892.86 202.393L878 204.01L892.86 205.628C896.31 206.021 899.526 207.573 901.982 210.029C904.437 212.485 905.988 215.701 906.381 219.152L907.999 234.01L909.619 219.152C910.011 215.701 911.562 212.485 914.018 210.029C916.474 207.572 919.689 206.021 923.14 205.628L938 204.01L923.14 202.383ZM925.409 204L922.993 204.25C919.235 204.677 915.732 206.366 913.057 209.041C910.382 211.716 908.693 215.219 908.266 218.978L908.001 221.394L907.739 218.978C907.312 215.219 905.623 211.716 902.948 209.041C900.273 206.366 896.77 204.677 893.012 204.25L890.593 204L893.012 203.738C896.77 203.311 900.273 201.622 902.948 198.947C905.623 196.272 907.312 192.769 907.739 189.01L908.001 186.594L908.266 189.01C908.693 192.769 910.382 196.272 913.057 198.947C915.732 201.622 919.235 203.311 922.993 203.738L925.409 204Z" fill="white"/>
</g>
<g clip-path="url(#clip1_37_2377)">
<path d="M923.14 275.383C919.69 274.989 916.474 273.437 914.018 270.981C911.563 268.525 910.012 265.309 909.619 261.858L907.999 247.01L906.381 261.868C905.988 265.319 904.437 268.535 901.982 270.991C899.526 273.447 896.31 274.999 892.86 275.393L878 277.01L892.86 278.628C896.31 279.021 899.526 280.573 901.982 283.029C904.437 285.485 905.988 288.701 906.381 292.152L907.999 307.01L909.619 292.152C910.011 288.701 911.562 285.485 914.018 283.029C916.474 280.572 919.689 279.021 923.14 278.628L938 277.01L923.14 275.383ZM925.409 277L922.993 277.25C919.235 277.677 915.732 279.366 913.057 282.041C910.382 284.716 908.693 288.219 908.266 291.978L908.001 294.394L907.739 291.978C907.312 288.219 905.623 284.716 902.948 282.041C900.273 279.366 896.77 277.677 893.012 277.25L890.593 277L893.012 276.738C896.77 276.311 900.273 274.622 902.948 271.947C905.623 269.272 907.312 265.769 907.739 262.01L908.001 259.594L908.266 262.01C908.693 265.769 910.382 269.272 913.057 271.947C915.732 274.622 919.235 276.311 922.993 276.738L925.409 277Z" fill="white"/>
</g>
<g clip-path="url(#clip2_37_2377)">
<path d="M923.14 348.383C919.69 347.989 916.474 346.437 914.018 343.981C911.563 341.525 910.012 338.309 909.619 334.858L907.999 320.01L906.381 334.868C905.988 338.319 904.437 341.535 901.982 343.991C899.526 346.447 896.31 347.999 892.86 348.393L878 350.01L892.86 351.628C896.31 352.021 899.526 353.573 901.982 356.029C904.437 358.485 905.988 361.701 906.381 365.152L907.999 380.01L909.619 365.152C910.011 361.701 911.562 358.485 914.018 356.029C916.474 353.572 919.689 352.021 923.14 351.628L938 350.01L923.14 348.383ZM925.409 350L922.993 350.25C919.235 350.677 915.732 352.366 913.057 355.041C910.382 357.716 908.693 361.219 908.266 364.978L908.001 367.394L907.739 364.978C907.312 361.219 905.623 357.716 902.948 355.041C900.273 352.366 896.77 350.677 893.012 350.25L890.593 350L893.012 349.738C896.77 349.311 900.273 347.622 902.948 344.947C905.623 342.272 907.312 338.769 907.739 335.01L908.001 332.594L908.266 335.01C908.693 338.769 910.382 342.272 913.057 344.947C915.732 347.622 919.235 349.311 922.993 349.738L925.409 350Z" fill="white"/>
</g>
<g clip-path="url(#clip3_37_2377)">
<path d="M923.14 420.383C919.69 419.989 916.474 418.437 914.018 415.981C911.563 413.525 910.012 410.309 909.619 406.858L907.999 392.01L906.381 406.868C905.988 410.319 904.437 413.535 901.982 415.991C899.526 418.447 896.31 419.999 892.86 420.393L878 422.01L892.86 423.628C896.31 424.021 899.526 425.573 901.982 428.029C904.437 430.485 905.988 433.701 906.381 437.152L907.999 452.01L909.619 437.152C910.011 433.701 911.562 430.485 914.018 428.029C916.474 425.572 919.689 424.021 923.14 423.628L938 422.01L923.14 420.383ZM925.409 422L922.993 422.25C919.235 422.677 915.732 424.366 913.057 427.041C910.382 429.716 908.693 433.219 908.266 436.978L908.001 439.394L907.739 436.978C907.312 433.219 905.623 429.716 902.948 427.041C900.273 424.366 896.77 422.677 893.012 422.25L890.593 422L893.012 421.738C896.77 421.311 900.273 419.621 902.948 416.947C905.623 414.272 907.312 410.769 907.739 407.01L908.001 404.594L908.266 407.01C908.693 410.769 910.382 414.272 913.057 416.947C915.732 419.621 919.235 421.311 922.993 421.738L925.409 422Z" fill="white"/>
</g>
<g clip-path="url(#clip4_37_2377)">
<path d="M87.1404 202.383C83.6896 201.989 80.474 200.437 78.0183 197.981C75.5626 195.525 74.0118 192.309 73.6188 188.858L71.9988 174.01L70.3812 188.868C69.9882 192.319 68.4374 195.535 65.9817 197.991C63.526 200.447 60.3104 201.999 56.8596 202.393L42 204.01L56.8596 205.628C60.3104 206.021 63.526 207.573 65.9817 210.029C68.4374 212.485 69.9882 215.701 70.3812 219.152L71.9988 234.01L73.6188 219.152C74.0113 215.701 75.562 212.485 78.0178 210.029C80.4736 207.572 83.6894 206.021 87.1404 205.628L102 204.01L87.1404 202.383ZM89.4094 204L86.9931 204.25C83.2346 204.677 79.732 206.366 77.0571 209.041C74.3823 211.716 72.6933 215.219 72.2658 218.978L72.0012 221.394L71.7391 218.978C71.3117 215.219 69.6227 211.716 66.9479 209.041C64.273 206.366 60.7704 204.677 57.0119 204.25L54.5931 204L57.0119 203.738C60.7704 203.311 64.273 201.622 66.9479 198.947C69.6227 196.272 71.3117 192.769 71.7391 189.01L72.0012 186.594L72.2658 189.01C72.6933 192.769 74.3823 196.272 77.0571 198.947C79.732 201.622 83.2346 203.311 86.9931 203.738L89.4094 204Z" fill="white"/>
</g>
<g clip-path="url(#clip5_37_2377)">
<path d="M87.1404 275.383C83.6896 274.989 80.474 273.437 78.0183 270.981C75.5626 268.525 74.0118 265.309 73.6188 261.858L71.9988 247.01L70.3812 261.868C69.9882 265.319 68.4374 268.535 65.9817 270.991C63.526 273.447 60.3104 274.999 56.8596 275.393L42 277.01L56.8596 278.628C60.3104 279.021 63.526 280.573 65.9817 283.029C68.4374 285.485 69.9882 288.701 70.3812 292.152L71.9988 307.01L73.6188 292.152C74.0113 288.701 75.562 285.485 78.0178 283.029C80.4736 280.572 83.6894 279.021 87.1404 278.628L102 277.01L87.1404 275.383ZM89.4094 277L86.9931 277.25C83.2346 277.677 79.732 279.366 77.0571 282.041C74.3823 284.716 72.6933 288.219 72.2658 291.978L72.0012 294.394L71.7391 291.978C71.3117 288.219 69.6227 284.716 66.9479 282.041C64.273 279.366 60.7704 277.677 57.0119 277.25L54.5931 277L57.0119 276.738C60.7704 276.311 64.273 274.622 66.9479 271.947C69.6227 269.272 71.3117 265.769 71.7391 262.01L72.0012 259.594L72.2658 262.01C72.6933 265.769 74.3823 269.272 77.0571 271.947C79.732 274.622 83.2346 276.311 86.9931 276.738L89.4094 277Z" fill="white"/>
</g>
<g clip-path="url(#clip6_37_2377)">
<path d="M87.1404 348.383C83.6896 347.989 80.474 346.437 78.0183 343.981C75.5626 341.525 74.0118 338.309 73.6188 334.858L71.9988 320.01L70.3812 334.868C69.9882 338.319 68.4374 341.535 65.9817 343.991C63.526 346.447 60.3104 347.999 56.8596 348.393L42 350.01L56.8596 351.628C60.3104 352.021 63.526 353.573 65.9817 356.029C68.4374 358.485 69.9882 361.701 70.3812 365.152L71.9988 380.01L73.6188 365.152C74.0113 361.701 75.562 358.485 78.0178 356.029C80.4736 353.572 83.6894 352.021 87.1404 351.628L102 350.01L87.1404 348.383ZM89.4094 350L86.9931 350.25C83.2346 350.677 79.732 352.366 77.0571 355.041C74.3823 357.716 72.6933 361.219 72.2658 364.978L72.0012 367.394L71.7391 364.978C71.3117 361.219 69.6227 357.716 66.9479 355.041C64.273 352.366 60.7704 350.677 57.0119 350.25L54.5931 350L57.0119 349.738C60.7704 349.311 64.273 347.622 66.9479 344.947C69.6227 342.272 71.3117 338.769 71.7391 335.01L72.0012 332.594L72.2658 335.01C72.6933 338.769 74.3823 342.272 77.0571 344.947C79.732 347.622 83.2346 349.311 86.9931 349.738L89.4094 350Z" fill="white"/>
</g>
<g clip-path="url(#clip7_37_2377)">
<path d="M87.1404 420.383C83.6896 419.989 80.474 418.437 78.0183 415.981C75.5626 413.525 74.0118 410.309 73.6188 406.858L71.9988 392.01L70.3812 406.868C69.9882 410.319 68.4374 413.535 65.9817 415.991C63.526 418.447 60.3104 419.999 56.8596 420.393L42 422.01L56.8596 423.628C60.3104 424.021 63.526 425.573 65.9817 428.029C68.4374 430.485 69.9882 433.701 70.3812 437.152L71.9988 452.01L73.6188 437.152C74.0113 433.701 75.562 430.485 78.0178 428.029C80.4736 425.572 83.6894 424.021 87.1404 423.628L102 422.01L87.1404 420.383ZM89.4094 422L86.9931 422.25C83.2346 422.677 79.732 424.366 77.0571 427.041C74.3823 429.716 72.6933 433.219 72.2658 436.978L72.0012 439.394L71.7391 436.978C71.3117 433.219 69.6227 429.716 66.9479 427.041C64.273 424.366 60.7704 422.677 57.0119 422.25L54.5931 422L57.0119 421.738C60.7704 421.311 64.273 419.621 66.9479 416.947C69.6227 414.272 71.3117 410.769 71.7391 407.01L72.0012 404.594L72.2658 407.01C72.6933 410.769 74.3823 414.272 77.0571 416.947C79.732 419.621 83.2346 421.311 86.9931 421.738L89.4094 422Z" fill="white"/>
</g>
<defs>
<clipPath id="clip0_37_2377">
<rect width="60" height="60" fill="white" transform="translate(878 174)"/>
</clipPath>
<clipPath id="clip1_37_2377">
<rect width="60" height="60" fill="white" transform="translate(878 247)"/>
</clipPath>
<clipPath id="clip2_37_2377">
<rect width="60" height="60" fill="white" transform="translate(878 320)"/>
</clipPath>
<clipPath id="clip3_37_2377">
<rect width="60" height="60" fill="white" transform="translate(878 392)"/>
</clipPath>
<clipPath id="clip4_37_2377">
<rect width="60" height="60" fill="white" transform="translate(42 174)"/>
</clipPath>
<clipPath id="clip5_37_2377">
<rect width="60" height="60" fill="white" transform="translate(42 247)"/>
</clipPath>
<clipPath id="clip6_37_2377">
<rect width="60" height="60" fill="white" transform="translate(42 320)"/>
</clipPath>
<clipPath id="clip7_37_2377">
<rect width="60" height="60" fill="white" transform="translate(42 392)"/>
</clipPath>
</defs>
</svg>
