<svg width="1440" height="810" viewBox="0 0 1440 810" fill="none" xmlns="http://www.w3.org/2000/svg">
<g clip-path="url(#clip0_37_2378)">
<rect width="1440" height="810" fill="#F1F0E9"/>
<g opacity="0.8" clip-path="url(#clip1_37_2378)">
<g style="mix-blend-mode:multiply" opacity="0.59">
<mask id="mask0_37_2378" style="mask-type:luminance" maskUnits="userSpaceOnUse" x="137" y="586" width="1276" height="1353">
<path d="M236.064 640.606C225.171 633.965 210.513 625.324 199.308 619.213C180.9 609.096 156.151 596.016 137.459 586.456C141.43 588.413 151.735 595.32 159.851 608.511C258.294 657.033 375.314 734.067 505.004 838.83C891.37 1150.93 1260.49 1604.36 1391.41 1915.15C1404.1 1924.03 1410.37 1934.73 1412.1 1938.81C1405.78 1924.13 1397.14 1904.61 1390.29 1890.16C1380.59 1869.72 1366.71 1842.92 1356.25 1822.86C1342.63 1798.28 1324.39 1765.53 1309.93 1741.41C1302.22 1728.54 1291.6 1711.59 1283.74 1698.82C1268.99 1675.7 1249.06 1645.04 1233.63 1622.33C1222.82 1606.4 1207.92 1585.38 1196.9 1569.55C1181.36 1547.84 1160.34 1519.08 1144.26 1497.75C1130.5 1479.49 1111.68 1455.49 1097.71 1437.38C1081.34 1416.66 1059.22 1389.25 1042.39 1368.89C1026.28 1349.4 1004.31 1323.84 987.993 1304.53C970.681 1284.49 947.301 1258.01 929.532 1238.37C911.763 1218.73 887.499 1192.79 869.521 1173.29C851.048 1153.76 826.223 1127.9 807.366 1108.73C788.508 1089.57 763.109 1064.76 744.144 1045.9C724.243 1026.6 697.455 1001.12 677.095 982.302C658.227 964.815 632.595 941.998 613.53 924.725C579.143 894.938 532.808 855.765 497.763 826.752C479.406 811.988 454.764 792.517 436.055 778.21C406.748 755.786 366.728 727.13 336.627 705.788C317.861 693.022 292.744 676.133 273.622 663.923C262.509 656.789 247.417 647.514 236.064 640.606Z" fill="white"/>
</mask>
<g mask="url(#mask0_37_2378)">
<path d="M1429.57 2026.96C1442.91 2037.75 1449.69 2049.94 1451.55 2054.57C1374.2 1739.8 945.793 1189.23 494.704 824.813C497.077 825.707 502.737 829.507 505.025 838.809C940.902 1190.89 1354.82 1722.85 1429.57 2026.96Z" stroke="black" stroke-width="0.25" stroke-miterlimit="10"/>
<path d="M1440.77 2037.88C1364.88 1729.03 944.518 1188.79 501.868 831.237" stroke="black" stroke-width="0.25" stroke-miterlimit="10"/>
<path d="M1447.99 2047.73C1371.22 1735.21 945.84 1188.57 497.939 826.764" stroke="black" stroke-width="0.25" stroke-miterlimit="10"/>
<path d="M505.055 838.782C502.767 829.48 497.093 825.665 494.734 824.786C43.5943 460.399 -259.391 420.157 -182.039 734.909C-176.658 736.233 -162.166 741.177 -148.841 751.945C-223.58 447.827 69.1714 486.709 505.055 838.782Z" stroke="black" stroke-width="0.25" stroke-miterlimit="10"/>
<path d="M501.868 831.237C59.2039 473.7 -238.072 434.182 -162.176 743.029" stroke="black" stroke-width="0.25" stroke-miterlimit="10"/>
<path d="M497.939 826.764C50.0384 464.957 -250.776 425.016 -173.992 737.509" stroke="black" stroke-width="0.25" stroke-miterlimit="10"/>
<path d="M1451.58 2054.54C1476.92 2115.99 1266.39 2368.47 1035.35 2400.81C960.516 2096.15 545.869 1563.33 109.281 1210.66C216.22 1018.84 462.893 812.825 494.711 824.807C945.822 1189.21 1374.23 1739.77 1451.58 2054.54Z" stroke="black" stroke-width="0.25" stroke-miterlimit="10"/>
<path d="M494.711 824.807C462.928 812.861 216.221 1018.84 109.281 1210.66C-327.314 857.979 -620.545 819.026 -545.678 1123.64C-526.512 920.174 -254.2 717.592 -182.033 734.902C-259.391 420.157 43.5939 460.399 494.711 824.807Z" stroke="black" stroke-width="0.25" stroke-miterlimit="10"/>
<path d="M236.064 640.606C225.171 633.965 210.513 625.324 199.308 619.213C180.9 609.096 156.151 596.016 137.459 586.456C141.43 588.413 151.735 595.32 159.851 608.512C258.294 657.033 375.314 734.067 505.004 838.83C891.37 1150.93 1260.49 1604.36 1391.41 1915.15C1404.1 1924.03 1410.37 1934.73 1412.1 1938.81C1405.78 1924.13 1397.14 1904.61 1390.29 1890.16C1380.59 1869.72 1366.71 1842.92 1356.25 1822.86C1342.63 1798.28 1324.39 1765.53 1309.93 1741.41C1302.22 1728.54 1291.6 1711.59 1283.74 1698.82C1268.99 1675.7 1249.06 1645.04 1233.63 1622.33C1222.82 1606.4 1207.92 1585.38 1196.9 1569.55C1181.36 1547.84 1160.34 1519.08 1144.26 1497.75C1130.5 1479.49 1111.68 1455.49 1097.71 1437.38C1081.34 1416.66 1059.22 1389.25 1042.39 1368.89C1026.28 1349.4 1004.31 1323.84 987.993 1304.53C970.681 1284.49 947.301 1258.01 929.532 1238.37C911.763 1218.73 887.499 1192.79 869.521 1173.29C851.048 1153.76 826.223 1127.9 807.366 1108.73C788.508 1089.57 763.109 1064.76 744.144 1045.9C724.243 1026.6 697.455 1001.12 677.095 982.302C658.227 964.815 632.595 941.998 613.53 924.726C579.143 894.938 532.808 855.765 497.763 826.752C479.406 811.988 454.764 792.517 436.055 778.21C406.748 755.787 366.728 727.13 336.627 705.788C317.861 693.022 292.744 676.133 273.622 663.924C262.509 656.789 247.417 647.514 236.064 640.606Z" stroke="black" stroke-width="0.25" stroke-miterlimit="10"/>
</g>
<mask id="mask1_37_2378" style="mask-type:luminance" maskUnits="userSpaceOnUse" x="137" y="586" width="1276" height="1353">
<path d="M1412.12 1938.79C1403.52 1919.22 1391.93 1893.19 1382.49 1874C1374.92 1858.51 1364.3 1838.11 1356.24 1822.87C1349.44 1810.56 1340.53 1794.08 1333.58 1781.86C1319.22 1756.62 1298.98 1723.59 1283.75 1698.85C1273.72 1683.34 1260.52 1662.54 1250.3 1647.14C1234.68 1623.62 1213.2 1592.7 1196.94 1569.6C1183.83 1551.65 1166.56 1527.55 1153.26 1509.75C1136.89 1487.84 1114.63 1458.95 1097.75 1437.43C1082.18 1418.07 1061.57 1392.15 1045.77 1372.99C1028.68 1352.27 1005.56 1324.91 988.026 1304.58C970.614 1284.85 947.609 1258.37 929.964 1238.84C912.067 1218.99 887.902 1192.79 869.569 1173.32C851.06 1154.09 826.588 1128.25 807.84 1109.21C788.949 1090.01 763.485 1064.69 744.171 1045.92C725.419 1028.09 700.612 1004.11 681.662 986.489C661.464 967.714 634.215 943.012 613.586 924.713C579.171 894.953 532.887 855.718 497.82 826.739C467.252 802.59 426.437 770.459 395.061 747.391C377.73 734.658 354.36 718.03 336.683 705.775C324.851 697.793 309.156 687.023 297.228 679.186C279.075 667.272 254.515 651.962 235.985 640.639C216.878 629.448 191.358 614.578 171.827 604.147C161.587 598.692 147.806 591.617 137.409 586.462C239.285 636.677 360.404 716.415 494.633 824.84C894.589 1147.82 1276.63 1617.11 1412.12 1938.79Z" fill="white"/>
</mask>
<g mask="url(#mask1_37_2378)">
<path d="M1429.57 2026.96C1442.91 2037.75 1449.69 2049.94 1451.55 2054.57C1374.2 1739.8 945.793 1189.23 494.704 824.813C497.077 825.707 502.737 829.507 505.025 838.809C940.902 1190.89 1354.82 1722.85 1429.57 2026.96Z" stroke="black" stroke-width="0.25" stroke-miterlimit="10"/>
<path d="M1447.99 2047.73C1371.22 1735.21 945.84 1188.57 497.939 826.764" stroke="black" stroke-width="0.25" stroke-miterlimit="10"/>
<path d="M505.055 838.782C502.767 829.48 497.093 825.665 494.734 824.786C43.5943 460.399 -259.391 420.157 -182.039 734.909C-176.658 736.233 -162.166 741.177 -148.841 751.945C-223.58 447.827 69.1714 486.709 505.055 838.782Z" stroke="black" stroke-width="0.25" stroke-miterlimit="10"/>
<path d="M497.939 826.764C50.0384 464.957 -250.776 425.016 -173.992 737.509" stroke="black" stroke-width="0.25" stroke-miterlimit="10"/>
<path d="M1451.58 2054.54C1476.92 2115.99 1266.39 2368.47 1035.35 2400.81C960.516 2096.15 545.869 1563.33 109.281 1210.66C216.22 1018.84 462.893 812.825 494.711 824.807C945.822 1189.21 1374.23 1739.77 1451.58 2054.54Z" stroke="black" stroke-width="0.25" stroke-miterlimit="10"/>
<path d="M494.711 824.807C462.928 812.861 216.221 1018.84 109.281 1210.66C-327.314 857.979 -620.545 819.026 -545.678 1123.64C-526.512 920.174 -254.2 717.592 -182.033 734.902C-259.391 420.157 43.5939 460.399 494.711 824.807Z" stroke="black" stroke-width="0.25" stroke-miterlimit="10"/>
<path d="M1412.12 1938.79C1403.52 1919.22 1391.93 1893.19 1382.49 1874C1374.92 1858.51 1364.3 1838.11 1356.24 1822.87C1349.44 1810.56 1340.53 1794.08 1333.58 1781.86C1319.22 1756.62 1298.98 1723.59 1283.75 1698.85C1273.72 1683.34 1260.52 1662.54 1250.3 1647.14C1234.68 1623.62 1213.2 1592.7 1196.94 1569.6C1183.83 1551.65 1166.56 1527.55 1153.26 1509.75C1136.89 1487.84 1114.63 1458.95 1097.75 1437.43C1082.18 1418.07 1061.57 1392.15 1045.77 1372.99C1028.68 1352.27 1005.56 1324.91 988.026 1304.58C970.614 1284.85 947.609 1258.37 929.964 1238.84C912.067 1218.99 887.902 1192.79 869.569 1173.32C851.06 1154.09 826.588 1128.25 807.84 1109.21C788.949 1090.01 763.485 1064.69 744.171 1045.92C725.419 1028.09 700.612 1004.11 681.662 986.489C661.464 967.714 634.215 943.012 613.586 924.713C579.171 894.953 532.887 855.718 497.82 826.739C467.252 802.59 426.437 770.459 395.061 747.391C377.73 734.658 354.36 718.03 336.683 705.775C324.851 697.793 309.156 687.023 297.228 679.186C279.075 667.272 254.515 651.962 235.985 640.639C216.878 629.448 191.358 614.578 171.827 604.147C161.587 598.692 147.806 591.617 137.409 586.462C239.285 636.677 360.404 716.415 494.633 824.84C894.589 1147.82 1276.63 1617.11 1412.12 1938.79Z" stroke="black" stroke-width="0.25" stroke-miterlimit="10"/>
</g>
<mask id="mask2_37_2378" style="mask-type:luminance" maskUnits="userSpaceOnUse" x="-195" y="522" width="355" height="526">
<path d="M-182.04 734.909C-192.145 693.756 -195.762 658.676 -193.391 629.591C-183.028 502.409 -58.2679 489.941 137.446 586.428C141.416 588.384 151.722 595.291 159.837 608.483C-72.5477 493.938 -201.384 538.315 -148.884 751.944C-128.246 835.909 -81.7607 937.23 -16.1022 1047.34C-19.2241 1044.11 -23.4204 1039.83 -26.6501 1036.67C-29.453 1033.92 -33.2792 1030.33 -36.1765 1027.67C-39.5847 1024.57 -43.448 1021.04 -51.7014 1013.84C-53.6698 1012.12 -63.7469 1003.35 -68.6705 999.277C-123.921 901.32 -163.289 811.19 -182.04 734.909Z" fill="white"/>
</mask>
<g mask="url(#mask2_37_2378)">
<path d="M505.055 838.781C502.767 829.48 497.093 825.665 494.734 824.786C43.5943 460.399 -259.391 420.157 -182.039 734.909C-176.658 736.233 -162.166 741.177 -148.841 751.945C-223.58 447.827 69.1714 486.709 505.055 838.781Z" stroke="black" stroke-width="0.25" stroke-miterlimit="10"/>
<path d="M501.869 831.237C59.2049 473.7 -238.071 434.182 -162.175 743.029" stroke="black" stroke-width="0.25" stroke-miterlimit="10"/>
<path d="M497.94 826.763C50.0394 464.957 -250.775 425.015 -173.991 737.509" stroke="black" stroke-width="0.25" stroke-miterlimit="10"/>
<path d="M125.189 592.213C116.487 578.751 105.713 571.626 101.575 569.594" stroke="black" stroke-width="0.25" stroke-miterlimit="10"/>
<path d="M-148.841 751.945C-162.18 741.162 -176.629 736.205 -182.04 734.909C-104.681 1049.67 323.726 1600.24 774.815 1964.67C775.936 1960.47 777.946 1949.44 775.665 1940.13C339.825 1588.02 -74.102 1056.06 -148.841 751.945Z" stroke="black" stroke-width="0.25" stroke-miterlimit="10"/>
<path d="M-162.175 743.029C-86.2652 1051.88 334.082 1592.12 776.738 1949.68" stroke="black" stroke-width="0.25" stroke-miterlimit="10"/>
<path d="M-173.99 737.509C-97.2068 1050.05 328.169 1596.68 776.069 1958.49" stroke="black" stroke-width="0.25" stroke-miterlimit="10"/>
<path d="M494.712 824.807C462.929 812.861 216.222 1018.84 109.282 1210.66C-327.313 857.979 -620.544 819.026 -545.677 1123.64C-526.511 920.174 -254.199 717.592 -182.032 734.902C-259.39 420.157 43.5948 460.399 494.712 824.807Z" stroke="black" stroke-width="0.25" stroke-miterlimit="10"/>
<path d="M101.575 569.594C46.3328 542.425 -215.251 738.741 -271.202 963.655" stroke="black" stroke-width="0.25" stroke-miterlimit="10"/>
<path d="M-182.039 734.909C-254.207 717.598 -526.519 920.181 -545.684 1123.65C-470.847 1428.31 -56.2007 1961.13 380.388 2313.8C523.65 2269.82 759.762 2020.73 774.837 1964.64C323.734 1600.23 -104.681 1049.67 -182.039 734.909Z" stroke="black" stroke-width="0.25" stroke-miterlimit="10"/>
<path d="M-182.04 734.909C-192.145 693.756 -195.762 658.676 -193.391 629.591C-183.028 502.409 -58.2679 489.941 137.446 586.428C141.416 588.384 151.722 595.291 159.837 608.483C-72.5477 493.938 -201.384 538.315 -148.884 751.944C-128.246 835.909 -81.7607 937.23 -16.1022 1047.34C-19.2241 1044.11 -23.4204 1039.83 -26.6501 1036.67C-29.453 1033.92 -33.2792 1030.33 -36.1765 1027.67C-39.5847 1024.57 -43.448 1021.04 -51.7014 1013.84C-53.6698 1012.12 -63.7469 1003.35 -68.6705 999.277C-123.921 901.32 -163.289 811.19 -182.04 734.909Z" stroke="black" stroke-width="0.25" stroke-miterlimit="10"/>
</g>
<mask id="mask3_37_2378" style="mask-type:luminance" maskUnits="userSpaceOnUse" x="-237" y="584" width="1651" height="1705">
<path d="M109.282 1210.66C-20.6299 1105.72 -137.844 1028.55 -236.448 979.949C-175.84 757.222 84.39 560.261 137.488 586.429C239.365 636.644 360.483 716.382 494.712 824.807C894.59 1147.82 1276.63 1617.11 1412.12 1938.79C1435.09 1993.34 1223.07 2241.44 997.138 2288.8C866.03 1977.47 496.291 1523.27 109.282 1210.66Z" fill="white"/>
</mask>
<g mask="url(#mask3_37_2378)">
<path d="M1429.57 2026.96C1442.91 2037.75 1449.69 2049.94 1451.55 2054.57C1374.2 1739.8 945.793 1189.23 494.704 824.814C497.077 825.707 502.737 829.507 505.025 838.809C940.902 1190.89 1354.82 1722.85 1429.57 2026.96Z" stroke="black" stroke-width="0.25" stroke-miterlimit="10"/>
<path d="M505.055 838.781C502.767 829.48 497.093 825.665 494.734 824.786C43.5943 460.399 -259.391 420.157 -182.039 734.909C-176.658 736.233 -162.166 741.177 -148.841 751.945C-223.58 447.827 69.1714 486.709 505.055 838.781Z" stroke="black" stroke-width="0.25" stroke-miterlimit="10"/>
<path d="M1451.58 2054.54C1476.92 2115.99 1266.39 2368.47 1035.35 2400.81C960.517 2096.15 545.87 1563.33 109.282 1210.66C216.221 1018.84 462.894 812.825 494.712 824.807C945.823 1189.21 1374.23 1739.77 1451.58 2054.54Z" stroke="black" stroke-width="0.25" stroke-miterlimit="10"/>
<path d="M494.711 824.807C462.928 812.861 216.221 1018.84 109.281 1210.66C-327.314 857.979 -620.545 819.026 -545.678 1123.64C-526.512 920.174 -254.2 717.592 -182.033 734.902C-259.391 420.157 43.5939 460.399 494.711 824.807Z" stroke="black" stroke-width="0.25" stroke-miterlimit="10"/>
<path d="M404.426 876.903C-67.8906 495.369 -385.12 453.239 -304.133 782.791" stroke="black" stroke-width="0.25" stroke-miterlimit="10"/>
<path d="M249.672 1022.71C-222.673 641.158 -539.923 599.02 -458.922 928.587" stroke="black" stroke-width="0.25" stroke-miterlimit="10"/>
<path d="M109.281 1210.66C50.3884 1316.3 66.7656 1393.21 99.5131 1547.04C-126.803 1364.21 -278.81 1344.02 -240.015 1501.95C-450.847 1324.47 -556.259 1235.72 -545.7 1123.66C-620.545 819.027 -327.314 857.979 109.281 1210.66Z" stroke="black" stroke-width="0.25" stroke-miterlimit="10"/>
<path d="M109.282 1210.66C-20.6299 1105.72 -137.844 1028.55 -236.448 979.949C-175.84 757.222 84.39 560.261 137.488 586.429C239.365 636.644 360.483 716.382 494.712 824.807C894.59 1147.82 1276.63 1617.11 1412.12 1938.79C1435.09 1993.34 1223.07 2241.44 997.138 2288.8C866.03 1977.47 496.291 1523.27 109.282 1210.66Z" stroke="black" stroke-width="0.25" stroke-miterlimit="10"/>
</g>
<mask id="mask4_37_2378" style="mask-type:luminance" maskUnits="userSpaceOnUse" x="-559" y="519" width="697" height="503">
<path d="M-538.107 924.026C-543.16 939.929 -548.129 961.698 -551.04 978.121C-553.339 991.115 -563.15 1010.23 -556.634 1021.68C-538.943 804.548 -266.204 605.952 -193.355 629.556C-182.992 502.374 -58.2319 489.907 137.482 586.393C121.507 578.572 99.9523 568.65 83.5029 561.87C56.6542 550.79 19.9128 538.056 -8.33443 531.231C-32.0005 525.523 -64.3476 520.374 -88.6851 519.995C-99.3122 519.821 -113.45 521.246 -124.054 521.794C-137.058 523.711 -149.939 526.386 -162.631 529.806C-171.714 532.383 -183.478 536.959 -192.412 540.014C-201.29 543.609 -212.932 548.881 -221.489 553.15C-230.047 557.418 -240.917 563.737 -249.249 568.274C-257.886 573.375 -269.205 580.516 -277.537 586.114C-285.87 591.711 -296.849 599.881 -305.119 605.777C-313.76 612.3 -325.059 621.296 -333.388 628.28C-341.717 635.264 -352.38 645.062 -360.531 652.249C-369.004 660.128 -380.042 670.913 -388.096 679.221C-396.041 687.425 -406.141 698.823 -413.901 707.238C-421.938 716.465 -432.332 729.037 -439.857 738.675C-447.09 747.995 -456.093 760.917 -463.07 770.436C-470.363 781.106 -479.671 795.624 -486.22 806.761C-492.352 817.187 -499.704 831.534 -505.481 842.161C-511.694 854.743 -519.391 871.838 -524.563 884.866C-529.036 896.435 -534.361 912.154 -538.107 924.026Z" fill="white"/>
</mask>
<g mask="url(#mask4_37_2378)">
<path d="M505.054 838.782C502.766 829.48 497.092 825.665 494.733 824.786C43.5933 460.399 -259.392 420.157 -182.04 734.909C-176.659 736.233 -162.167 741.177 -148.842 751.945C-223.581 447.827 69.1704 486.709 505.054 838.782Z" stroke="black" stroke-width="0.25" stroke-miterlimit="10"/>
<path d="M125.188 592.214C116.486 578.751 105.713 571.626 101.574 569.594" stroke="black" stroke-width="0.25" stroke-miterlimit="10"/>
<path d="M494.711 824.807C462.928 812.861 216.221 1018.84 109.281 1210.66C-327.314 857.979 -620.545 819.026 -545.678 1123.64C-526.512 920.174 -254.2 717.592 -182.033 734.902C-259.391 420.157 43.5939 460.399 494.711 824.807Z" stroke="black" stroke-width="0.25" stroke-miterlimit="10"/>
<path d="M404.426 876.903C-67.8906 495.369 -385.12 453.239 -304.133 782.791" stroke="black" stroke-width="0.25" stroke-miterlimit="10"/>
<path d="M249.672 1022.71C-222.673 641.157 -539.923 599.02 -458.922 928.586" stroke="black" stroke-width="0.25" stroke-miterlimit="10"/>
<path d="M101.574 569.594C46.3318 542.425 -215.252 738.741 -271.203 963.655" stroke="black" stroke-width="0.25" stroke-miterlimit="10"/>
<path d="M109.281 1210.66C50.3884 1316.3 66.7656 1393.21 99.5131 1547.04C-126.803 1364.21 -278.81 1344.02 -240.015 1501.95C-450.847 1324.47 -556.259 1235.72 -545.7 1123.66C-620.545 819.026 -327.314 857.979 109.281 1210.66Z" stroke="black" stroke-width="0.25" stroke-miterlimit="10"/>
<path d="M-538.107 924.026C-543.16 939.929 -548.129 961.699 -551.04 978.121C-553.339 991.115 -563.15 1010.23 -556.634 1021.68C-538.943 804.548 -266.204 605.952 -193.355 629.556C-182.992 502.374 -58.2319 489.907 137.482 586.393C121.507 578.572 99.9523 568.65 83.5029 561.87C56.6542 550.79 19.9128 538.056 -8.33443 531.231C-32.0005 525.523 -64.3476 520.374 -88.6851 519.995C-99.3122 519.821 -113.45 521.246 -124.054 521.794C-137.058 523.711 -149.939 526.386 -162.631 529.806C-171.714 532.383 -183.478 536.959 -192.412 540.014C-201.29 543.609 -212.932 548.881 -221.489 553.15C-230.047 557.418 -240.917 563.738 -249.249 568.274C-257.886 573.375 -269.205 580.516 -277.537 586.114C-285.87 591.711 -296.849 599.881 -305.119 605.778C-313.76 612.3 -325.059 621.296 -333.388 628.28C-341.717 635.264 -352.38 645.062 -360.531 652.249C-369.004 660.128 -380.042 670.913 -388.096 679.221C-396.041 687.425 -406.141 698.823 -413.901 707.238C-421.938 716.465 -432.332 729.037 -439.857 738.675C-447.09 747.995 -456.093 760.917 -463.07 770.436C-470.363 781.106 -479.671 795.624 -486.22 806.761C-492.352 817.187 -499.704 831.534 -505.481 842.161C-511.694 854.743 -519.391 871.838 -524.563 884.866C-529.036 896.435 -534.361 912.154 -538.107 924.026Z" stroke="black" stroke-width="0.25" stroke-miterlimit="10"/>
</g>
<mask id="mask5_37_2378" style="mask-type:luminance" maskUnits="userSpaceOnUse" x="-557" y="520" width="695" height="502">
<path d="M-192.419 540.035C-179.631 534.904 -166.509 530.646 -153.145 527.289C-144.52 525.173 -132.787 523.461 -124.068 521.807C-111.303 520.395 -98.4579 519.823 -85.6171 520.095C-61.0961 520.74 -28.553 526.213 -4.75871 532.143C23.6232 539.213 60.5536 552.277 87.5237 563.573C102.725 569.937 122.491 579.568 137.481 586.422C84.3832 560.253 -175.854 757.222 -236.454 979.942C-425.888 886.587 -546.647 898.627 -556.677 1021.71C-555.095 1004.96 -552.127 982.675 -548.77 966.187C-546.158 953.406 -541.315 936.67 -538.113 924.019C-534.007 910.636 -527.809 893.003 -522.554 880.034C-517.868 868.471 -510.535 853.523 -505.409 842.149C-499.607 830.603 -491.349 815.482 -484.723 804.355C-478.535 793.958 -469.492 780.585 -462.97 770.396C-456.018 760.282 -446.262 746.979 -438.692 737.257C-431.489 728.021 -421.286 716.193 -413.827 707.169C-406.054 698.288 -395.377 686.715 -387.142 678.25C-379.35 670.232 -368.484 660.022 -360.486 652.208C-352.253 644.585 -341.035 634.674 -332.424 627.479C-324.393 620.762 -313.299 612.278 -305.104 605.764C-296.637 599.406 -285.14 591.187 -276.304 585.278C-268.318 579.94 -257.319 573.334 -249.205 568.233C-240.339 563.053 -228.302 556.511 -219.114 551.949C-211.289 548.099 -200.534 543.403 -192.419 540.035Z" fill="white"/>
</mask>
<g mask="url(#mask5_37_2378)">
<path d="M505.055 838.781C502.767 829.48 497.093 825.665 494.734 824.786C43.5943 460.399 -259.391 420.157 -182.039 734.909C-176.658 736.233 -162.166 741.177 -148.841 751.945C-223.58 447.827 69.1714 486.709 505.055 838.781Z" stroke="black" stroke-width="0.25" stroke-miterlimit="10"/>
<path d="M125.189 592.213C116.487 578.751 105.713 571.626 101.575 569.594" stroke="black" stroke-width="0.25" stroke-miterlimit="10"/>
<path d="M494.712 824.807C462.929 812.861 216.222 1018.84 109.282 1210.66C-327.313 857.979 -620.544 819.026 -545.677 1123.64C-526.511 920.174 -254.199 717.592 -182.032 734.902C-259.39 420.157 43.5948 460.399 494.712 824.807Z" stroke="black" stroke-width="0.25" stroke-miterlimit="10"/>
<path d="M404.427 876.903C-67.8896 495.369 -385.119 453.239 -304.132 782.791" stroke="black" stroke-width="0.25" stroke-miterlimit="10"/>
<path d="M249.673 1022.71C-222.672 641.157 -539.922 599.02 -458.921 928.586" stroke="black" stroke-width="0.25" stroke-miterlimit="10"/>
<path d="M101.575 569.594C46.3328 542.425 -215.251 738.741 -271.202 963.655" stroke="black" stroke-width="0.25" stroke-miterlimit="10"/>
<path d="M109.282 1210.66C50.3893 1316.3 66.7665 1393.21 99.514 1547.04C-126.802 1364.21 -278.809 1344.02 -240.014 1501.95C-450.846 1324.47 -556.258 1235.72 -545.699 1123.66C-620.544 819.026 -327.313 857.979 109.282 1210.66Z" stroke="black" stroke-width="0.25" stroke-miterlimit="10"/>
<path d="M-192.419 540.035C-179.631 534.904 -166.509 530.646 -153.145 527.289C-144.52 525.173 -132.787 523.461 -124.068 521.807C-111.303 520.395 -98.4579 519.823 -85.6171 520.095C-61.0961 520.74 -28.553 526.213 -4.75871 532.143C23.6232 539.213 60.5536 552.277 87.5237 563.573C102.725 569.937 122.491 579.568 137.481 586.422C84.3832 560.253 -175.854 757.222 -236.454 979.942C-425.888 886.587 -546.647 898.627 -556.677 1021.71C-555.095 1004.96 -552.127 982.675 -548.77 966.187C-546.158 953.406 -541.315 936.67 -538.113 924.019C-534.007 910.636 -527.809 893.003 -522.554 880.034C-517.868 868.471 -510.535 853.523 -505.409 842.149C-499.607 830.603 -491.349 815.482 -484.723 804.355C-478.535 793.958 -469.492 780.585 -462.97 770.396C-456.018 760.282 -446.262 746.979 -438.692 737.257C-431.489 728.021 -421.286 716.193 -413.827 707.169C-406.054 698.288 -395.377 686.715 -387.142 678.25C-379.35 670.232 -368.484 660.022 -360.486 652.208C-352.253 644.585 -341.035 634.674 -332.424 627.479C-324.393 620.762 -313.299 612.278 -305.104 605.764C-296.637 599.406 -285.14 591.187 -276.304 585.278C-268.318 579.94 -257.319 573.334 -249.205 568.233C-240.339 563.053 -228.302 556.511 -219.114 551.949C-211.289 548.099 -200.534 543.403 -192.419 540.035Z" stroke="black" stroke-width="0.25" stroke-miterlimit="10"/>
</g>
<mask id="mask6_37_2378" style="mask-type:luminance" maskUnits="userSpaceOnUse" x="-558" y="627" width="490" height="1018">
<path d="M-286.112 1245.71C-287.817 1251.32 -290.45 1260.31 -293.314 1271.23C-295.118 1278.12 -297.333 1287.35 -298.829 1294.34C-300.619 1302.5 -302.776 1313.45 -304.129 1321.68C-305.653 1330.95 -307.271 1343.37 -308.428 1352.7C-309.694 1362.87 -310.646 1376.55 -311.064 1386.76C-311.298 1392.14 -311.491 1399.33 -311.541 1404.72C-311.64 1415.92 -311.235 1430.87 -310.498 1442.05C-310.114 1447.83 -309.5 1455.52 -308.846 1461.26C-307.966 1469.08 -306.606 1479.48 -305.365 1487.24C-304.394 1493.3 -301.279 1510.02 -296.427 1529.95C-294.605 1537.43 -289.788 1557.34 -281.427 1584.58C-279.248 1591.7 -276.192 1601.16 -273.892 1608.25C-272.719 1611.86 -271.055 1616.65 -269.833 1620.25C-267.354 1627.55 -263.835 1637.13 -261.213 1644.34C-406.622 1449.14 -511.493 1262.66 -545.65 1123.67C-555.438 1083.84 -558.938 1049.89 -556.636 1021.74C-538.944 804.604 -266.205 606.009 -193.356 629.613C-195.727 658.698 -192.11 693.778 -182.005 734.931C-163.255 811.212 -123.887 901.343 -68.5865 999.308C-73.9834 999.801 -81.2757 999.776 -86.5569 1000.95C-99.8742 1003.91 -116.423 1012.43 -128.195 1019.36C-142.194 1027.88 -155.547 1037.43 -168.148 1047.91C-180.072 1057.9 -191.305 1068.68 -201.767 1080.19C-211.184 1090.87 -220.036 1102.04 -228.289 1113.64C-235.789 1124.69 -242.647 1136.15 -248.829 1147.98C-266.13 1181.31 -277.712 1218.06 -286.112 1245.71Z" fill="white"/>
</mask>
<g mask="url(#mask6_37_2378)">
</g>
<mask id="mask7_37_2378" style="mask-type:luminance" maskUnits="userSpaceOnUse" x="-558" y="918" width="1594" height="1486">
<path d="M109.281 1210.66C496.29 1523.27 866.029 1977.47 997.166 2288.77C1013.97 2328.67 1026.85 2366.21 1035.35 2400.81C908.118 2418.62 798.602 2333.74 579.57 2163.99C540.767 2006.08 325.822 1729.86 99.5127 1547.04C-97.2124 1388.12 -237.787 1352.08 -245.7 1449.1C-459.512 1243.91 -566.414 1141.3 -556.671 1021.72C-546.641 898.634 -425.903 886.572 -236.449 979.949C-137.845 1028.55 -20.6308 1105.72 109.281 1210.66Z" fill="white"/>
</mask>
<g mask="url(#mask7_37_2378)">
</g>
<mask id="mask8_37_2378" style="mask-type:luminance" maskUnits="userSpaceOnUse" x="-132" y="742" width="1372" height="1456">
<path d="M708.305 1929.81C712.004 1932.37 717.006 1935.68 720.779 1938.11C728.798 1943.31 729.354 1943.65 736.163 1947.87C738.75 1949.47 742.251 1951.52 744.897 1953.02C747.3 1954.39 750.563 1956.1 752.988 1957.42C755.413 1958.73 758.507 1960.18 760.917 1961.26C763.328 1962.34 766.699 1963.73 769.211 1964.71C771.926 1965.78 775.634 1966.98 778.404 1967.88C779.932 1968.38 781.996 1968.93 783.533 1969.38C980.5 2120.59 1141.49 2197.89 1239.88 2197.58C1229.29 2197.31 1215.14 2196.81 1204.6 2195.68C1198.93 2195.07 1191.42 2193.9 1185.76 2193.14C1175.91 2191.45 1162.74 2188.84 1152.98 2186.48C1145.48 2184.66 1135.59 2181.78 1128.13 2179.78C1114.18 2175.41 1095.68 2169.28 1082.02 2164.08C1072.76 2160.55 1060.59 2155.36 1051.41 2151.63C1032.67 2143.2 1007.74 2131.66 989.46 2122.23C978.517 2116.59 964.181 2108.61 953.287 2102.77C941.334 2096.08 925.552 2086.91 913.822 2079.85C888.921 2064.86 856.612 2043.56 832.384 2027.49C814.601 2015.26 791.059 1998.69 773.658 1985.93C745.774 1965.51 709.43 1936.95 682.24 1915.48C662.85 1899.7 637.183 1878.42 618.203 1862.14C603.693 1849.71 584.773 1832.81 570.444 1820.24C553.397 1804.91 530.868 1784.22 514.179 1768.5C499.461 1754.63 480.178 1735.76 465.607 1721.73C450.41 1706.77 430.364 1686.6 415.488 1671.31C400.853 1656.24 381.713 1635.81 367.238 1620.59C352.731 1605 333.606 1584.01 319.419 1568.09C305.706 1552.7 287.801 1531.83 274.247 1516.3C259.697 1499.19 240.465 1476.22 226.328 1458.76C214.132 1443.76 198.207 1423.42 186.198 1408.32C171.735 1389.6 152.632 1364.5 138.625 1345.43C128.08 1331.08 114.393 1311.68 104.021 1297.21C90.1796 1277.26 71.9345 1250.57 58.6762 1230.26C49.8352 1216.7 38.4243 1198.38 29.7217 1184.69C17.1663 1164.02 0.589461 1136.36 -11.2033 1115.23C-18.2191 1102.7 -27.1639 1085.75 -34 1073.11C-44.6425 1052.08 -58.7237 1023.95 -68.3552 1002.43C-73.3867 991.294 -79.5528 976.176 -84.3546 964.916C-89.0242 953.228 -95.0189 937.534 -99.1668 925.655C-105.739 906.833 -113.015 881.23 -118.275 862.006C-120.788 851.36 -123.95 837.09 -125.774 826.343C-127.054 818.951 -128.27 809.007 -129.344 801.571C-130.079 794.901 -131.013 785.984 -131.193 779.244C-131.518 768.264 -131.437 753.609 -131.09 742.64C-132.645 767.844 -129.328 797.936 -120.715 832.956C-95.4953 935.59 -28.387 1066.35 66.3142 1206.87C68.1401 1212.7 70.7693 1220.43 72.8666 1226.16C74.0964 1229.52 76.0201 1233.86 77.4073 1237.15C80.5914 1244.76 85.5309 1254.63 89.3598 1261.95C96.5951 1275.75 105.095 1290.38 115.4 1306.75C122.148 1317.45 131.414 1331.52 138.651 1341.94C146.949 1353.89 158.275 1369.65 166.785 1381.4C171.508 1387.84 177.92 1396.37 182.752 1402.74C193.295 1416.65 207.619 1435 218.523 1448.63C230.747 1463.93 247.298 1484.11 259.876 1499.11C274.174 1516.15 293.453 1538.7 308.228 1555.33C324.321 1573.45 345.908 1597.48 362.385 1615.24C379.734 1633.96 403.192 1658.61 421.035 1676.87C452.428 1708.99 484.119 1740.07 515.247 1769.27C534.55 1787.39 560.826 1810.97 580.589 1828.59C590.267 1837.22 603.453 1848.4 613.401 1856.74C632.26 1872.55 657.846 1893.16 677.6 1907.8C686.774 1914.72 699.047 1923.4 708.305 1929.81Z" fill="white"/>
</mask>
<g mask="url(#mask8_37_2378)">
<path d="M447.396 1085.22C455.722 982.524 462.485 949.366 482.241 913.222C80.3707 588.593 -189.518 552.75 -120.607 833.143C-123.407 871.582 -104.388 908.13 -21.2688 1022.97C-74.8502 804.987 134.984 832.86 447.396 1085.22Z" stroke="black" stroke-width="0.25" stroke-miterlimit="10"/>
<path d="M455.74 1003.02C95.5544 712.063 -146.368 679.924 -84.5669 931.281" stroke="black" stroke-width="0.25" stroke-miterlimit="10"/>
<path d="M466.272 951.055C79.0686 638.278 -180.988 603.734 -114.631 873.934" stroke="black" stroke-width="0.25" stroke-miterlimit="10"/>
<path d="M482.234 913.215C487.511 903.543 506.173 870.871 506.016 847.219C76.1592 499.99 -212.532 461.616 -138.845 761.567C-115.754 788.26 -119.862 822.857 -120.614 833.136C-189.518 552.735 80.3772 588.6 482.234 913.215Z" stroke="black" stroke-width="0.25" stroke-miterlimit="10"/>
<path d="M-120.614 833.136C-119.862 822.857 -115.754 788.26 -138.845 761.567C-65.0935 1061.53 343.089 1586.12 772.939 1933.35C763.607 1918.37 738.941 1926.52 731.774 1928.59C329.918 1603.97 -51.6894 1113.54 -120.614 833.136Z" stroke="black" stroke-width="0.25" stroke-miterlimit="10"/>
<path d="M708.305 1929.81C712.004 1932.37 717.006 1935.68 720.779 1938.11C728.798 1943.31 729.354 1943.65 736.163 1947.87C738.75 1949.47 742.251 1951.52 744.897 1953.02C747.3 1954.39 750.563 1956.1 752.988 1957.42C755.413 1958.73 758.507 1960.18 760.917 1961.26C763.328 1962.34 766.698 1963.73 769.211 1964.71C771.926 1965.78 775.634 1966.98 778.404 1967.88C779.932 1968.38 781.996 1968.93 783.533 1969.38C980.5 2120.59 1141.49 2197.89 1239.88 2197.58C1229.29 2197.31 1215.14 2196.81 1204.6 2195.68C1198.93 2195.07 1191.42 2193.9 1185.76 2193.14C1175.91 2191.45 1162.74 2188.84 1152.98 2186.48C1145.48 2184.66 1135.59 2181.78 1128.13 2179.78C1114.18 2175.41 1095.68 2169.28 1082.02 2164.08C1072.76 2160.55 1060.59 2155.36 1051.41 2151.63C1032.67 2143.2 1007.74 2131.66 989.46 2122.23C978.517 2116.59 964.181 2108.61 953.287 2102.77C941.334 2096.08 925.552 2086.91 913.822 2079.85C888.921 2064.86 856.612 2043.56 832.384 2027.49C814.601 2015.26 791.059 1998.69 773.658 1985.93C745.774 1965.51 709.43 1936.95 682.24 1915.48C662.85 1899.7 637.183 1878.42 618.203 1862.14C603.693 1849.71 584.773 1832.81 570.444 1820.24C553.397 1804.91 530.868 1784.22 514.179 1768.5C499.461 1754.63 480.178 1735.76 465.607 1721.73C450.41 1706.77 430.364 1686.6 415.488 1671.31C400.853 1656.24 381.713 1635.81 367.238 1620.59C352.731 1605 333.606 1584.01 319.419 1568.09C305.706 1552.7 287.801 1531.83 274.247 1516.3C259.697 1499.19 240.465 1476.22 226.328 1458.76C214.132 1443.76 198.207 1423.42 186.198 1408.32C171.735 1389.6 152.632 1364.5 138.625 1345.43C128.08 1331.08 114.393 1311.68 104.021 1297.21C90.1796 1277.26 71.9345 1250.57 58.6762 1230.26C49.8352 1216.7 38.4243 1198.38 29.7217 1184.69C17.1664 1164.02 0.589451 1136.36 -11.2033 1115.23C-18.2191 1102.7 -27.1639 1085.75 -34 1073.11C-44.6425 1052.08 -58.7237 1023.95 -68.3552 1002.43C-73.3867 991.294 -79.5528 976.176 -84.3546 964.916C-89.0242 953.228 -95.0189 937.534 -99.1668 925.655C-105.739 906.833 -113.015 881.23 -118.275 862.006C-120.788 851.36 -123.95 837.09 -125.774 826.344C-127.054 818.951 -128.27 809.007 -129.344 801.571C-130.079 794.901 -131.013 785.984 -131.193 779.244C-131.518 768.264 -131.437 753.609 -131.09 742.64C-132.645 767.844 -129.328 797.936 -120.715 832.956C-95.4953 935.59 -28.387 1066.35 66.3142 1206.87C68.1401 1212.7 70.7693 1220.43 72.8666 1226.16C74.0964 1229.52 76.0201 1233.86 77.4073 1237.15C80.5914 1244.76 85.5309 1254.63 89.3598 1261.95C96.5951 1275.75 105.095 1290.38 115.4 1306.75C122.148 1317.45 131.414 1331.52 138.651 1341.94C146.949 1353.89 158.275 1369.65 166.785 1381.4C171.508 1387.84 177.92 1396.37 182.752 1402.74C193.295 1416.65 207.619 1435 218.523 1448.63C230.747 1463.93 247.298 1484.11 259.876 1499.11C274.174 1516.15 293.453 1538.7 308.228 1555.33C324.321 1573.45 345.908 1597.48 362.385 1615.24C379.734 1633.96 403.192 1658.61 421.035 1676.87C452.428 1708.99 484.119 1740.07 515.247 1769.27C534.55 1787.39 560.826 1810.97 580.589 1828.59C590.267 1837.22 603.453 1848.4 613.401 1856.74C632.26 1872.55 657.846 1893.16 677.6 1907.8C686.774 1914.72 699.047 1923.4 708.305 1929.81Z" stroke="black" stroke-width="0.25" stroke-miterlimit="10"/>
</g>
<mask id="mask9_37_2378" style="mask-type:luminance" maskUnits="userSpaceOnUse" x="-132" y="742" width="1372" height="1456">
<path d="M1128.13 2179.78C1119.47 2176.96 1107.88 2173.43 1099.3 2170.42C1084.72 2165.29 1065.68 2157.54 1051.41 2151.63C1041.18 2146.97 1027.44 2140.95 1017.3 2136.09C997.787 2126.75 972.332 2113.11 953.314 2102.8C929.262 2088.84 897.294 2070.03 873.893 2055C861.342 2046.94 844.769 2035.96 832.439 2027.55C805.364 2008.56 769.359 1983.07 743.012 1963.08C724.591 1949.11 700.377 1930.02 682.337 1915.54C667.587 1903.34 647.851 1887.3 633.275 1874.96C614.213 1858.84 589.179 1836.9 570.548 1820.29C555.545 1806.53 535.387 1788.35 520.529 1774.43C503.893 1758.84 481.99 1737.75 465.711 1721.78C450.826 1706.8 430.813 1687 416.087 1671.87C401.362 1656.74 381.822 1636.18 367.369 1620.67C353.414 1605.35 334.643 1585.09 320.847 1569.63C306.735 1553.81 288.164 1532.51 274.393 1516.39C261.905 1501.45 245.096 1481.64 232.76 1466.56C218.625 1449.29 200.08 1426.01 186.343 1408.42C175.375 1394.01 160.611 1374.94 149.829 1360.47C135.862 1341.72 117.65 1316.42 104.152 1297.32C94.7438 1283.57 82.0352 1265.37 72.7853 1251.51C59.569 1231.72 42.521 1204.97 29.8736 1184.82C22.1179 1171.92 11.6141 1154.82 4.03848 1141.81C-7.79121 1121.5 -22.8023 1093.99 -33.8702 1073.26C-39.7628 1061.54 -47.8129 1046.01 -53.5118 1034.19C-63.3642 1013.75 -75.3967 985.968 -84.2247 965.068C-91.7152 945.421 -101.654 919.185 -107.852 899.1C-111.247 888.105 -115.342 873.313 -118.145 862.158C-119.912 854.193 -122.434 843.654 -123.945 835.654C-125.893 825.534 -127.941 811.902 -129.193 801.703C-130.198 790.265 -131.189 774.986 -131.528 763.51C-131.716 757.301 -131.309 749.001 -130.96 742.792C-133.512 783.75 -113.999 824.18 -29.3008 952.728C-30.5167 972.324 -27.9402 995.711 -21.2473 1022.94C32.3273 1240.92 328.981 1622.18 641.421 1874.56C812.823 2013.03 953.343 2083.91 1036.43 2083.69C1159.66 2175.85 1198.88 2197.7 1239.86 2197.6C1234.52 2197.46 1227.39 2197.42 1222.05 2197.13C1211.09 2196.49 1196.61 2194.63 1185.74 2193.16C1178.67 2191.79 1169.21 2190.24 1162.18 2188.62C1151.91 2186.23 1138.22 2182.85 1128.13 2179.78Z" fill="white"/>
</mask>
<g mask="url(#mask9_37_2378)">
<path d="M432.43 1342.82C434.911 1285.78 439.39 1184.07 447.396 1085.22C134.998 832.874 -74.8502 804.987 -21.2757 1022.97C58.7519 1133.51 148.285 1247.68 198.506 1311.74C171.773 1202.96 276.497 1216.86 432.43 1342.82Z" stroke="black" stroke-width="0.25" stroke-miterlimit="10"/>
<path d="M447.396 1085.22C455.722 982.524 462.485 949.366 482.241 913.222C80.3707 588.593 -189.518 552.75 -120.607 833.143C-123.407 871.582 -104.388 908.13 -21.2688 1022.97C-74.8502 804.987 134.984 832.86 447.396 1085.22Z" stroke="black" stroke-width="0.25" stroke-miterlimit="10"/>
<path d="M455.74 1003.02C95.5544 712.063 -146.368 679.924 -84.5669 931.281" stroke="black" stroke-width="0.25" stroke-miterlimit="10"/>
<path d="M466.272 951.055C79.0686 638.278 -180.988 603.734 -114.631 873.934" stroke="black" stroke-width="0.25" stroke-miterlimit="10"/>
<path d="M482.234 913.215C487.511 903.543 506.173 870.871 506.016 847.219C76.1592 499.99 -212.532 461.616 -138.845 761.567C-115.754 788.26 -119.862 822.857 -120.614 833.136C-189.518 552.735 80.3772 588.6 482.234 913.215Z" stroke="black" stroke-width="0.25" stroke-miterlimit="10"/>
<path d="M-120.614 833.136C-119.862 822.857 -115.754 788.26 -138.845 761.567C-65.0935 1061.53 343.089 1586.12 772.939 1933.35C763.607 1918.37 738.941 1926.52 731.774 1928.59C329.918 1603.97 -51.6894 1113.54 -120.614 833.136Z" stroke="black" stroke-width="0.25" stroke-miterlimit="10"/>
<path d="M1128.13 2179.78C1119.47 2176.96 1107.88 2173.43 1099.3 2170.42C1084.72 2165.29 1065.68 2157.54 1051.41 2151.63C1041.18 2146.97 1027.44 2140.95 1017.3 2136.09C997.787 2126.75 972.332 2113.11 953.314 2102.8C929.262 2088.84 897.294 2070.03 873.893 2055C861.342 2046.94 844.769 2035.96 832.439 2027.55C805.364 2008.56 769.359 1983.07 743.012 1963.08C724.591 1949.11 700.376 1930.02 682.337 1915.54C667.587 1903.34 647.851 1887.3 633.275 1874.96C614.213 1858.84 589.179 1836.9 570.548 1820.29C555.545 1806.53 535.387 1788.35 520.529 1774.43C503.893 1758.84 481.99 1737.75 465.711 1721.78C450.826 1706.8 430.813 1687 416.087 1671.87C401.362 1656.74 381.822 1636.18 367.369 1620.67C353.414 1605.35 334.643 1585.09 320.847 1569.63C306.735 1553.81 288.164 1532.51 274.393 1516.39C261.905 1501.45 245.096 1481.64 232.76 1466.56C218.625 1449.29 200.08 1426.01 186.343 1408.42C175.375 1394.01 160.611 1374.94 149.829 1360.47C135.862 1341.72 117.65 1316.42 104.152 1297.32C94.7438 1283.57 82.0353 1265.37 72.7853 1251.51C59.569 1231.72 42.521 1204.97 29.8736 1184.82C22.118 1171.92 11.6141 1154.82 4.03848 1141.81C-7.7912 1121.5 -22.8023 1093.99 -33.8702 1073.26C-39.7628 1061.54 -47.8129 1046.01 -53.5118 1034.19C-63.3642 1013.75 -75.3967 985.968 -84.2247 965.068C-91.7152 945.421 -101.654 919.185 -107.852 899.1C-111.247 888.105 -115.342 873.313 -118.145 862.158C-119.912 854.193 -122.434 843.654 -123.945 835.654C-125.893 825.534 -127.941 811.902 -129.193 801.703C-130.198 790.265 -131.189 774.986 -131.528 763.51C-131.716 757.301 -131.309 749.001 -130.96 742.792C-133.512 783.75 -113.999 824.18 -29.3008 952.728C-30.5167 972.324 -27.9402 995.711 -21.2473 1022.94C32.3273 1240.92 328.981 1622.18 641.421 1874.56C812.823 2013.03 953.343 2083.91 1036.43 2083.69C1159.66 2175.85 1198.88 2197.7 1239.86 2197.6C1234.52 2197.46 1227.39 2197.42 1222.05 2197.13C1211.09 2196.49 1196.61 2194.63 1185.74 2193.16C1178.67 2191.79 1169.21 2190.24 1162.18 2188.62C1151.91 2186.23 1138.22 2182.85 1128.13 2179.78Z" stroke="black" stroke-width="0.25" stroke-miterlimit="10"/>
</g>
<mask id="mask10_37_2378" style="mask-type:luminance" maskUnits="userSpaceOnUse" x="-132" y="644" width="1467" height="1366">
<path d="M-29.3289 952.755C-114.028 824.208 -133.518 783.757 -130.988 742.82C-120.045 566.208 130.566 629.139 482.235 913.215C884.105 1237.84 1265.68 1728.3 1334.62 2008.67C1290.96 2014.08 1247.68 2000.33 1110.06 1936.85C1056.49 1718.87 759.829 1337.61 447.397 1085.22C174.006 864.374 -20.8279 815.456 -29.3289 952.755Z" fill="white"/>
</mask>
<g mask="url(#mask10_37_2378)">
<path d="M432.43 1342.82C434.911 1285.78 439.39 1184.07 447.396 1085.22C134.998 832.874 -74.8502 804.987 -21.2757 1022.97C58.7519 1133.51 148.285 1247.68 198.506 1311.74C171.773 1202.96 276.497 1216.86 432.43 1342.82Z" stroke="black" stroke-width="0.25" stroke-miterlimit="10"/>
<path d="M447.396 1085.22C455.722 982.524 462.485 949.366 482.241 913.222C80.3707 588.592 -189.518 552.749 -120.607 833.143C-123.407 871.582 -104.388 908.13 -21.2688 1022.97C-74.8502 804.987 134.984 832.86 447.396 1085.22Z" stroke="black" stroke-width="0.25" stroke-miterlimit="10"/>
<path d="M455.74 1003.02C95.5544 712.063 -146.368 679.924 -84.5669 931.281" stroke="black" stroke-width="0.25" stroke-miterlimit="10"/>
<path d="M466.273 951.055C79.0696 638.278 -180.987 603.734 -114.63 873.934" stroke="black" stroke-width="0.25" stroke-miterlimit="10"/>
<path d="M175.137 908.482C130.333 771.295 122.109 728.405 132.019 685.869" stroke="black" stroke-width="0.25" stroke-miterlimit="10"/>
<path d="M7.00479 886.145C-70.5995 744.623 -88.0986 700.485 -84.25 657.145" stroke="black" stroke-width="0.25" stroke-miterlimit="10"/>
<path d="M482.234 913.215C487.511 903.543 506.173 870.871 506.016 847.219C76.1592 499.99 -212.532 461.616 -138.845 761.567C-115.754 788.26 -119.862 822.857 -120.614 833.136C-189.518 552.735 80.3772 588.6 482.234 913.215Z" stroke="black" stroke-width="0.25" stroke-miterlimit="10"/>
<path d="M132.019 685.869C134.676 674.49 144.889 636.335 131.404 604.036" stroke="black" stroke-width="0.25" stroke-miterlimit="10"/>
<path d="M-29.3289 952.755C-114.028 824.208 -133.518 783.757 -130.988 742.82C-120.045 566.208 130.566 629.139 482.235 913.215C884.105 1237.84 1265.68 1728.3 1334.62 2008.67C1290.96 2014.08 1247.68 2000.33 1110.06 1936.85C1056.49 1718.87 759.829 1337.61 447.397 1085.22C174.006 864.374 -20.8279 815.456 -29.3289 952.755Z" stroke="black" stroke-width="0.25" stroke-miterlimit="10"/>
</g>
<mask id="mask11_37_2378" style="mask-type:luminance" maskUnits="userSpaceOnUse" x="-132" y="738" width="199" height="470">
<path d="M66.4157 1207.05C-28.2665 1066.61 -95.394 935.769 -120.614 833.136C-129.227 798.115 -132.544 768.023 -130.988 742.82C-130.891 741.351 -130.794 739.883 -130.704 738.421L-130.684 738.209C-130.722 739.085 -130.722 739.333 -130.723 740.903C-130.704 743.005 -130.689 743.253 -130.471 747.383C-130.349 749.346 -130.117 751.962 -129.924 753.927C-129.731 755.892 -129.39 758.363 -129.159 760.265C-128.251 766.289 -126.862 774.335 -125.642 780.339C-124.875 784.294 -123.548 789.508 -122.653 793.438C-120.365 802.492 -117.02 814.497 -114.239 823.403C-109.178 839.608 -101.093 860.771 -95.0256 876.629C-87.8116 894.004 -77.776 917.011 -69.6806 933.979C-63.5045 946.954 -54.6958 963.963 -48.2686 976.811C-39.1054 994.297 -26.4001 1017.46 -16.5415 1034.62C-7.37219 1050.62 5.50008 1071.59 14.9423 1087.43C19.4425 1094.78 21.8958 1099.41 24.0531 1103.49C26.3787 1107.89 29.3046 1113.85 31.2927 1118.42C32.2848 1120.65 33.6455 1123.62 34.5876 1125.86C36.4527 1130.28 38.87 1136.21 40.6426 1140.65C43.9392 1149.05 46.8574 1157.07 51.2399 1169.16C53.6841 1175.91 56.2889 1182.99 58.6813 1189.05C60.1278 1192.75 62.1853 1197.63 63.7606 1201.27C64.5109 1203.04 65.6219 1205.32 66.4157 1207.05Z" fill="white"/>
</mask>
<g mask="url(#mask11_37_2378)">
<path d="M447.396 1085.22C455.722 982.524 462.485 949.366 482.241 913.222C80.3707 588.593 -189.518 552.75 -120.607 833.143C-123.407 871.582 -104.388 908.13 -21.2688 1022.97C-74.8502 804.987 134.984 832.86 447.396 1085.22Z" stroke="black" stroke-width="0.25" stroke-miterlimit="10"/>
<path d="M482.234 913.215C487.511 903.543 506.173 870.871 506.016 847.219C76.1592 499.99 -212.532 461.616 -138.845 761.567C-115.754 788.26 -119.862 822.857 -120.614 833.136C-189.518 552.735 80.3772 588.6 482.234 913.215Z" stroke="black" stroke-width="0.25" stroke-miterlimit="10"/>
<path d="M490.782 897.062C83.7225 568.242 -189.669 531.927 -119.841 815.982" stroke="black" stroke-width="0.25" stroke-miterlimit="10"/>
<path d="M501.093 872.689C84.6241 536.266 -195.082 499.096 -123.681 789.703" stroke="black" stroke-width="0.25" stroke-miterlimit="10"/>
<path d="M-120.614 833.136C-119.862 822.857 -115.754 788.26 -138.845 761.567C-65.0935 1061.53 343.089 1586.12 772.939 1933.35C763.607 1918.37 738.941 1926.52 731.774 1928.59C329.918 1603.97 -51.6894 1113.54 -120.614 833.136Z" stroke="black" stroke-width="0.25" stroke-miterlimit="10"/>
<path d="M-123.667 789.689C-52.2587 1080.27 343.248 1588.57 759.724 1924.99" stroke="black" stroke-width="0.25" stroke-miterlimit="10"/>
<path d="M66.4157 1207.05C-28.2665 1066.61 -95.394 935.769 -120.614 833.136C-129.227 798.115 -132.544 768.023 -130.988 742.82C-130.891 741.351 -130.794 739.883 -130.704 738.421L-130.684 738.209C-130.722 739.085 -130.722 739.333 -130.723 740.903C-130.704 743.005 -130.689 743.253 -130.471 747.383C-130.349 749.346 -130.117 751.962 -129.924 753.927C-129.731 755.892 -129.39 758.363 -129.159 760.265C-128.251 766.289 -126.862 774.335 -125.642 780.339C-124.875 784.294 -123.548 789.508 -122.653 793.438C-120.365 802.492 -117.02 814.497 -114.239 823.403C-109.178 839.608 -101.093 860.771 -95.0256 876.629C-87.8116 894.004 -77.776 917.011 -69.6806 933.979C-63.5045 946.954 -54.6958 963.963 -48.2686 976.811C-39.1054 994.297 -26.4001 1017.46 -16.5415 1034.62C-7.3722 1050.62 5.50009 1071.59 14.9423 1087.43C19.4425 1094.78 21.8958 1099.41 24.0531 1103.49C26.3787 1107.89 29.3046 1113.85 31.2927 1118.42C32.2848 1120.65 33.6455 1123.62 34.5876 1125.86C36.4527 1130.28 38.87 1136.21 40.6426 1140.65C43.9392 1149.05 46.8574 1157.07 51.2399 1169.16C53.6841 1175.91 56.2889 1182.99 58.6813 1189.05C60.1278 1192.75 62.1853 1197.63 63.7606 1201.27C64.5109 1203.04 65.6219 1205.32 66.4157 1207.05Z" stroke="black" stroke-width="0.25" stroke-miterlimit="10"/>
</g>
<mask id="mask12_37_2378" style="mask-type:luminance" maskUnits="userSpaceOnUse" x="-161" y="546" width="1591" height="1481">
<path d="M-130.989 742.82C-130.891 741.351 -130.794 739.883 -130.704 738.421L-130.684 738.209C-130.731 739.92 -130.731 739.92 -130.723 740.903C-130.625 745.023 -130.625 745.023 -130.471 747.383C-130.324 749.198 -130.157 751.615 -129.974 753.423C-129.762 755.481 -129.435 758.213 -129.16 760.265C-128.585 763.783 -127.974 768.518 -127.286 772.024C-126.036 778.468 -124.164 786.966 -122.681 793.409C-118.53 808.52 -112.778 828.614 -107.6 843.401C-104.081 853.451 -98.9948 866.714 -95.0532 876.6C-89.8631 888.649 -83.1958 904.821 -77.7331 916.736C-69.4052 935.012 -57.4567 958.935 -48.2963 976.782C-39.9899 992.009 -29.1618 1012.46 -20.597 1027.56C-10.3063 1045.71 4.00667 1069.57 14.8941 1087.38C13.4972 1085.21 11.712 1082.24 10.2219 1080.11C7.37838 1076.03 3.48134 1070.66 0.471885 1066.69C-2.82187 1061.76 -4.00878 1059.92 -6.18669 1056.83C-7.35287 1055.13 -8.60615 1053.5 -9.94134 1051.93C-10.3785 1051.4 -10.8648 1050.92 -11.3938 1050.48C-11.826 1050.13 -12.3131 1049.86 -12.8354 1049.67C-13.3986 1049.47 -13.9255 1049.18 -14.3959 1048.81C-14.9779 1048.33 -15.5305 1047.81 -16.0507 1047.26C-81.6875 937.133 -128.194 835.833 -148.832 751.867C-201.332 538.239 -72.5168 493.84 159.889 608.406C258.332 656.927 375.352 733.962 505.042 838.724C891.408 1150.82 1260.52 1604.25 1391.45 1915.05C1408.23 1954.87 1421.09 1992.34 1429.58 2026.89C1425.88 2023.94 1421.94 2021.3 1417.81 2019.01C1385.52 2000.98 1346.3 2007.22 1334.62 2008.67C1265.71 1728.27 884.084 1237.82 482.234 913.215C130.551 629.153 -120.045 566.208 -130.989 742.82Z" fill="white"/>
</mask>
<g mask="url(#mask12_37_2378)">
<path d="M447.396 1085.22C455.721 982.524 462.484 949.366 482.24 913.222C80.3697 588.593 -189.519 552.75 -120.608 833.143C-123.408 871.582 -104.389 908.13 -21.2698 1022.97C-74.8512 804.987 134.983 832.86 447.396 1085.22Z" stroke="black" stroke-width="0.25" stroke-miterlimit="10"/>
<path d="M175.137 908.482C130.333 771.295 122.109 728.405 132.019 685.869" stroke="black" stroke-width="0.25" stroke-miterlimit="10"/>
<path d="M7.00381 886.145C-70.6005 744.623 -88.0996 700.485 -84.251 657.145" stroke="black" stroke-width="0.25" stroke-miterlimit="10"/>
<path d="M482.234 913.215C487.511 903.543 506.173 870.871 506.016 847.219C76.1592 499.99 -212.532 461.616 -138.845 761.567C-115.754 788.26 -119.862 822.857 -120.614 833.136C-189.518 552.735 80.3772 588.6 482.234 913.215Z" stroke="black" stroke-width="0.25" stroke-miterlimit="10"/>
<path d="M490.782 897.062C83.7225 568.242 -189.669 531.927 -119.841 815.982" stroke="black" stroke-width="0.25" stroke-miterlimit="10"/>
<path d="M501.093 872.689C84.6241 536.266 -195.082 499.096 -123.681 789.703" stroke="black" stroke-width="0.25" stroke-miterlimit="10"/>
<path d="M132.018 685.869C134.675 674.49 144.888 636.335 131.403 604.036" stroke="black" stroke-width="0.25" stroke-miterlimit="10"/>
<path d="M-120.614 833.136C-119.862 822.857 -115.754 788.26 -138.845 761.567C-65.0935 1061.53 343.089 1586.12 772.939 1933.35C763.607 1918.37 738.941 1926.52 731.774 1928.59C329.918 1603.97 -51.6894 1113.54 -120.614 833.136Z" stroke="black" stroke-width="0.25" stroke-miterlimit="10"/>
<path d="M-123.667 789.689C-52.2587 1080.27 343.248 1588.57 759.724 1924.99" stroke="black" stroke-width="0.25" stroke-miterlimit="10"/>
<path d="M506.016 847.219C506.031 844.378 505.708 841.546 505.055 838.781C69.193 486.688 -223.559 447.806 -148.82 751.924C-145.204 754.824 -141.858 758.044 -138.823 761.546C-212.554 461.636 76.1593 499.99 506.016 847.219Z" stroke="black" stroke-width="0.25" stroke-miterlimit="10"/>
<path d="M505.882 844.152C73.9704 495.26 -216.117 456.72 -142.058 758.082" stroke="black" stroke-width="0.25" stroke-miterlimit="10"/>
<path d="M505.549 841.342C71.6382 490.831 -219.789 452.141 -145.401 754.884" stroke="black" stroke-width="0.25" stroke-miterlimit="10"/>
<path d="M131.403 604.036C129.683 599.92 127.604 595.964 125.188 592.213" stroke="black" stroke-width="0.25" stroke-miterlimit="10"/>
<path d="M-138.845 761.567C-141.88 758.065 -145.226 754.844 -148.841 751.945C-74.1021 1056.06 339.825 1588.02 775.694 1940.11C775.141 1937.72 774.211 1935.44 772.939 1933.35C343.09 1586.12 -65.0933 1061.53 -138.845 761.567Z" stroke="black" stroke-width="0.25" stroke-miterlimit="10"/>
<path d="M-142.059 758.082C-67.9996 1059.44 342.178 1586.58 774.09 1935.47" stroke="black" stroke-width="0.25" stroke-miterlimit="10"/>
<path d="M-145.4 754.884C-70.9909 1057.64 341.099 1587.24 774.996 1937.74" stroke="black" stroke-width="0.25" stroke-miterlimit="10"/>
<path d="M-130.989 742.82C-130.891 741.351 -130.794 739.883 -130.704 738.421L-130.684 738.209C-130.731 739.92 -130.731 739.92 -130.723 740.903C-130.625 745.023 -130.625 745.023 -130.471 747.383C-130.324 749.198 -130.157 751.615 -129.974 753.423C-129.762 755.481 -129.435 758.213 -129.16 760.265C-128.585 763.783 -127.974 768.518 -127.286 772.024C-126.036 778.468 -124.164 786.966 -122.681 793.409C-118.53 808.52 -112.778 828.614 -107.6 843.401C-104.081 853.451 -98.9948 866.714 -95.0532 876.6C-89.8631 888.649 -83.1958 904.821 -77.7331 916.736C-69.4053 935.012 -57.4567 958.935 -48.2963 976.782C-39.9899 992.009 -29.1618 1012.46 -20.597 1027.56C-10.3063 1045.71 4.00667 1069.57 14.8941 1087.38C13.4972 1085.21 11.712 1082.24 10.2219 1080.11C7.37839 1076.03 3.48131 1070.66 0.471885 1066.69C-2.82187 1061.76 -4.00879 1059.92 -6.18669 1056.83C-7.35285 1055.13 -8.60614 1053.5 -9.94134 1051.93C-10.3785 1051.4 -10.8648 1050.92 -11.3938 1050.48C-11.826 1050.13 -12.3131 1049.86 -12.8354 1049.67C-13.3986 1049.47 -13.9255 1049.18 -14.3959 1048.81C-14.9779 1048.33 -15.5305 1047.81 -16.0507 1047.26C-81.6875 937.133 -128.194 835.833 -148.832 751.867C-201.332 538.239 -72.5168 493.84 159.889 608.406C258.332 656.927 375.352 733.962 505.042 838.724C891.408 1150.82 1260.52 1604.25 1391.45 1915.05C1408.23 1954.87 1421.09 1992.34 1429.58 2026.89C1425.88 2023.94 1421.94 2021.3 1417.81 2019.01C1385.52 2000.98 1346.3 2007.22 1334.62 2008.67C1265.71 1728.27 884.084 1237.82 482.234 913.215C130.551 629.153 -120.045 566.208 -130.989 742.82Z" stroke="black" stroke-width="0.25" stroke-miterlimit="10"/>
</g>
<mask id="mask13_37_2378" style="mask-type:luminance" maskUnits="userSpaceOnUse" x="-30" y="876" width="1149" height="1208">
<path d="M641.392 1874.59C328.993 1622.25 32.3203 1240.93 -21.276 1022.97C-27.9689 995.738 -30.5455 972.351 -29.3295 952.755C-20.8286 815.456 174.005 864.374 447.396 1085.22C759.788 1337.57 1056.47 1718.89 1110.06 1936.85C977.564 1875.72 840.234 1806.63 763.144 1767.88C736.418 1659.09 588.334 1468.79 432.415 1342.83C276.496 1216.88 171.758 1202.97 198.491 1311.76C225.224 1420.54 373.308 1610.86 529.234 1736.81C685.161 1862.75 789.884 1876.67 763.144 1767.88C840.234 1806.63 977.564 1875.72 1110.06 1936.85C1134.23 2035.23 1104.75 2083.54 1036.4 2083.72C953.315 2083.94 812.795 2013.06 641.392 1874.59Z" fill="white"/>
</mask>
<g mask="url(#mask13_37_2378)">
</g>
</g>
</g>
<g clip-path="url(#clip2_37_2378)">
<path opacity="0.42" d="M47.5206 -25.8806C124.148 -96.8801 253.917 -103.607 347.341 -67.8233C542.782 7.02834 511.965 242.514 674.56 284.417C796.191 315.703 842.768 191.694 1027.79 198.557C1240.67 206.378 1376.43 378.021 1387.34 392.256C1482.75 516.715 1497.23 672.793 1471.94 682.55C1443.19 693.637 1408.65 498.198 1254.63 433.925C1068.24 356.101 931.759 572.756 545.557 577.703C337.255 580.324 227.947 519.16 191.808 496.829C151.34 471.781 39.8164 400.605 -0.0505581 264.746C-9.5772 232.248 -56.9205 70.8321 47.5206 -25.8806Z" fill="#EA6549"/>
</g>
</g>
<defs>
<clipPath id="clip0_37_2378">
<rect width="1440" height="810" fill="white"/>
</clipPath>
<clipPath id="clip1_37_2378">
<rect width="2446.17" height="1208" fill="white" transform="translate(28.5566 284) rotate(46.5899)"/>
</clipPath>
<clipPath id="clip2_37_2378">
<rect width="1502" height="772" fill="white" transform="translate(-19 -89)"/>
</clipPath>
</defs>
</svg>
