<svg width="360" height="930" viewBox="0 0 360 930" fill="none" xmlns="http://www.w3.org/2000/svg">
<g clip-path="url(#clip0_61_2)">
<rect width="360" height="930" fill="#F1F0E9"/>
<g opacity="0.5">
<g style="mix-blend-mode:multiply" opacity="0.59">
<mask id="mask0_61_2" style="mask-type:luminance" maskUnits="userSpaceOnUse" x="252" y="95" width="600" height="85">
<path d="M591.838 129.189C589.737 130.523 587.711 132.029 585.775 133.697C583.537 135.717 580.733 138.701 578.685 141.009C618.245 92.05 742.604 91.5179 851.294 101.941C828.542 130.099 771.815 154.85 688.777 168.573C534.979 193.981 349.167 171.909 273.754 119.271C264.947 113.134 258.021 106.879 252.976 100.507C361.732 90.5893 486.135 91.7344 525.563 140.883C524.309 139.28 522.976 137.774 521.57 136.375C519.309 134.256 516.175 131.65 513.768 129.811C512.55 128.99 510.906 127.944 509.658 127.214C508.887 126.754 507.823 126.24 507.038 125.826C505.937 125.303 505.57 125.149 504.873 124.924C505.431 125.113 505.43 125.113 507.39 125.645C509.35 126.177 509.379 126.141 514.054 127.061C517.196 127.629 517.196 127.629 524.058 128.54C525.878 128.756 528.3 128.999 530.12 129.171C531.94 129.342 534.524 129.504 536.454 129.649C538.495 129.775 541.225 129.91 543.265 129.991C545.306 130.072 548.139 130.099 550.23 130.145C552.322 130.19 555.177 130.145 557.291 130.145C559.405 130.145 562.201 130 564.307 129.937C566.414 129.874 569.056 129.694 571.082 129.54C573.107 129.387 575.603 129.153 577.54 128.99C579.317 128.801 581.687 128.531 583.456 128.296C585.041 128.089 587.126 127.755 588.733 127.521C591.801 127.007 592.058 126.953 596.351 126.006C597.819 125.645 598.164 125.546 599.39 125.176C599.082 125.285 599.082 125.285 597.753 125.871C595.726 126.821 593.75 127.93 591.838 129.189Z" fill="white"/>
</mask>
<g mask="url(#mask0_61_2)">
<path d="M415.684 -21.9902C465.306 12.642 522.061 64.7211 540.006 130.045C526.355 132.299 520.711 137.917 527.404 142.596C490.707 95.9271 374.957 102.599 273.754 119.316C198.341 66.6776 261.886 3.37308 415.684 -21.9902Z" stroke="black" stroke-width="0.25" stroke-miterlimit="10"/>
<path d="M465.981 18.3044C368.851 34.3447 328.733 74.3056 376.344 107.567" stroke="black" stroke-width="0.25" stroke-miterlimit="10"/>
<path d="M273.754 119.316C374.957 102.599 490.722 95.9272 527.405 142.596C534.105 147.267 550.597 149.223 564.256 146.969C582.362 106.81 639.155 133.977 688.777 168.609C534.979 194.026 349.167 171.981 273.754 119.316Z" stroke="black" stroke-width="0.25" stroke-miterlimit="10"/>
<path d="M591.837 129.189C589.736 130.523 587.711 132.029 585.775 133.697C583.536 135.717 580.732 138.701 578.685 141.009C618.244 92.0501 742.604 91.518 851.293 101.941C828.541 130.099 771.815 154.85 688.776 168.573C534.978 193.981 349.166 171.909 273.754 119.271C264.946 113.134 258.02 106.879 252.976 100.507C361.731 90.5893 486.135 91.7345 525.562 140.883C524.309 139.28 522.975 137.774 521.569 136.375C519.309 134.256 516.175 131.65 513.768 129.811C512.549 128.99 510.905 127.945 509.658 127.214C508.887 126.754 507.823 126.241 507.037 125.826C505.936 125.303 505.569 125.15 504.872 124.924C505.43 125.113 505.43 125.113 507.39 125.645C509.349 126.177 509.379 126.141 514.054 127.061C517.195 127.629 517.195 127.629 524.057 128.54C525.878 128.756 528.3 129 530.12 129.171C531.94 129.342 534.524 129.504 536.454 129.649C538.494 129.775 541.224 129.91 543.265 129.991C545.305 130.073 548.138 130.099 550.23 130.145C552.322 130.19 555.177 130.145 557.29 130.145C559.404 130.145 562.201 130 564.307 129.937C566.413 129.874 569.056 129.694 571.081 129.541C573.107 129.387 575.602 129.153 577.54 128.99C579.316 128.801 581.687 128.531 583.455 128.296C585.041 128.089 587.125 127.755 588.733 127.521C591.8 127.007 592.057 126.953 596.351 126.006C597.819 125.645 598.164 125.546 599.389 125.176C599.081 125.285 599.081 125.285 597.753 125.871C595.726 126.822 593.75 127.93 591.837 129.189Z" stroke="black" stroke-width="0.25" stroke-miterlimit="10"/>
</g>
<mask id="mask1_61_2" style="mask-type:luminance" maskUnits="userSpaceOnUse" x="242" y="-33" width="589" height="174">
<path d="M524.682 139.215C524.853 139.868 525.156 140.458 525.562 140.928C486.135 91.7796 361.731 90.6525 252.976 100.553C214.378 52.4497 279.809 0.469765 415.684 -21.9902C569.481 -47.3986 755.286 -25.3263 830.706 27.3028C729.496 44.0283 613.694 75.6039 576.857 134.427C570.157 129.748 553.665 127.791 540.006 130.045C529.547 131.777 523.786 135.473 524.682 139.215Z" fill="white"/>
</mask>
<g mask="url(#mask1_61_2)">
<path d="M415.684 -21.9902C465.306 12.642 522.061 64.7211 540.006 130.045C526.355 132.299 520.711 137.917 527.404 142.596C490.707 95.9271 374.957 102.599 273.754 119.316C198.341 66.6776 261.886 3.37308 415.684 -21.9902Z" stroke="black" stroke-width="0.25" stroke-miterlimit="10"/>
<path d="M465.981 18.3044C368.851 34.3447 328.734 74.3056 376.344 107.567" stroke="black" stroke-width="0.25" stroke-miterlimit="10"/>
<path d="M293.776 14.238C387.721 35.7062 495.14 72.7188 529.181 133.255" stroke="black" stroke-width="0.25" stroke-miterlimit="10"/>
<path d="M242.855 64.9285C355.288 67.976 483.904 83.9172 524.689 137.763" stroke="black" stroke-width="0.25" stroke-miterlimit="10"/>
<path d="M524.682 139.215C524.853 139.868 525.156 140.458 525.562 140.928C486.135 91.7796 361.731 90.6525 252.976 100.553C214.378 52.4497 279.809 0.469765 415.684 -21.9902C569.481 -47.3986 755.286 -25.3263 830.706 27.3028C729.496 44.0283 613.694 75.6039 576.857 134.427C570.157 129.748 553.665 127.791 540.006 130.045C529.547 131.777 523.786 135.473 524.682 139.215Z" stroke="black" stroke-width="0.25" stroke-miterlimit="10"/>
</g>
<mask id="mask2_61_2" style="mask-type:luminance" maskUnits="userSpaceOnUse" x="350" y="355" width="145" height="135">
<path d="M366.319 476.972C369.952 474.159 370.326 473.87 372.741 471.941C378.224 467.505 378.671 467.144 382.04 464.322C389.71 457.848 389.857 457.722 394.165 453.962C403.64 445.613 403.824 445.45 409.057 440.69C420.308 430.348 420.521 430.149 426.671 424.343C429.607 421.539 433.512 417.824 436.425 415.002C439.581 411.954 443.765 407.861 446.891 404.768C450.209 401.468 454.635 397.086 457.937 393.759C461.475 390.152 466.172 385.419 469.68 381.821C473.35 377.989 478.297 372.913 481.974 369.063C485.879 364.969 491.067 359.469 494.95 355.331C405.974 450.4 353.629 487.737 350.87 489.676C354.295 486.101 357.994 482.943 361.916 480.245L362.818 479.587C363.985 478.739 365.108 477.91 366.319 476.972Z" fill="white"/>
</mask>
<g mask="url(#mask2_61_2)">
<path d="M525.518 343.294C484.322 419.564 460.094 445.829 458.825 447.218C354.363 464.475 311.207 507.438 362.429 543.189C365.027 540.484 414.355 489.225 498.208 370.487C483.691 360.353 495.918 348.181 525.518 343.294Z" stroke="black" stroke-width="0.25" stroke-miterlimit="10"/>
<path d="M467.529 436.605C372.851 452.249 333.724 491.2 380.146 523.605" stroke="black" stroke-width="0.25" stroke-miterlimit="10"/>
<path d="M458.825 447.218C433.922 474.267 389.548 522.334 348.631 572.276C120.374 609.974 26.1068 703.862 137.989 781.972C221.314 689.805 311.684 595.899 362.399 543.189C311.207 507.438 354.363 464.475 458.825 447.218Z" stroke="black" stroke-width="0.25" stroke-miterlimit="10"/>
<path d="M366.319 476.972C369.952 474.159 370.326 473.87 372.741 471.941C378.224 467.505 378.671 467.144 382.04 464.322C389.71 457.848 389.857 457.722 394.165 453.962C403.64 445.613 403.824 445.45 409.057 440.69C420.308 430.348 420.521 430.149 426.671 424.343C429.607 421.539 433.512 417.824 436.425 415.002C439.581 411.954 443.765 407.861 446.891 404.768C450.209 401.468 454.635 397.086 457.937 393.759C461.475 390.152 466.172 385.419 469.68 381.821C473.35 377.989 478.297 372.913 481.974 369.063C485.879 364.969 491.067 359.469 494.95 355.331C405.974 450.4 353.629 487.737 350.87 489.676C354.295 486.101 357.994 482.943 361.916 480.245L362.818 479.587C363.985 478.739 365.108 477.91 366.319 476.972Z" stroke="black" stroke-width="0.25" stroke-miterlimit="10"/>
</g>
<mask id="mask3_61_2" style="mask-type:luminance" maskUnits="userSpaceOnUse" x="340" y="355" width="423" height="229">
<path d="M492.161 360.596C491.713 363.896 493.628 367.295 498.201 370.514C512.718 380.64 548.476 384.887 578.069 380C600.087 376.393 612.461 368.711 611.434 360.867C611.206 359.118 610.311 357.359 608.711 355.637C697.437 451.149 749.694 488.747 752.446 490.722C783.492 524.146 739.184 561.05 644.307 576.703C539.867 593.951 413.629 578.939 362.429 543.189C337.519 525.805 334.928 506.717 350.847 489.703C353.607 487.737 405.952 450.4 494.928 355.358C493.335 357.026 492.395 358.793 492.161 360.596Z" fill="white"/>
</mask>
<g mask="url(#mask3_61_2)">
<path d="M525.518 343.294C484.322 419.564 460.094 445.829 458.825 447.218C354.363 464.475 311.207 507.438 362.429 543.189C365.027 540.484 414.355 489.225 498.208 370.487C483.691 360.353 495.918 348.181 525.518 343.294Z" stroke="black" stroke-width="0.25" stroke-miterlimit="10"/>
<path d="M467.529 436.605C372.851 452.249 333.724 491.2 380.146 523.605" stroke="black" stroke-width="0.25" stroke-miterlimit="10"/>
<path d="M492.256 360.019C399.126 462.41 344.322 504.066 341.438 506.257" stroke="black" stroke-width="0.25" stroke-miterlimit="10"/>
<path d="M458.825 447.218C433.922 474.267 389.548 522.334 348.631 572.276C120.374 609.974 26.1068 703.862 137.989 781.972C221.314 689.805 311.684 595.899 362.399 543.189C311.207 507.438 354.363 464.475 458.825 447.218Z" stroke="black" stroke-width="0.25" stroke-miterlimit="10"/>
<path d="M341.438 506.257C285.108 549.077 184.719 625.356 92.1689 701.265" stroke="black" stroke-width="0.25" stroke-miterlimit="10"/>
<path d="M362.429 543.189C311.714 595.899 221.343 689.805 138.019 781.972C249.93 860.081 525.665 892.829 753.892 855.131C713.21 748.241 669.078 638.348 644.307 576.676C539.867 593.951 413.629 578.939 362.429 543.189Z" stroke="black" stroke-width="0.25" stroke-miterlimit="10"/>
<path d="M435.06 571.6C403.794 631.911 348.08 739.378 296.711 844.032" stroke="black" stroke-width="0.25" stroke-miterlimit="10"/>
<path d="M492.161 360.596C491.713 363.896 493.628 367.296 498.201 370.514C512.718 380.64 548.476 384.887 578.069 380C600.087 376.393 612.461 368.711 611.434 360.867C611.206 359.118 610.311 357.359 608.711 355.637C697.437 451.149 749.694 488.747 752.446 490.722C783.492 524.146 739.184 561.05 644.307 576.703C539.867 593.951 413.629 578.939 362.429 543.189C337.519 525.805 334.928 506.717 350.847 489.703C353.607 487.738 405.952 450.4 494.928 355.358C493.335 357.026 492.395 358.793 492.161 360.596Z" stroke="black" stroke-width="0.25" stroke-miterlimit="10"/>
</g>
<mask id="mask4_61_2" style="mask-type:luminance" maskUnits="userSpaceOnUse" x="-42" y="480" width="1186" height="582">
<path d="M776.454 506.167L786.516 513.38L797.011 520.909L807.925 528.762L819.213 536.877L830.861 545.317L842.817 554.008L855.059 562.953C858.809 565.658 863.8 569.364 867.536 572.114C871.272 574.864 876.439 578.669 880.248 581.491L893.143 591.048L906.193 600.786C910.149 603.743 915.411 607.701 919.36 610.704L932.637 620.739C936.637 623.778 941.965 627.835 945.95 630.883C949.936 633.93 955.315 638.096 959.315 641.144C963.315 644.191 968.666 648.357 972.666 651.467C976.666 654.578 982.163 658.879 986.222 662.071C990.046 665.073 995.124 669.095 998.934 672.124C1002.6 675.063 1007.49 678.968 1011.15 681.934C1014.6 684.729 1019.18 688.48 1022.62 691.32C1026.05 694.16 1030.41 697.794 1033.72 700.616C1036.89 703.321 1041.06 706.928 1044.21 709.633C1047.36 712.338 1051.37 715.944 1054.41 718.649C1057.44 721.354 1061.22 724.879 1064.12 727.602C1067.01 730.325 1070.72 733.914 1073.47 736.619C1076.23 739.324 1079.81 742.993 1082.47 745.789C1085.01 748.539 1088.43 752.145 1090.93 754.949C1093.44 757.754 1096.72 761.576 1099.14 764.498C1101.34 767.293 1104.35 770.945 1106.48 773.803C1108.61 776.661 1111.56 780.691 1113.65 783.721C1115.47 786.516 1117.96 790.186 1119.71 793.044C1121.47 795.902 1123.87 800.041 1125.58 803.124C1126.97 805.829 1128.9 809.436 1130.22 812.231C1131.59 815.143 1133.34 819.084 1134.57 822.077C1135.56 824.674 1136.94 828.109 1137.87 830.742C1138.79 833.375 1140.03 837.18 1140.87 839.984C1165.27 921.817 1040.97 1003.56 811.991 1041.38C518.069 1089.95 162.958 1047.76 18.8335 947.171C-31.8599 911.782 -49.702 873.886 -38.7296 837.504C-37.8635 834.871 -36.7773 831.328 -35.8526 828.722C-34.8691 825.945 -33.4599 822.275 -32.3516 819.57C-31.1333 816.82 -29.5773 813.106 -28.2856 810.41C-26.8177 807.398 -24.8361 803.458 -23.2581 800.564C-21.6801 797.669 -19.5443 793.991 -17.8636 791.268C-15.9407 788.157 -13.2838 784.055 -11.2581 781.115C-9.2618 778.347 -6.64891 774.605 -4.59387 771.909C-2.24525 768.826 0.962015 764.804 3.41338 761.856C5.73998 759.151 8.80057 755.544 11.1639 752.84C13.8354 749.864 17.4464 745.978 20.1913 743.111C22.7895 740.487 26.2244 736.934 28.8445 734.356C31.7803 731.498 35.6703 727.747 38.628 724.97C41.4757 722.364 45.2335 718.856 48.1105 716.287C51.2298 713.474 55.45 709.786 58.5839 707.045C61.7179 704.304 65.8206 700.842 68.9398 698.209C72.3086 695.378 76.8224 691.636 80.2205 688.85C83.6187 686.064 88.1912 682.349 91.626 679.59C95.2958 676.623 100.235 672.701 103.942 669.78C107.648 666.859 112.815 662.801 116.624 659.862C120.705 656.679 126.165 652.459 130.246 649.303C134.327 646.148 139.582 642.09 143.589 639.061C147.596 636.031 152.969 631.911 156.998 628.854C161.028 625.798 166.319 621.803 170.319 618.792C174.319 615.78 179.633 611.804 183.633 608.82L196.8 599.01L209.894 589.326C223.677 579.191 226.958 576.775 235.53 570.527C248.844 560.834 252.015 558.535 260.293 552.548L272.257 543.919L283.926 535.543C296.558 526.526 298.833 524.876 306.172 519.647C319.508 510.161 326.686 505.076 326.723 505.031C329.739 502.894 338.935 496.384 345.379 491.84L361.827 480.236C357.906 482.934 354.207 486.092 350.781 489.667C334.862 506.681 337.453 525.733 362.363 543.153C413.629 578.939 539.867 593.951 644.307 576.676C739.184 561.005 783.492 524.119 752.446 490.695C748.815 486.886 744.881 483.536 740.703 480.696L757.848 492.877L766.912 499.342C769.76 501.388 773.591 504.111 776.454 506.167Z" fill="white"/>
</mask>
<g mask="url(#mask4_61_2)">
<path d="M525.518 343.294C484.322 419.564 460.094 445.829 458.825 447.217C354.363 464.475 311.207 507.438 362.429 543.189C365.027 540.484 414.355 489.225 498.208 370.487C483.691 360.353 495.918 348.181 525.518 343.294Z" stroke="black" stroke-width="0.25" stroke-miterlimit="10"/>
<path d="M492.256 360.019C399.126 462.41 344.322 504.066 341.438 506.257" stroke="black" stroke-width="0.25" stroke-miterlimit="10"/>
<path d="M458.825 447.217C433.922 474.267 389.548 522.334 348.631 572.276C120.374 609.974 26.1068 703.862 137.989 781.972C221.314 689.805 311.684 595.899 362.399 543.189C311.207 507.438 354.363 464.475 458.825 447.217Z" stroke="black" stroke-width="0.25" stroke-miterlimit="10"/>
<path d="M428.307 480.542C289.541 503.471 232.213 560.554 300.256 608.044" stroke="black" stroke-width="0.25" stroke-miterlimit="10"/>
<path d="M389.849 523.623C207.919 553.675 132.756 628.521 221.959 690.779" stroke="black" stroke-width="0.25" stroke-miterlimit="10"/>
<path d="M341.438 506.257C285.108 549.076 184.719 625.356 92.1689 701.265" stroke="black" stroke-width="0.25" stroke-miterlimit="10"/>
<path d="M362.428 543.189C311.713 595.899 221.343 689.805 138.018 781.972C249.93 860.081 525.665 892.829 753.892 855.131C713.209 748.241 669.077 638.348 644.307 576.676C539.867 593.951 413.628 578.939 362.428 543.189Z" stroke="black" stroke-width="0.25" stroke-miterlimit="10"/>
<path d="M300.227 608.044C368.27 655.534 535.918 675.451 674.684 652.522" stroke="black" stroke-width="0.25" stroke-miterlimit="10"/>
<path d="M221.959 690.815C311.17 753.083 530.949 779.177 712.901 749.134" stroke="black" stroke-width="0.25" stroke-miterlimit="10"/>
<path d="M435.059 571.6C403.793 631.911 348.08 739.378 296.711 844.032" stroke="black" stroke-width="0.25" stroke-miterlimit="10"/>
<path d="M348.631 572.312C306.128 624.193 294.869 644.444 290.084 677.182C-3.84553 725.736 -125.284 846.647 18.8406 947.244C28.5507 909.618 51.457 877.754 138.018 782.008C26.1067 703.862 120.404 609.974 348.631 572.312Z" stroke="black" stroke-width="0.25" stroke-miterlimit="10"/>
<path d="M315.625 615.248C50.3343 659.077 -59.2727 768.204 70.8114 858.999" stroke="black" stroke-width="0.25" stroke-miterlimit="10"/>
<path d="M297.945 646.941C12.8151 694.043 -104.99 811.338 34.8187 908.915" stroke="black" stroke-width="0.25" stroke-miterlimit="10"/>
<path d="M92.1615 701.247C-3.98499 780.114 -29.4308 807.515 -40.2124 843.257" stroke="black" stroke-width="0.25" stroke-miterlimit="10"/>
<path d="M138.018 781.972C51.4572 877.718 28.5509 909.582 18.8408 947.207C162.965 1047.8 518.076 1089.98 811.998 1041.42C807.323 1002.09 796.153 966.178 753.892 855.131C525.665 892.829 249.959 860.081 138.018 781.972Z" stroke="black" stroke-width="0.25" stroke-miterlimit="10"/>
<path d="M70.811 859.035C200.895 949.831 521.408 987.899 786.699 944.079" stroke="black" stroke-width="0.25" stroke-miterlimit="10"/>
<path d="M34.8184 908.915C174.634 1006.5 519.118 1047.43 804.247 1000.31" stroke="black" stroke-width="0.25" stroke-miterlimit="10"/>
<path d="M296.711 844.032C243.346 952.753 229.189 988.052 223.214 1027.13" stroke="black" stroke-width="0.25" stroke-miterlimit="10"/>
<path d="M290.084 677.146C288.8 685.901 284.946 716.179 273.937 726.331C-38.0766 777.878 -166.994 906.228 -13.996 1013.05C8.492 991.496 16.2571 957.297 18.8479 947.235C-125.284 846.611 -3.84554 725.7 290.084 677.146Z" stroke="black" stroke-width="0.25" stroke-miterlimit="10"/>
<path d="M776.454 506.167L786.516 513.38L797.011 520.909L807.925 528.762L819.213 536.877L830.861 545.317L842.817 554.008L855.059 562.953C858.809 565.658 863.8 569.364 867.536 572.114C871.272 574.864 876.439 578.669 880.248 581.491L893.143 591.048L906.193 600.786C910.149 603.743 915.411 607.701 919.36 610.704L932.637 620.739C936.637 623.778 941.965 627.835 945.95 630.883C949.936 633.93 955.315 638.096 959.315 641.144C963.315 644.191 968.666 648.357 972.666 651.467C976.666 654.578 982.163 658.879 986.222 662.071C990.046 665.073 995.124 669.095 998.934 672.124C1002.6 675.063 1007.49 678.968 1011.15 681.934C1014.6 684.729 1019.18 688.48 1022.62 691.32C1026.05 694.16 1030.41 697.794 1033.72 700.616C1036.89 703.321 1041.06 706.928 1044.21 709.633C1047.36 712.338 1051.37 715.944 1054.41 718.649C1057.44 721.354 1061.22 724.879 1064.12 727.602C1067.01 730.325 1070.72 733.914 1073.47 736.619C1076.23 739.324 1079.81 742.993 1082.47 745.789C1085.01 748.539 1088.43 752.145 1090.93 754.949C1093.44 757.754 1096.72 761.576 1099.14 764.498C1101.34 767.293 1104.35 770.945 1106.48 773.803C1108.61 776.661 1111.56 780.691 1113.65 783.721C1115.47 786.516 1117.96 790.186 1119.71 793.044C1121.47 795.902 1123.87 800.041 1125.58 803.124C1126.97 805.829 1128.9 809.436 1130.22 812.231C1131.59 815.143 1133.34 819.084 1134.57 822.077C1135.56 824.674 1136.94 828.109 1137.87 830.742C1138.79 833.375 1140.03 837.18 1140.87 839.984C1165.27 921.817 1040.97 1003.56 811.991 1041.38C518.069 1089.95 162.958 1047.76 18.8335 947.171C-31.8599 911.782 -49.702 873.886 -38.7296 837.504C-37.8635 834.871 -36.7773 831.328 -35.8526 828.722C-34.8691 825.945 -33.4599 822.275 -32.3516 819.57C-31.1333 816.82 -29.5773 813.106 -28.2856 810.41C-26.8177 807.398 -24.8361 803.458 -23.2581 800.564C-21.6801 797.669 -19.5443 793.991 -17.8636 791.268C-15.9407 788.157 -13.2838 784.055 -11.2581 781.115C-9.2618 778.347 -6.64891 774.605 -4.59387 771.909C-2.24525 768.826 0.962015 764.804 3.41338 761.856C5.73998 759.151 8.80057 755.544 11.1639 752.84C13.8354 749.864 17.4464 745.978 20.1913 743.111C22.7895 740.487 26.2244 736.934 28.8445 734.356C31.7803 731.498 35.6703 727.747 38.628 724.97C41.4757 722.364 45.2335 718.856 48.1105 716.287C51.2298 713.474 55.45 709.786 58.5839 707.045C61.7179 704.304 65.8206 700.842 68.9398 698.209C72.3086 695.378 76.8224 691.636 80.2205 688.85C83.6187 686.064 88.1912 682.349 91.626 679.59C95.2958 676.623 100.235 672.701 103.942 669.78C107.648 666.859 112.815 662.801 116.624 659.862C120.705 656.679 126.165 652.459 130.246 649.303C134.327 646.148 139.582 642.09 143.589 639.061C147.596 636.031 152.969 631.911 156.998 628.854C161.028 625.798 166.319 621.803 170.319 618.792C174.319 615.78 179.633 611.804 183.633 608.82L196.8 599.01L209.894 589.326C223.677 579.191 226.958 576.775 235.53 570.527C248.844 560.834 252.015 558.535 260.293 552.548L272.257 543.919L283.926 535.543C296.558 526.526 298.833 524.876 306.172 519.647C319.508 510.161 326.686 505.076 326.723 505.031C329.739 502.894 338.935 496.384 345.379 491.84L361.827 480.236C357.906 482.934 354.207 486.092 350.781 489.667C334.862 506.681 337.453 525.733 362.363 543.153C413.629 578.939 539.867 593.951 644.307 576.676C739.184 561.005 783.492 524.119 752.446 490.695C748.815 486.886 744.881 483.536 740.703 480.696L757.848 492.877L766.912 499.342C769.76 501.388 773.591 504.111 776.454 506.167Z" stroke="black" stroke-width="0.25" stroke-miterlimit="10"/>
</g>
<mask id="mask5_61_2" style="mask-type:luminance" maskUnits="userSpaceOnUse" x="-39" y="440" width="1123" height="398">
<path d="M361.893 480.272C381.666 466.323 414.803 454.485 458.825 447.218C563.28 429.96 689.481 444.945 740.703 480.696C791.279 516.671 881.415 580.778 964.505 645.435C1050.82 712.617 1073.63 736.926 1083.24 771.359C1079.49 768.745 1075.6 766.169 1071.56 763.632C920.673 668.635 576.359 629.855 290.084 677.146C175.736 696.081 87.516 725.835 30.8409 761.207C-6.90581 784.749 -30.6341 810.734 -38.7222 837.54C-37.8635 834.727 -36.6452 831.012 -35.669 828.262C-34.6929 825.512 -33.3424 822.203 -32.3442 819.607C-31.0892 816.586 -29.3204 812.619 -27.9406 809.688C-26.6122 806.911 -24.6746 803.323 -23.2727 800.591C-21.5626 797.48 -19.1919 793.378 -17.3498 790.438C-15.5883 787.589 -13.0783 783.928 -11.2507 781.142C-9.12964 778.077 -6.21587 774.082 -3.98468 771.152C-1.75349 768.222 1.19693 764.66 3.42078 761.883C5.86481 758.944 9.18962 755.112 11.7217 752.299C14.2538 749.486 17.6519 745.915 20.1987 743.174C22.8849 740.379 26.518 736.718 29.263 734.013C32.0079 731.308 35.8243 727.702 38.6354 724.997C41.4464 722.292 45.439 718.685 48.3895 716.061C51.3399 713.438 55.5308 709.75 58.5913 707.045C61.6518 704.34 65.9307 700.734 69.1087 698.029C72.4334 695.233 76.8958 691.573 80.2279 688.805C83.56 686.037 88.3013 682.25 91.7215 679.473C95.3912 676.533 100.279 672.656 103.949 669.735C107.758 666.723 112.852 662.729 116.676 659.745C120.742 656.58 126.217 652.378 130.254 649.222C134.29 646.067 139.604 642.009 143.619 638.962C147.633 635.914 152.991 631.83 157.006 628.773C161.02 625.716 166.341 621.713 170.341 618.702C174.341 615.69 179.648 611.723 183.641 608.784C187.633 605.844 192.866 601.904 196.851 598.965C200.837 596.025 206.004 592.193 209.93 589.29C218.393 583.051 221.351 580.887 235.567 570.491C243.758 564.513 248.609 560.996 260.33 552.512C268.22 546.813 270.605 545.082 283.963 535.507C287.354 533.072 291.875 529.844 295.273 527.392L306.209 519.584C306.275 519.539 317.739 511.388 326.759 504.968L336.301 498.188L345.38 491.777L353.886 485.772L361.893 480.272Z" fill="white"/>
</mask>
<g mask="url(#mask5_61_2)">
<path d="M525.519 343.294C484.323 419.564 460.095 445.829 458.826 447.217C354.364 464.475 311.208 507.438 362.43 543.189C365.028 540.484 414.356 489.225 498.209 370.487C483.692 360.353 495.919 348.181 525.519 343.294Z" stroke="black" stroke-width="0.25" stroke-miterlimit="10"/>
<path d="M740.703 480.696C791.279 516.671 881.415 580.778 964.505 645.435C852.593 567.326 576.858 534.533 348.631 572.276C389.548 522.334 433.922 474.222 458.825 447.218C563.28 429.96 689.481 444.945 740.703 480.696Z" stroke="black" stroke-width="0.25" stroke-miterlimit="10"/>
<path d="M458.825 447.217C433.923 474.267 389.548 522.334 348.631 572.276C120.375 609.974 26.1073 703.862 137.99 781.972C221.314 689.805 311.684 595.899 362.4 543.189C311.207 507.438 354.363 464.475 458.825 447.217Z" stroke="black" stroke-width="0.25" stroke-miterlimit="10"/>
<path d="M428.308 480.542C289.541 503.471 232.213 560.554 300.257 608.044" stroke="black" stroke-width="0.25" stroke-miterlimit="10"/>
<path d="M389.849 523.623C207.919 553.675 132.756 628.521 221.96 690.779" stroke="black" stroke-width="0.25" stroke-miterlimit="10"/>
<path d="M376.022 471.823C328.954 505.419 245.065 565.279 167.722 626.005" stroke="black" stroke-width="0.25" stroke-miterlimit="10"/>
<path d="M964.505 645.435C1050.82 712.617 1073.63 736.925 1083.24 771.359C939.132 670.772 584.007 628.584 290.084 677.146C294.87 644.417 306.128 624.157 348.631 572.276C576.858 534.569 852.593 567.326 964.505 645.435Z" stroke="black" stroke-width="0.25" stroke-miterlimit="10"/>
<path d="M1031.51 700.292C901.43 609.496 580.917 571.419 315.626 615.248" stroke="black" stroke-width="0.25" stroke-miterlimit="10"/>
<path d="M1067.37 738.341C927.558 640.756 583.075 599.839 297.945 646.941" stroke="black" stroke-width="0.25" stroke-miterlimit="10"/>
<path d="M348.631 572.312C306.128 624.193 294.87 644.444 290.084 677.182C-3.84504 725.736 -125.283 846.647 18.8411 947.244C28.5512 909.618 51.4575 877.754 138.019 782.008C26.1071 703.862 120.404 609.974 348.631 572.312Z" stroke="black" stroke-width="0.25" stroke-miterlimit="10"/>
<path d="M315.626 615.248C50.3348 659.077 -59.2722 768.204 70.8119 858.999" stroke="black" stroke-width="0.25" stroke-miterlimit="10"/>
<path d="M297.945 646.941C12.8156 694.043 -104.99 811.338 34.8192 908.915" stroke="black" stroke-width="0.25" stroke-miterlimit="10"/>
<path d="M167.758 626.041C87.4133 689.156 66.151 712.401 57.1382 746.384" stroke="black" stroke-width="0.25" stroke-miterlimit="10"/>
<path d="M1083.24 771.359C1085.8 780.574 1093.47 812.222 1115.9 826.36C962.912 719.578 585.944 674.793 273.93 726.34C284.939 716.188 288.8 685.91 290.077 677.155C584.006 628.584 939.132 670.772 1083.24 771.359Z" stroke="black" stroke-width="0.25" stroke-miterlimit="10"/>
<path d="M290.084 677.146C288.8 685.901 284.947 716.179 273.938 726.331C-38.0761 777.878 -166.993 906.228 -13.9955 1013.05C8.49249 991.496 16.2576 957.297 18.8484 947.235C-125.283 846.611 -3.84506 725.7 290.084 677.146Z" stroke="black" stroke-width="0.25" stroke-miterlimit="10"/>
<path d="M57.1017 746.384C54.6944 755.472 47.4798 786.76 26.6064 799.842" stroke="black" stroke-width="0.25" stroke-miterlimit="10"/>
<path d="M361.894 480.272C381.666 466.323 414.804 454.485 458.826 447.218C563.28 429.96 689.482 444.945 740.704 480.696C791.28 516.671 881.415 580.778 964.505 645.435C1050.82 712.617 1073.64 736.926 1083.24 771.359C1079.49 768.745 1075.6 766.169 1071.57 763.632C920.674 668.635 576.359 629.855 290.085 677.146C175.736 696.081 87.5164 725.835 30.8414 761.207C-6.90532 784.749 -30.6336 810.734 -38.7217 837.54C-37.863 834.727 -36.6447 831.012 -35.6685 828.262C-34.6924 825.512 -33.3419 822.203 -32.3438 819.607C-31.0887 816.586 -29.3199 812.619 -27.9401 809.688C-26.6117 806.911 -24.6741 803.323 -23.2722 800.591C-21.5621 797.48 -19.1915 793.378 -17.3493 790.438C-15.5878 787.589 -13.0778 783.928 -11.2502 781.142C-9.12915 778.077 -6.21538 774.082 -3.98419 771.152C-1.753 768.222 1.19742 764.66 3.42127 761.883C5.8653 758.944 9.1901 755.112 11.7222 752.299C14.2543 749.486 17.6524 745.915 20.1992 743.174C22.8854 740.379 26.5185 736.718 29.2635 734.013C32.0084 731.308 35.8248 727.702 38.6358 724.997C41.4468 722.292 45.4395 718.685 48.39 716.061C51.3404 713.438 55.5313 709.75 58.5918 707.045C61.6523 704.34 65.9312 700.733 69.1092 698.029C72.4339 695.233 76.8963 691.573 80.2284 688.805C83.5605 686.037 88.3018 682.25 91.722 679.473C95.3917 676.533 100.28 672.656 103.95 669.735C107.759 666.723 112.852 662.729 116.676 659.745C120.742 656.58 126.217 652.378 130.254 649.222C134.291 646.067 139.604 642.009 143.619 638.962C147.634 635.914 152.992 631.83 157.006 628.773C161.021 625.716 166.342 621.713 170.342 618.702C174.342 615.69 179.648 611.723 183.641 608.783C187.634 605.844 192.867 601.904 196.852 598.965C200.837 596.025 206.004 592.193 209.931 589.29C218.393 583.051 221.351 580.887 235.567 570.491C243.758 564.513 248.61 560.996 260.331 552.512C268.221 546.813 270.606 545.082 283.964 535.507C287.354 533.072 291.876 529.844 295.274 527.392L306.209 519.584C306.276 519.539 317.74 511.388 326.76 504.968L336.301 498.188L345.38 491.777L353.886 485.772L361.894 480.272Z" stroke="black" stroke-width="0.25" stroke-miterlimit="10"/>
</g>
<mask id="mask6_61_2" style="mask-type:luminance" maskUnits="userSpaceOnUse" x="-2" y="657" width="1106" height="162">
<path d="M1103.54 818.137C943.36 717.306 577.856 676.128 273.96 726.331C152.58 746.384 58.9143 778.059 -1.26904 815.594C20.7492 801.889 28.3089 770.395 30.841 761.234C87.5014 725.898 175.736 696.063 290.084 677.173C576.322 629.882 920.673 668.662 1071.56 763.659C1074.07 772.802 1081.57 804.332 1103.54 818.137Z" fill="white"/>
</mask>
<g mask="url(#mask6_61_2)">
<path d="M964.504 645.435C1050.82 712.617 1073.63 736.926 1083.24 771.359C939.132 670.772 584.006 628.584 290.084 677.146C294.869 644.417 306.128 624.157 348.631 572.276C576.857 534.569 852.593 567.326 964.504 645.435Z" stroke="black" stroke-width="0.25" stroke-miterlimit="10"/>
<path d="M348.631 572.312C306.128 624.193 294.869 644.444 290.084 677.182C-3.84553 725.736 -125.284 846.647 18.8406 947.244C28.5507 909.618 51.457 877.754 138.018 782.008C26.1067 703.862 120.404 609.974 348.631 572.312Z" stroke="black" stroke-width="0.25" stroke-miterlimit="10"/>
<path d="M167.758 626.041C87.4128 689.156 66.1505 712.401 57.1377 746.384" stroke="black" stroke-width="0.25" stroke-miterlimit="10"/>
<path d="M1083.24 771.359C1085.8 780.574 1093.47 812.222 1115.9 826.36C962.911 719.578 585.944 674.793 273.93 726.34C284.939 716.188 288.799 685.91 290.076 677.155C584.006 628.584 939.132 670.772 1083.24 771.359Z" stroke="black" stroke-width="0.25" stroke-miterlimit="10"/>
<path d="M1087.87 786.57C942.478 685.099 584.27 642.55 287.779 691.528" stroke="black" stroke-width="0.25" stroke-miterlimit="10"/>
<path d="M1098.04 807.858C949.891 704.457 584.865 661.097 282.737 711.012" stroke="black" stroke-width="0.25" stroke-miterlimit="10"/>
<path d="M290.084 677.146C288.8 685.901 284.946 716.179 273.937 726.331C-38.0766 777.878 -166.994 906.228 -13.996 1013.05C8.492 991.496 16.2571 957.297 18.8479 947.235C-125.284 846.611 -3.84554 725.7 290.084 677.146Z" stroke="black" stroke-width="0.25" stroke-miterlimit="10"/>
<path d="M287.78 691.528C-8.73338 740.514 -131.214 862.48 14.173 963.951" stroke="black" stroke-width="0.25" stroke-miterlimit="10"/>
<path d="M282.737 711.012C-19.3904 760.927 -144.219 885.21 3.927 988.611" stroke="black" stroke-width="0.25" stroke-miterlimit="10"/>
<path d="M57.1012 746.384C54.6939 755.472 47.4793 786.76 26.606 799.842" stroke="black" stroke-width="0.25" stroke-miterlimit="10"/>
<path d="M1115.9 826.351C1128.83 834.466 1142.32 834.123 1148.72 833.077C986.831 720.083 587.984 672.701 257.812 727.242C260.932 729.424 267.567 732.192 273.959 726.34C585.944 674.784 962.912 719.569 1115.9 826.351Z" stroke="black" stroke-width="0.25" stroke-miterlimit="10"/>
<path d="M273.93 726.331C267.567 732.192 260.932 729.424 257.783 727.233C-72.337 781.782 -208.755 917.642 -46.8545 1030.58C-40.4912 1029.54 -26.9573 1025.43 -14.0032 1013.02C-167.001 906.228 -38.0838 777.887 273.93 726.331Z" stroke="black" stroke-width="0.25" stroke-miterlimit="10"/>
<path d="M26.6062 799.842C14.5842 807.38 2.01907 806.37 -3.88184 805.018" stroke="black" stroke-width="0.25" stroke-miterlimit="10"/>
<path d="M1103.53 818.137C943.359 717.306 577.856 676.128 273.959 726.331C152.58 746.384 58.9138 778.059 -1.26953 815.594C20.7488 801.889 28.3084 770.395 30.8405 761.234C87.5009 725.898 175.736 696.063 290.084 677.173C576.322 629.882 920.673 668.662 1071.56 763.659C1074.07 772.802 1081.57 804.332 1103.53 818.137Z" stroke="black" stroke-width="0.25" stroke-miterlimit="10"/>
</g>
<mask id="mask7_61_2" style="mask-type:luminance" maskUnits="userSpaceOnUse" x="-44" y="761" width="75" height="91">
<path d="M-38.7224 837.54C-30.649 810.734 -6.90601 784.749 30.8407 761.207C28.3086 770.368 20.7123 801.862 -1.26933 815.567C-6.65647 819.047 -13.8197 823.763 -19.0013 827.685C-21.871 829.858 -25.6069 833.005 -28.3958 835.277C-30.3041 836.963 -32.7995 839.28 -34.6564 841.075C-35.9775 842.364 -37.6435 844.221 -38.9206 845.583C-39.5958 846.349 -40.4839 847.386 -41.1224 848.198C-41.6435 848.847 -42.3041 849.748 -42.8031 850.416C-43.155 850.892 -43.4857 851.392 -43.7939 851.913L-43.5004 851.326C-43.2068 850.74 -43.1334 850.569 -42.671 849.523C-42.3187 848.684 -42.26 848.531 -41.6875 847.007C-41.3352 846.052 -41.2545 845.808 -40.7188 844.185C-40.1316 842.31 -40.0508 842.039 -38.7224 837.54Z" fill="white"/>
</mask>
<g mask="url(#mask7_61_2)">
<path d="M348.631 572.312C306.128 624.193 294.869 644.444 290.084 677.182C-3.84553 725.736 -125.284 846.647 18.8406 947.244C28.5507 909.618 51.457 877.754 138.018 782.008C26.1067 703.862 120.404 609.974 348.631 572.312Z" stroke="black" stroke-width="0.25" stroke-miterlimit="10"/>
<path d="M290.084 677.146C288.8 685.901 284.946 716.179 273.937 726.331C-38.0766 777.878 -166.994 906.228 -13.996 1013.05C8.492 991.496 16.2571 957.297 18.8479 947.235C-125.284 846.611 -3.84554 725.7 290.084 677.146Z" stroke="black" stroke-width="0.25" stroke-miterlimit="10"/>
<path d="M287.78 691.528C-8.73338 740.514 -131.214 862.48 14.173 963.951" stroke="black" stroke-width="0.25" stroke-miterlimit="10"/>
<path d="M282.737 711.012C-19.3904 760.927 -144.219 885.21 3.927 988.611" stroke="black" stroke-width="0.25" stroke-miterlimit="10"/>
<path d="M273.93 726.331C267.567 732.192 260.932 729.424 257.783 727.233C-72.337 781.782 -208.755 917.642 -46.8545 1030.58C-40.4912 1029.54 -26.9573 1025.43 -14.0032 1013.02C-167.001 906.228 -38.0838 777.887 273.93 726.331Z" stroke="black" stroke-width="0.25" stroke-miterlimit="10"/>
<path d="M-38.7224 837.54C-30.649 810.734 -6.90601 784.749 30.8407 761.207C28.3086 770.368 20.7123 801.862 -1.26933 815.567C-6.65647 819.047 -13.8197 823.763 -19.0013 827.685C-21.871 829.858 -25.6069 833.005 -28.3958 835.277C-30.3041 836.963 -32.7995 839.28 -34.6564 841.075C-35.9775 842.364 -37.6435 844.221 -38.9206 845.583C-39.5958 846.349 -40.4839 847.386 -41.1224 848.198C-41.6435 848.847 -42.3041 849.748 -42.8031 850.416C-43.155 850.892 -43.4857 851.392 -43.7939 851.913L-43.5004 851.326C-43.2068 850.74 -43.1334 850.569 -42.671 849.523C-42.3187 848.685 -42.26 848.531 -41.6875 847.007C-41.3352 846.052 -41.2545 845.808 -40.7188 844.185C-40.1316 842.31 -40.0508 842.039 -38.7224 837.54Z" stroke="black" stroke-width="0.25" stroke-miterlimit="10"/>
</g>
<mask id="mask8_61_2" style="mask-type:luminance" maskUnits="userSpaceOnUse" x="-79" y="837" width="1260" height="298">
<path d="M18.8408 947.208C162.965 1047.8 518.076 1089.98 811.998 1041.42C1040.99 1003.55 1165.28 921.853 1140.88 840.02C1143.73 849.559 1152.22 882.199 1177.09 899.231C1202.99 986.105 1071.04 1072.88 827.969 1113.03C515.955 1164.58 138.987 1119.8 -14.0032 1013.02C-67.8232 975.447 -86.759 935.216 -75.1113 896.598C-50.1572 879.674 -41.5921 847.071 -38.7223 837.54C-49.6948 873.922 -31.8747 911.818 18.8408 947.208Z" fill="white"/>
</mask>
<g mask="url(#mask8_61_2)">
<path d="M348.631 572.312C306.128 624.193 294.87 644.444 290.084 677.182C-3.84504 725.736 -125.283 846.647 18.8411 947.244C28.5512 909.618 51.4575 877.754 138.019 782.008C26.1071 703.862 120.404 609.974 348.631 572.312Z" stroke="black" stroke-width="0.25" stroke-miterlimit="10"/>
<path d="M92.162 701.247C-3.9845 780.114 -29.4303 807.515 -40.2119 843.257" stroke="black" stroke-width="0.25" stroke-miterlimit="10"/>
<path d="M138.018 781.972C51.4572 877.718 28.5509 909.582 18.8408 947.208C162.965 1047.8 518.076 1089.98 811.998 1041.42C807.323 1002.09 796.153 966.178 753.892 855.131C525.665 892.829 249.959 860.081 138.018 781.972Z" stroke="black" stroke-width="0.25" stroke-miterlimit="10"/>
<path d="M296.712 844.032C243.347 952.753 229.189 988.052 223.215 1027.13" stroke="black" stroke-width="0.25" stroke-miterlimit="10"/>
<path d="M290.084 677.146C288.8 685.901 284.946 716.179 273.937 726.331C-38.0766 777.878 -166.994 906.228 -13.996 1013.05C8.492 991.496 16.2571 957.297 18.8479 947.235C-125.284 846.611 -3.84554 725.7 290.084 677.146Z" stroke="black" stroke-width="0.25" stroke-miterlimit="10"/>
<path d="M287.78 691.528C-8.73338 740.514 -131.214 862.48 14.173 963.951" stroke="black" stroke-width="0.25" stroke-miterlimit="10"/>
<path d="M282.737 711.012C-19.3904 760.927 -144.219 885.21 3.927 988.611" stroke="black" stroke-width="0.25" stroke-miterlimit="10"/>
<path d="M273.93 726.331C267.567 732.192 260.932 729.424 257.783 727.233C-72.337 781.782 -208.755 917.642 -46.8545 1030.58C-40.4912 1029.54 -26.9573 1025.43 -14.0032 1013.02C-167.001 906.228 -38.0838 777.887 273.93 726.331Z" stroke="black" stroke-width="0.25" stroke-miterlimit="10"/>
<path d="M18.8408 947.207C162.965 1047.8 518.076 1089.98 811.998 1041.42C1040.99 1003.55 1165.28 921.853 1140.88 840.02C1143.73 849.559 1152.22 882.199 1177.09 899.231C1202.99 986.105 1071.04 1072.88 827.969 1113.03C515.955 1164.58 138.987 1119.8 -14.0032 1013.02C-67.8232 975.447 -86.759 935.215 -75.1113 896.598C-50.1572 879.674 -41.5921 847.071 -38.7223 837.54C-49.6948 873.922 -31.8747 911.818 18.8408 947.207Z" stroke="black" stroke-width="0.25" stroke-miterlimit="10"/>
</g>
<mask id="mask9_61_2" style="mask-type:luminance" maskUnits="userSpaceOnUse" x="-2" y="704" width="1106" height="115">
<path d="M102.672 769.042C90.1142 773.19 73.4978 779.312 61.1675 784.37C55.0465 786.877 46.9804 790.519 40.896 793.152C36.1327 795.352 29.7768 798.291 25.1016 800.78C17.1236 805.018 6.56947 810.942 -1.26904 815.567C58.9143 778.059 152.551 746.384 273.96 726.304C577.856 676.1 943.36 717.288 1103.54 818.11C1097.66 814.503 1089.74 809.842 1083.72 806.605C1074.6 801.691 1062.16 795.902 1052.84 791.583C1040.92 786.543 1024.95 780.006 1012.84 775.642C1005.5 772.991 995.609 769.772 988.218 767.266C975.337 763.226 958.127 758.105 945.128 754.643C935.286 752.001 922.097 748.881 912.226 746.411C898.677 743.291 880.571 739.396 866.956 736.754C855.044 734.437 839.11 731.777 827.176 729.649C813.077 727.35 794.252 724.573 780.109 722.707C766.663 720.903 748.689 719.01 735.221 717.423C720.674 715.917 701.261 714.177 686.685 713.077C672.219 711.977 652.924 710.967 638.421 710.065C623.529 709.335 603.669 708.632 588.777 708.262C573.775 707.929 553.775 707.938 538.774 707.802C523.647 707.865 503.486 708.217 488.374 708.704C473.262 709.191 453.306 710.273 438.275 710.949C422.994 711.851 402.627 713.32 387.368 714.664C372.829 715.935 353.482 718.126 338.928 719.605C317.446 722.31 288.859 726.466 267.42 729.667C252.25 732.228 232.037 735.88 216.932 738.972C205.387 741.344 190.055 744.941 178.54 747.502C164.551 750.973 145.923 755.77 132.037 759.836C123.193 762.46 111.45 766.166 102.672 769.042Z" fill="white"/>
</mask>
<g mask="url(#mask9_61_2)">
<path d="M1083.24 771.359C1085.8 780.574 1093.47 812.222 1115.9 826.36C962.911 719.578 585.944 674.793 273.93 726.34C284.939 716.188 288.799 685.91 290.076 677.155C584.006 628.584 939.132 670.772 1083.24 771.359Z" stroke="black" stroke-width="0.25" stroke-miterlimit="10"/>
<path d="M290.084 677.146C288.8 685.901 284.946 716.179 273.937 726.331C-38.0766 777.878 -166.994 906.228 -13.996 1013.05C8.492 991.496 16.2571 957.297 18.8479 947.235C-125.284 846.611 -3.84554 725.7 290.084 677.146Z" stroke="black" stroke-width="0.25" stroke-miterlimit="10"/>
<path d="M57.1012 746.384C54.6939 755.472 47.4793 786.76 26.606 799.842" stroke="black" stroke-width="0.25" stroke-miterlimit="10"/>
<path d="M1115.9 826.351C1128.83 834.466 1142.32 834.123 1148.72 833.077C986.831 720.083 587.984 672.701 257.812 727.242C260.932 729.424 267.567 732.192 273.959 726.34C585.944 674.784 962.912 719.569 1115.9 826.351Z" stroke="black" stroke-width="0.25" stroke-miterlimit="10"/>
<path d="M1128.74 831.986C972.27 722.77 586.729 676.975 267.618 729.694" stroke="black" stroke-width="0.25" stroke-miterlimit="10"/>
<path d="M273.93 726.331C267.567 732.192 260.932 729.424 257.783 727.233C-72.337 781.782 -208.755 917.642 -46.8545 1030.58C-40.4912 1029.54 -26.9573 1025.43 -14.0032 1013.02C-167.001 906.228 -38.0838 777.887 273.93 726.331Z" stroke="black" stroke-width="0.25" stroke-miterlimit="10"/>
<path d="M267.618 729.658C-51.4931 782.377 -183.339 913.648 -26.8621 1022.86" stroke="black" stroke-width="0.25" stroke-miterlimit="10"/>
<path d="M26.6062 799.842C14.5842 807.38 2.01907 806.37 -3.88184 805.018" stroke="black" stroke-width="0.25" stroke-miterlimit="10"/>
<path d="M102.671 769.042C90.1137 773.19 73.4973 779.312 61.167 784.37C55.046 786.877 46.9799 790.519 40.8955 793.152C36.1323 795.352 29.7763 798.291 25.1011 800.78C17.1231 805.018 6.56898 810.942 -1.26953 815.567C58.9138 778.059 152.55 746.384 273.959 726.304C577.856 676.1 943.359 717.288 1103.53 818.11C1097.66 814.503 1089.74 809.842 1083.72 806.605C1074.6 801.691 1062.16 795.902 1052.84 791.583C1040.91 786.543 1024.95 780.006 1012.84 775.642C1005.5 772.991 995.608 769.772 988.218 767.266C975.337 763.226 958.126 758.105 945.128 754.643C935.286 752.001 922.097 748.881 912.225 746.411C898.677 743.291 880.57 739.396 866.956 736.754C855.044 734.437 839.11 731.777 827.176 729.649C813.077 727.35 794.251 724.573 780.108 722.707C766.662 720.903 748.688 719.01 735.22 717.423C720.673 715.917 701.261 714.177 686.685 713.077C672.219 711.977 652.923 710.967 638.421 710.065C623.529 709.335 603.668 708.632 588.777 708.262C573.775 707.929 553.775 707.938 538.773 707.802C523.647 707.865 503.485 708.217 488.373 708.704C473.261 709.191 453.305 710.273 438.274 710.949C422.994 711.851 402.627 713.32 387.368 714.664C372.829 715.935 353.482 718.126 338.928 719.605C317.445 722.31 288.858 726.466 267.42 729.667C252.249 732.228 232.036 735.88 216.932 738.972C205.387 741.344 190.055 744.941 178.539 747.502C164.55 750.973 145.923 755.77 132.037 759.836C123.193 762.46 111.449 766.166 102.671 769.042Z" stroke="black" stroke-width="0.25" stroke-miterlimit="10"/>
</g>
<mask id="mask10_61_2" style="mask-type:luminance" maskUnits="userSpaceOnUse" x="-34" y="704" width="1170" height="122">
<path d="M1052.8 791.61C1046.2 788.905 1037.45 785.055 1030.79 782.441C1018.11 777.445 1001 771.621 988.152 767.293C978.978 764.525 966.772 760.684 957.561 758.078C943.998 754.255 925.818 749.693 912.159 746.42C900.791 743.958 885.657 740.496 874.259 738.215C860.145 735.384 841.275 732.011 827.11 729.658C814.068 727.72 796.695 724.943 783.631 723.193C769.107 721.237 749.716 718.965 735.154 717.432C720.953 716.16 702.032 714.258 687.822 713.176C672.99 712.04 653.202 710.814 638.355 710.074C623.485 709.551 603.668 708.641 588.799 708.271C573.775 707.938 553.731 707.748 538.707 707.811C523.669 708.073 503.617 708.226 488.579 708.713C473.541 709.2 453.35 710.083 438.208 710.967C423.53 712.022 403.955 713.23 389.284 714.501C374.157 715.818 353.996 717.865 338.891 719.623C317.423 722.463 288.807 726.34 267.383 729.685C254.965 731.93 238.385 734.716 225.996 737.169C211.706 739.982 192.712 744.166 178.503 747.52C168.763 750.026 155.75 753.191 146.04 755.869C132.954 759.476 115.611 764.831 102.642 769.033C95.6332 771.504 86.2607 774.659 79.2809 777.265C67.6479 781.611 52.3232 788.085 40.8663 793.143C32.1397 797.345 20.5801 803.169 11.9783 807.741C7.92696 809.896 2.64259 813.151 -1.29868 815.558C-13.9592 823.456 -27.1922 822.825 -33.4087 821.653C30.2315 781.981 129.343 748.449 257.783 727.233C579.338 674.108 966.09 717.675 1135.58 824.376C1129.36 825.521 1116.13 826.089 1103.48 818.128C1095.28 813.241 1084.25 806.929 1075.85 802.529C1069.04 798.968 1059.8 794.649 1052.8 791.61Z" fill="white"/>
</mask>
<g mask="url(#mask10_61_2)">
<path d="M1083.24 771.359C1085.8 780.574 1093.47 812.222 1115.9 826.36C962.911 719.578 585.944 674.793 273.93 726.34C284.939 716.188 288.799 685.91 290.076 677.155C584.006 628.584 939.132 670.772 1083.24 771.359Z" stroke="black" stroke-width="0.25" stroke-miterlimit="10"/>
<path d="M290.084 677.146C288.8 685.901 284.946 716.179 273.937 726.331C-38.0766 777.878 -166.994 906.228 -13.996 1013.05C8.492 991.496 16.2571 957.297 18.8479 947.235C-125.284 846.611 -3.84554 725.7 290.084 677.146Z" stroke="black" stroke-width="0.25" stroke-miterlimit="10"/>
<path d="M57.1012 746.384C54.6939 755.472 47.4793 786.76 26.606 799.842" stroke="black" stroke-width="0.25" stroke-miterlimit="10"/>
<path d="M1115.9 826.351C1128.83 834.466 1142.32 834.123 1148.72 833.077C986.831 720.083 587.984 672.701 257.812 727.242C260.932 729.424 267.567 732.192 273.959 726.34C585.944 674.784 962.912 719.569 1115.9 826.351Z" stroke="black" stroke-width="0.25" stroke-miterlimit="10"/>
<path d="M1128.74 831.986C972.27 722.77 586.729 676.975 267.618 729.694" stroke="black" stroke-width="0.25" stroke-miterlimit="10"/>
<path d="M1140.23 833.609C980.636 722.22 587.411 675.505 261.944 729.28" stroke="black" stroke-width="0.25" stroke-miterlimit="10"/>
<path d="M273.93 726.331C267.567 732.192 260.932 729.424 257.783 727.233C-72.337 781.782 -208.755 917.642 -46.8545 1030.58C-40.4912 1029.54 -26.9573 1025.43 -14.0032 1013.02C-167.001 906.228 -38.0838 777.887 273.93 726.331Z" stroke="black" stroke-width="0.25" stroke-miterlimit="10"/>
<path d="M267.618 729.658C-51.4931 782.377 -183.339 913.648 -26.8621 1022.86" stroke="black" stroke-width="0.25" stroke-miterlimit="10"/>
<path d="M261.966 729.28C-63.508 783.045 -197.981 916.93 -38.3924 1028.32" stroke="black" stroke-width="0.25" stroke-miterlimit="10"/>
<path d="M26.6057 799.842C14.5837 807.38 2.01858 806.37 -3.88232 805.018" stroke="black" stroke-width="0.25" stroke-miterlimit="10"/>
<path d="M1148.72 833.077C1149.62 832.924 1150.38 832.761 1150.96 832.608C988.475 719.19 588.101 671.637 256.711 726.376C257.063 726.704 257.431 727.005 257.812 727.278C587.962 672.701 986.838 720.083 1148.72 833.077Z" stroke="black" stroke-width="0.25" stroke-miterlimit="10"/>
<path d="M257.813 727.242C257.431 726.969 257.063 726.668 256.712 726.34C-74.6783 781.088 -211.595 917.408 -49.1003 1030.83C-48.5132 1030.78 -47.7573 1030.7 -46.8545 1030.55C-208.755 917.642 -72.337 781.782 257.813 727.242Z" stroke="black" stroke-width="0.25" stroke-miterlimit="10"/>
<path d="M1052.8 791.61C1046.2 788.905 1037.45 785.055 1030.79 782.441C1018.11 777.446 1001 771.621 988.152 767.293C978.978 764.525 966.772 760.684 957.561 758.078C943.998 754.255 925.818 749.693 912.159 746.42C900.791 743.958 885.657 740.496 874.259 738.215C860.145 735.384 841.275 732.012 827.11 729.658C814.068 727.72 796.695 724.943 783.631 723.193C769.107 721.237 749.716 718.965 735.154 717.432C720.953 716.161 702.032 714.258 687.822 713.176C672.99 712.04 653.202 710.814 638.355 710.074C623.485 709.552 603.668 708.641 588.799 708.271C573.775 707.938 553.731 707.748 538.707 707.811C523.669 708.073 503.617 708.226 488.579 708.713C473.541 709.2 453.35 710.083 438.208 710.967C423.53 712.022 403.955 713.23 389.284 714.501C374.157 715.818 353.996 717.865 338.891 719.623C317.423 722.463 288.807 726.34 267.383 729.685C254.965 731.93 238.385 734.717 225.996 737.169C211.706 739.982 192.712 744.166 178.503 747.52C168.763 750.026 155.75 753.191 146.04 755.869C132.954 759.476 115.611 764.831 102.642 769.033C95.6332 771.504 86.2607 774.659 79.2809 777.265C67.6479 781.611 52.3232 788.085 40.8663 793.143C32.1397 797.345 20.5801 803.17 11.9783 807.741C7.92696 809.896 2.64259 813.151 -1.29868 815.558C-13.9592 823.457 -27.1922 822.825 -33.4087 821.653C30.2315 781.981 129.343 748.449 257.783 727.233C579.338 674.108 966.09 717.675 1135.58 824.376C1129.36 825.521 1116.13 826.089 1103.48 818.128C1095.28 813.241 1084.25 806.929 1075.85 802.529C1069.04 798.968 1059.8 794.649 1052.8 791.61Z" stroke="black" stroke-width="0.25" stroke-miterlimit="10"/>
</g>
<mask id="mask11_61_2" style="mask-type:luminance" maskUnits="userSpaceOnUse" x="-115" y="815" width="1332" height="345">
<path d="M-46.8541 1030.58C-145.76 961.553 -133.32 884.002 -33.3789 821.662C-27.1624 822.834 -13.9294 823.466 -1.2689 815.567C-41.3348 840.561 -66.5238 868.142 -75.1109 896.598C-86.7586 935.215 -67.8228 975.447 -14.0028 1013.02C138.988 1119.8 515.956 1164.58 827.969 1113.03C1071.04 1072.88 1203.01 986.105 1177.09 899.231C1169.75 874.589 1149.71 849.947 1115.9 826.351C1128.83 834.466 1142.32 834.123 1148.72 833.077C1310.6 946.062 1174.2 1081.88 844.05 1136.42C513.9 1190.96 115.032 1143.58 -46.8541 1030.58Z" fill="white"/>
</mask>
<g mask="url(#mask11_61_2)">
<path d="M290.085 677.146C288.801 685.901 284.947 716.179 273.938 726.331C-38.0757 777.878 -166.993 906.228 -13.995 1013.05C8.49298 991.496 16.2581 957.297 18.8489 947.235C-125.283 846.611 -3.84457 725.7 290.085 677.146Z" stroke="black" stroke-width="0.25" stroke-miterlimit="10"/>
<path d="M273.931 726.331C267.567 732.192 260.932 729.424 257.784 727.233C-72.3365 781.782 -208.754 917.642 -46.854 1030.58C-40.4907 1029.54 -26.9568 1025.43 -14.0027 1013.02C-167 906.228 -38.0833 777.887 273.931 726.331Z" stroke="black" stroke-width="0.25" stroke-miterlimit="10"/>
<path d="M267.619 729.658C-51.4922 782.378 -183.338 913.648 -26.8611 1022.86" stroke="black" stroke-width="0.25" stroke-miterlimit="10"/>
<path d="M261.967 729.28C-63.507 783.045 -197.98 916.93 -38.3915 1028.32" stroke="black" stroke-width="0.25" stroke-miterlimit="10"/>
<path d="M257.813 727.242C257.431 726.969 257.064 726.668 256.712 726.34C-74.6778 781.088 -211.595 917.408 -49.0998 1030.83C-48.5127 1030.78 -47.7568 1030.7 -46.854 1030.55C-208.754 917.642 -72.3365 781.782 257.813 727.242Z" stroke="black" stroke-width="0.25" stroke-miterlimit="10"/>
<path d="M-46.8541 1030.58C-145.76 961.553 -133.32 884.002 -33.3789 821.662C-27.1624 822.834 -13.9294 823.466 -1.2689 815.567C-41.3348 840.561 -66.5238 868.142 -75.1109 896.598C-86.7586 935.215 -67.8228 975.447 -14.0028 1013.02C138.988 1119.8 515.956 1164.58 827.969 1113.03C1071.04 1072.88 1203.01 986.105 1177.09 899.231C1169.75 874.589 1149.71 849.947 1115.9 826.351C1128.83 834.466 1142.32 834.123 1148.72 833.077C1310.6 946.062 1174.2 1081.88 844.05 1136.42C513.9 1190.96 115.032 1143.58 -46.8541 1030.58Z" stroke="black" stroke-width="0.25" stroke-miterlimit="10"/>
</g>
<mask id="mask12_61_2" style="mask-type:luminance" maskUnits="userSpaceOnUse" x="-256" y="-36" width="1615" height="1197">
<path d="M771.903 236.629C1019.34 195.757 1121.57 93.9705 1000.24 9.28786C1031.4 21.3429 1058.81 36.2019 1082.97 53.0627C1092.2 59.5275 1104.34 68.5169 1113.27 75.6039C1129.51 88.4433 1150.12 107.495 1165.45 121.921C1173.42 129.937 1183.84 140.937 1191.42 149.512C1197.75 156.725 1205.82 166.733 1212 174.118C1218.17 181.944 1226.18 192.62 1232 200.843C1237.13 208.146 1243.67 218.253 1248.67 225.71C1253.49 233.311 1259.73 243.626 1264.25 251.506C1268.39 258.719 1273.59 268.637 1277.59 276.013C1281.35 283.298 1286.21 293.144 1289.72 300.619C1293 307.616 1297.11 317.128 1300.28 324.206C1303.21 331.058 1306.96 340.291 1309.69 347.261C1312.25 353.852 1315.47 362.76 1317.95 369.396C1320.2 375.708 1323.09 384.102 1325.2 390.459C1327.19 396.464 1329.7 404.552 1331.63 410.584C1333.34 416.12 1335.56 423.531 1337.19 429.103C1338.72 434.333 1340.69 441.339 1342.19 446.586C1345.96 460.923 1349.85 480.452 1352.8 495.068C1354.62 506.726 1356.47 522.406 1357.43 534.226C1358.27 544.983 1358.51 559.409 1358.98 570.193C1359.08 581.599 1358.73 596.819 1358.12 608.197C1357.55 618.882 1356.06 633.056 1355.18 643.704C1353.95 654.722 1351.92 669.365 1350.12 680.266C1348.42 690.59 1345.56 704.196 1343.6 714.447C1341.33 724.915 1338.01 738.792 1335.28 749.08C1332.71 758.781 1328.8 771.522 1326.02 781.133C1322.95 790.907 1318.6 803.801 1315.14 813.367C1311.92 822.221 1307.22 833.789 1303.83 842.544C1300.09 851.561 1294.87 863.426 1290.75 872.172C1287.08 880.017 1281.74 890.205 1277.88 897.905C1273.3 906.444 1266.96 917.642 1261.93 925.784C1257.75 932.565 1251.77 941.22 1247.42 947.829C1239.87 958.081 1229.5 971.489 1221.12 980.712C1215.74 986.627 1208.11 993.859 1202.53 999.494C1189.63 1010.37 1172.09 1024.39 1158.24 1033.33C1149.93 1038.7 1138.62 1045.31 1130.04 1049.98C1110.7 1060.53 1084.18 1072.52 1064.05 1080.52C1028.09 1094.8 987.22 1107.57 942.677 1118.38C914.428 1125.26 876.446 1132.32 847.998 1137.54C832.784 1140.06 812.468 1143.06 797.202 1145.08C781.789 1147.13 761.144 1149.28 745.694 1151.09C730.09 1152.67 709.268 1154.46 693.643 1155.6C678.017 1156.73 656.99 1157.72 641.283 1158.63C625.555 1159.33 604.586 1159.97 588.828 1160.23C573.071 1160.49 552.197 1160.37 536.498 1160.42C520.902 1160.27 500.102 1159.79 484.513 1159.23C469.1 1158.67 448.55 1157.43 433.1 1156.68C417.901 1155.72 397.636 1154.17 382.458 1152.8C367.567 1151.45 347.736 1149.19 332.851 1147.62C318.304 1145.89 298.928 1143.32 284.411 1141.15C270.312 1139.05 251.567 1135.74 237.49 1133.43C223.839 1130.96 205.674 1127.38 192.081 1124.42C179.039 1121.6 161.725 1117.3 148.712 1114.25C136.169 1111.05 119.501 1106.48 107.061 1102.76C95.3179 1099.24 79.7657 1093.95 68.0666 1090.14C56.7639 1086.19 41.7694 1080.56 30.6355 1075.97C20.3603 1071.76 6.92914 1065.44 -3.22863 1060.92C-13.5038 1055.92 -27.0891 1048.83 -37.0781 1043C-45.6432 1037.99 -56.7331 1030.49 -65.1587 1025.14C-72.9018 1019.73 -83.0156 1011.95 -90.3477 1005.71C-103.5 994.499 -119.522 976.998 -131.316 963.699C-137.078 956.431 -144.527 946.414 -149.768 938.606C-154.45 931.663 -160.219 921.952 -164.703 914.82C-169.203 907.093 -174.979 896.571 -179.089 888.528C-183.125 880.648 -188.087 869.837 -191.94 861.822C-195.852 853.148 -200.843 841.408 -204.417 832.482C-207.991 823.556 -212.168 811.663 -215.492 802.728C-218.824 793.107 -223.023 780.141 -225.944 770.268C-228.806 760.657 -232.16 747.628 -234.817 737.926C-237.423 727.494 -240.608 713.465 -242.729 702.87C-244.769 692.664 -246.934 678.895 -248.74 668.608C-250.391 657.499 -252.248 642.604 -253.298 631.379C-254.281 620.811 -254.927 606.638 -255.624 596.034C-256.035 584.313 -256.145 568.687 -255.771 556.975C-255.426 546.281 -254.156 532.089 -253.467 521.423C-252.05 508.259 -249.628 490.767 -247.089 477.873C-245.019 467.324 -241.29 453.574 -238.802 443.169C-237.334 437.894 -235.279 430.871 -233.723 425.623C-232.079 420.078 -229.804 412.72 -228.123 407.193C-226.208 401.062 -223.58 392.911 -221.518 386.843C-219.412 380.532 -216.446 372.264 -214.274 366.024C-211.801 359.19 -208.402 350.137 -205.738 343.402C-203.074 336.667 -199.235 327.623 -196.446 320.861C-193.246 313.44 -188.828 303.639 -185.379 296.381C-181.929 289.123 -177.114 279.791 -173.577 272.677C-169.43 264.76 -163.713 254.346 -159.258 246.682C-154.957 239.271 -148.894 229.686 -144.454 222.41C-139.052 214.034 -131.639 203.07 -125.885 195.072C-120.535 187.633 -113.041 178.121 -107.537 170.854C-100.41 162.009 -90.6559 150.486 -83.133 142.172C-76.5715 134.959 -67.4487 125.78 -60.7258 118.73C-51.0157 109.289 -37.8414 97.0902 -27.6984 88.3803C-19.7791 81.6359 -8.88731 73.2506 -0.828621 66.7407C13.2778 56.4169 32.2795 42.9823 46.8777 33.8216C56.1547 28.015 68.7858 20.928 78.1729 15.4009C91.2591 8.32302 108.837 -0.729455 122.21 -6.96885C132.287 -11.6754 145.835 -17.5813 156.066 -21.7649C166.408 -26.0026 179.853 -35.0281 190.752 -35.0281C50.8703 14.8149 9.66675 91.2023 104.213 157.185C225.519 242.003 524.454 277.473 771.903 236.629ZM520.696 1095.19L603.471 1094.46L679.551 1082.43L749.452 1059.51L813.305 1025.51L870.655 980.352L920.277 924.63L959.749 859.991L987.117 789.032L1000.42 715.169L1003.17 663.396L997.517 616.511L982.435 567.749L958.215 519.268L925.473 473.284L885.275 431.655L838.919 396.04L803.778 376.456L769.129 360.127L735.25 346.81L702.259 336.252L670.208 328.218L639.052 322.448L608.74 318.724L579.192 316.821L550.363 316.524L522.245 317.633L494.876 319.941L468.374 323.268L442.884 327.425L418.664 332.258L395.912 337.613L374.972 343.33L329.38 359.983L287.471 381.623L249.38 407.527L215.42 436.867L185.945 468.704L161.153 501.983L141.072 535.606L125.512 568.462L114.085 599.524L106.276 627.889L101.454 652.838L98.9656 673.864L98.1289 690.635L97.2628 711.824L97.3436 726.602L97.6005 732.354L104.206 772.622L116.015 811.735L132.323 849.18L152.492 884.561L175.919 917.516L202.048 947.802L230.371 975.239L260.411 999.746L291.772 1021.29L324.066 1039.89L356.969 1055.62L390.165 1068.6L423.383 1078.93L456.366 1086.75L488.88 1092.16L520.682 1095.23" fill="white"/>
</mask>
<g mask="url(#mask12_61_2)">
<path d="M256.712 726.376C231.948 704.25 177.981 402.342 202.062 226.864C-191.662 291.909 -354.333 453.872 -161.24 588.614C-210.047 788.779 -99.5884 1034.4 -49.0711 1030.89C-211.595 917.444 -74.6784 781.124 256.712 726.376Z" stroke="black" stroke-width="0.25" stroke-miterlimit="10"/>
<path d="M226.187 626.032C-139.72 686.487 -290.89 837.017 -111.478 962.229" stroke="black" stroke-width="0.25" stroke-miterlimit="10"/>
<path d="M200.051 429.437C-195.625 494.797 -359.096 657.554 -165.085 792.981" stroke="black" stroke-width="0.25" stroke-miterlimit="10"/>
<path d="M-49.1002 1030.86C-99.6101 1034.37 -210.076 788.716 -161.269 588.587C31.7583 723.338 507.471 779.844 901.194 714.817C924.681 923.53 869.928 1149.55 845.151 1137.11C513.761 1191.83 113.395 1144.28 -49.1002 1030.86Z" stroke="black" stroke-width="0.25" stroke-miterlimit="10"/>
<path d="M-165.107 792.981C28.9104 928.39 506.942 985.176 902.611 919.806" stroke="black" stroke-width="0.25" stroke-miterlimit="10"/>
<path d="M181.321 1120.97C150.209 1132.06 82.3193 903.063 112.492 695.648" stroke="black" stroke-width="0.25" stroke-miterlimit="10"/>
<path d="M202.062 226.837C215.325 130.163 241.49 -31.2232 332.528 -70.03C85.0863 -29.1584 -17.1446 72.6285 104.191 157.32C-81.3206 290.187 -134.385 478.36 -161.269 588.587C-354.333 453.845 -191.662 291.9 202.062 226.837Z" stroke="black" stroke-width="0.25" stroke-miterlimit="10"/>
<path d="M221.548 115.529C-150.436 176.985 -304.124 330.003 -121.724 457.316" stroke="black" stroke-width="0.25" stroke-miterlimit="10"/>
<path d="M261.189 2.69678C-66.3917 56.7956 -201.731 191.574 -41.1074 303.684" stroke="black" stroke-width="0.25" stroke-miterlimit="10"/>
<path d="M-110.025 319.589C-85.0708 219.444 -35.7866 51.1873 136.396 -11.7386" stroke="black" stroke-width="0.25" stroke-miterlimit="10"/>
<path d="M-240.373 449.363C-210.524 344.358 -151.566 166.49 54.4739 69.8243" stroke="black" stroke-width="0.25" stroke-miterlimit="10"/>
<path d="M-161.269 588.587C-134.385 478.36 -81.3206 290.142 104.191 157.32C225.519 242.003 524.461 277.51 771.903 236.665C862.633 402.351 888.247 599.875 901.194 714.835C507.471 779.844 31.7873 723.338 -161.269 588.587Z" stroke="black" stroke-width="0.25" stroke-miterlimit="10"/>
<path d="M-121.724 457.316C60.6754 584.619 510.098 638.006 882.082 576.55" stroke="black" stroke-width="0.25" stroke-miterlimit="10"/>
<path d="M-41.1074 303.684C119.516 415.795 515.287 462.807 842.868 408.69" stroke="black" stroke-width="0.25" stroke-miterlimit="10"/>
<path d="M112.492 695.648C129.116 581.41 161.908 385.301 276.234 224.601" stroke="black" stroke-width="0.25" stroke-miterlimit="10"/>
<path d="M520.696 1095.19L603.471 1094.46L679.551 1082.43L749.452 1059.51L813.305 1025.51L870.655 980.352L920.277 924.63L959.749 859.991L987.117 789.032L1000.42 715.169L1003.17 663.396L997.517 616.511L982.435 567.749L958.215 519.268L925.473 473.284L885.275 431.655L838.919 396.04L803.778 376.456L769.129 360.127L735.25 346.81L702.259 336.252L670.208 328.218L639.052 322.448L608.74 318.724L579.192 316.821L550.363 316.524L522.245 317.633L494.876 319.941L468.374 323.268L442.884 327.425L418.664 332.258L395.912 337.613L374.972 343.33L329.38 359.983L287.471 381.623L249.38 407.527L215.42 436.867L185.945 468.704L161.153 501.983L141.072 535.606L125.512 568.462L114.085 599.524L106.276 627.889L101.454 652.838L98.9656 673.864L98.1289 690.635L97.2628 711.824L97.3436 726.602L97.6005 732.354L104.206 772.622L116.015 811.735L132.323 849.18L152.492 884.561L175.919 917.516L202.048 947.802L230.371 975.239L260.411 999.746L291.772 1021.29L324.066 1039.89L356.969 1055.62L390.165 1068.6L423.383 1078.93L456.366 1086.75L488.88 1092.16L520.682 1095.23M771.903 236.629C1019.34 195.757 1121.57 93.9705 1000.24 9.28786C1031.4 21.3429 1058.81 36.2019 1082.97 53.0627C1092.2 59.5275 1104.34 68.5169 1113.27 75.6039C1129.51 88.4433 1150.12 107.495 1165.45 121.921C1173.42 129.937 1183.84 140.937 1191.42 149.512C1197.75 156.725 1205.82 166.733 1212 174.118C1218.17 181.944 1226.18 192.62 1232 200.843C1237.13 208.146 1243.67 218.253 1248.67 225.71C1253.49 233.311 1259.73 243.626 1264.25 251.506C1268.39 258.719 1273.59 268.637 1277.59 276.013C1281.35 283.298 1286.21 293.144 1289.72 300.619C1293 307.616 1297.11 317.128 1300.28 324.206C1303.21 331.058 1306.96 340.291 1309.69 347.261C1312.25 353.852 1315.47 362.76 1317.95 369.396C1320.2 375.708 1323.09 384.102 1325.2 390.459C1327.19 396.464 1329.7 404.552 1331.63 410.584C1333.34 416.12 1335.56 423.531 1337.19 429.103C1338.72 434.333 1340.69 441.339 1342.19 446.586C1345.96 460.923 1349.85 480.452 1352.8 495.068C1354.62 506.726 1356.47 522.406 1357.43 534.226C1358.27 544.983 1358.51 559.409 1358.98 570.193C1359.08 581.599 1358.73 596.819 1358.12 608.197C1357.55 618.882 1356.06 633.056 1355.18 643.704C1353.95 654.722 1351.92 669.365 1350.12 680.266C1348.42 690.59 1345.56 704.196 1343.6 714.447C1341.33 724.915 1338.01 738.792 1335.28 749.08C1332.71 758.781 1328.8 771.522 1326.02 781.133C1322.95 790.907 1318.6 803.801 1315.14 813.367C1311.92 822.221 1307.22 833.789 1303.83 842.544C1300.09 851.561 1294.87 863.426 1290.75 872.172C1287.08 880.017 1281.74 890.205 1277.88 897.905C1273.3 906.444 1266.96 917.642 1261.93 925.784C1257.75 932.565 1251.77 941.22 1247.42 947.829C1239.87 958.081 1229.5 971.489 1221.12 980.712C1215.74 986.627 1208.11 993.859 1202.53 999.494C1189.63 1010.37 1172.09 1024.39 1158.24 1033.33C1149.93 1038.7 1138.62 1045.31 1130.04 1049.98C1110.7 1060.53 1084.18 1072.52 1064.05 1080.52C1028.09 1094.8 987.22 1107.57 942.677 1118.38C914.428 1125.26 876.446 1132.32 847.998 1137.54C832.784 1140.06 812.468 1143.06 797.202 1145.08C781.789 1147.13 761.144 1149.28 745.694 1151.09C730.09 1152.67 709.268 1154.46 693.643 1155.6C678.017 1156.73 656.99 1157.72 641.283 1158.63C625.555 1159.33 604.586 1159.97 588.828 1160.23C573.071 1160.49 552.197 1160.37 536.498 1160.42C520.902 1160.27 500.102 1159.79 484.513 1159.23C469.1 1158.67 448.55 1157.43 433.1 1156.68C417.901 1155.72 397.636 1154.17 382.458 1152.8C367.567 1151.45 347.736 1149.19 332.851 1147.62C318.304 1145.89 298.928 1143.32 284.411 1141.15C270.312 1139.05 251.567 1135.74 237.49 1133.43C223.839 1130.96 205.674 1127.38 192.081 1124.42C179.039 1121.6 161.725 1117.3 148.712 1114.25C136.169 1111.05 119.501 1106.48 107.061 1102.76C95.3179 1099.24 79.7657 1093.95 68.0666 1090.14C56.7639 1086.19 41.7694 1080.56 30.6355 1075.97C20.3603 1071.76 6.92914 1065.44 -3.22863 1060.92C-13.5038 1055.92 -27.0891 1048.83 -37.0781 1043C-45.6432 1037.99 -56.7331 1030.49 -65.1587 1025.14C-72.9018 1019.73 -83.0156 1011.95 -90.3477 1005.71C-103.5 994.499 -119.522 976.998 -131.316 963.699C-137.078 956.431 -144.527 946.414 -149.768 938.606C-154.45 931.663 -160.219 921.952 -164.703 914.82C-169.203 907.093 -174.979 896.571 -179.089 888.528C-183.125 880.648 -188.087 869.837 -191.94 861.822C-195.852 853.148 -200.843 841.408 -204.417 832.482C-207.991 823.556 -212.168 811.663 -215.492 802.728C-218.824 793.107 -223.023 780.141 -225.944 770.268C-228.806 760.657 -232.16 747.628 -234.817 737.926C-237.423 727.494 -240.608 713.465 -242.729 702.87C-244.769 692.664 -246.934 678.895 -248.74 668.608C-250.391 657.499 -252.248 642.604 -253.298 631.379C-254.281 620.811 -254.927 606.638 -255.624 596.034C-256.035 584.313 -256.145 568.687 -255.771 556.975C-255.426 546.281 -254.156 532.089 -253.467 521.423C-252.05 508.259 -249.628 490.767 -247.089 477.873C-245.019 467.324 -241.29 453.574 -238.802 443.169C-237.334 437.894 -235.279 430.871 -233.723 425.623C-232.079 420.078 -229.804 412.72 -228.123 407.193C-226.208 401.062 -223.58 392.911 -221.518 386.843C-219.412 380.532 -216.446 372.264 -214.274 366.024C-211.801 359.19 -208.402 350.137 -205.738 343.402C-203.074 336.667 -199.235 327.623 -196.446 320.861C-193.246 313.44 -188.828 303.639 -185.379 296.381C-181.929 289.123 -177.114 279.791 -173.577 272.677C-169.43 264.76 -163.713 254.346 -159.258 246.682C-154.957 239.271 -148.894 229.686 -144.454 222.41C-139.052 214.034 -131.639 203.07 -125.885 195.072C-120.535 187.633 -113.041 178.121 -107.537 170.854C-100.41 162.009 -90.6559 150.486 -83.133 142.172C-76.5715 134.959 -67.4487 125.78 -60.7258 118.73C-51.0157 109.289 -37.8414 97.0902 -27.6984 88.3803C-19.7791 81.6359 -8.88731 73.2506 -0.828621 66.7407C13.2778 56.4169 32.2795 42.9823 46.8777 33.8216C56.1547 28.015 68.7858 20.928 78.1729 15.4009C91.2591 8.32302 108.837 -0.729455 122.21 -6.96885C132.287 -11.6754 145.835 -17.5813 156.066 -21.7649C166.408 -26.0026 179.853 -35.0281 190.752 -35.0281C50.8703 14.8149 9.66675 91.2023 104.213 157.185C225.519 242.003 524.454 277.473 771.903 236.629Z" stroke="black" stroke-width="0.25" stroke-miterlimit="10"/>
</g>
<mask id="mask13_61_2" style="mask-type:luminance" maskUnits="userSpaceOnUse" x="-256" y="-88" width="1615" height="1249">
<path d="M1212 174.1C1217.49 181.403 1224.97 190.979 1230.32 198.444C1236.01 206.424 1243.34 217.379 1248.67 225.683C1253.07 232.986 1259.13 242.607 1263.41 250.027C1267.81 257.682 1273.48 268.06 1277.58 275.977C1281.1 283.1 1285.91 292.513 1289.33 299.726C1292.74 306.939 1297.11 316.758 1300.28 324.17C1303.05 330.95 1306.83 339.922 1309.5 346.711C1312.17 353.5 1315.51 362.499 1317.96 369.324C1320.11 375.582 1323.04 383.877 1325.13 390.161C1327.15 396.238 1329.74 404.38 1331.64 410.512C1333.3 416.048 1335.55 423.414 1337.18 428.959C1338.72 434.216 1340.72 441.24 1342.2 446.514C1345.6 460.941 1350.21 480.281 1352.8 494.996C1354.1 505.617 1356.21 519.728 1357.13 530.412C1358.15 542.278 1358.83 558.192 1358.99 570.085C1358.77 580.751 1358.79 594.979 1358.26 605.628C1357.69 617.052 1356.42 632.253 1355.18 643.596C1353.74 654.028 1352.09 667.995 1350.4 678.364C1348.64 689.183 1345.89 703.61 1343.59 714.339C1341.22 724.257 1338.25 737.638 1335.66 747.502C1332.99 757.654 1329.11 771.071 1326.01 781.025C1322.9 790.276 1318.94 802.664 1315.64 811.843C1312.33 821.022 1307.56 833.375 1303.82 842.436C1300.15 850.803 1295.42 862.083 1291.56 870.324C1287.65 878.709 1282.16 889.7 1277.87 897.797C1273.66 905.227 1268.23 915.298 1263.83 922.565C1259.12 930.32 1252.54 940.382 1247.41 947.721C1242.27 954.394 1235.7 963.554 1230.38 969.956C1222.49 979.414 1211.18 991.009 1202.52 999.386C1195.98 1004.8 1187.45 1012.45 1180.73 1017.55C1165.32 1029.28 1143.59 1042.61 1126.98 1051.52C1107.44 1062 1080.67 1073.93 1060.36 1081.86C1037.05 1090.96 1005.52 1101.27 981.694 1108.01C968.673 1111.7 951.228 1116.21 938.105 1119.35C911.206 1125.79 875.059 1132.49 847.955 1137.38C832.733 1139.65 812.454 1142.9 797.21 1144.91C781.797 1146.96 761.136 1149.36 745.65 1150.93C730.039 1152.28 709.239 1154.3 693.614 1155.43C677.988 1156.57 656.961 1157.78 641.24 1158.47C625.504 1158.95 604.542 1159.81 588.784 1160.07C573.027 1160.33 552.154 1160.41 536.454 1160.26C520.858 1159.9 500.066 1159.63 484.469 1159.07C469.056 1158.51 448.506 1157.49 433.057 1156.52C417.871 1155.35 397.607 1154.01 382.414 1152.64C367.515 1151.29 347.662 1149.22 332.785 1147.45C318.268 1145.52 298.892 1143.15 284.396 1141C270.283 1138.89 251.494 1135.81 237.424 1133.27C223.846 1130.57 205.696 1127.24 192.147 1124.31C179.061 1121.49 161.652 1117.42 148.646 1114.11C136.243 1110.69 119.656 1106.41 107.303 1102.72C95.4648 1099.18 79.729 1094.13 68.0006 1090.04C56.9914 1085.89 42.3126 1080.69 31.3842 1076.22C20.8888 1071.91 6.99531 1065.78 -3.30924 1060.82C-12.6597 1055.91 -25.2689 1049.74 -34.4872 1044.44C-43.8817 1039.03 -56.1972 1031.29 -65.2394 1025.04C-79.2723 1014.27 -97.9879 999.692 -110.744 986.736C-117.203 980.181 -125.474 970.903 -131.39 963.599C-136.058 957.342 -142.465 949.173 -146.949 942.735C-152.579 934.621 -159.661 923.341 -164.777 914.721C-168.791 907.409 -174.318 897.806 -178.164 890.377C-182.567 881.937 -188.05 870.459 -192.013 861.731C-195.58 853.355 -200.505 842.292 -203.896 833.78C-207.566 824.547 -212.226 812.078 -215.529 802.628C-218.538 793.305 -222.758 780.989 -225.577 771.576C-228.578 761.558 -232.292 748.07 -234.854 737.872C-237.136 727.828 -240.402 714.511 -242.443 704.394C-244.6 693.719 -247.132 679.382 -248.777 668.563C-250.083 658.031 -252.109 644.029 -253.129 633.453C-254.215 622.254 -255.228 607.305 -255.661 595.989C-255.734 585.223 -256.175 570.851 -255.896 560.086C-255.595 548.445 -254.619 532.946 -253.503 521.378C-252.035 510.639 -250.472 496.222 -248.571 485.592C-246.266 472.662 -242.274 455.666 -238.839 443.124C-237.32 437.876 -235.331 430.871 -233.775 425.65C-232.123 420.078 -229.885 412.675 -228.16 407.148C-226.208 401.116 -223.676 393.038 -221.657 387.033C-219.529 380.676 -216.608 372.255 -214.318 365.979C-211.815 359.343 -208.571 350.444 -205.98 343.862C-203.228 336.883 -199.441 327.632 -196.49 320.816C-193.298 313.747 -189.151 304.243 -185.856 297.256C-182.318 289.772 -177.415 279.926 -173.621 272.632C-169.591 265.301 -164.366 255.401 -160.204 248.188C-155.646 240.299 -149.357 229.966 -144.498 222.365C-139.478 214.935 -132.946 204.873 -127.771 197.606C-121.9 189.356 -113.826 178.671 -107.588 170.809C-101.423 163.487 -93.3568 153.524 -87.0375 146.41C-79.3752 137.8 -68.8357 126.763 -60.777 118.712C-53.3422 111.76 -43.5807 102.248 -35.9991 95.5483C-25.7239 86.4507 -11.5735 75.0449 -0.850554 66.6956C7.85401 60.4743 19.3329 51.8996 28.1622 45.9578C42.8411 36.0397 63.0024 24.1019 78.1804 15.374C97.7473 5.21244 123.942 -8.13203 144 -16.7428C157.894 -22.7026 176.646 -29.8977 190.753 -35.0551C230.385 -49.1749 277.93 -61.2029 332.55 -70.2193C533.247 -103.373 767.83 -86.2776 914.039 -33.4502C924.975 -33.4502 938.457 -24.2714 948.82 -19.9255C960.784 -14.9664 976.607 -7.85243 988.38 -2.22616C998.398 2.93126 1011.87 9.4952 1021.77 14.9682C1040.55 25.292 1064.86 40.9716 1082.99 52.9185C1202.4 136.267 1242.46 268.565 1264.55 352.896C1312.78 536.994 1201.51 819.282 1150.98 832.464C1150.4 832.617 1149.64 832.78 1148.74 832.933C1144.53 829.987 1140.15 827.09 1135.62 824.241C966.141 717.54 579.39 673.972 257.828 727.097C129.388 748.313 30.3053 781.836 -33.3643 821.518C-133.305 883.858 -145.746 961.408 -46.8394 1030.44C115.046 1143.43 513.893 1190.81 844.065 1136.27C1174.24 1081.73 1310.62 945.918 1148.73 832.933C1149.63 832.78 1150.39 832.617 1150.98 832.464C1201.5 819.282 1312.77 536.994 1264.54 352.896C1242.45 268.565 1202.4 136.267 1082.99 52.9185C1087.48 63.9636 1103.23 67.5252 1111.7 74.1794C1119.96 80.6712 1130.78 89.6877 1138.76 96.7205C1146.94 103.934 1157.63 113.978 1165.47 121.768C1172.21 128.873 1181.36 138.124 1187.95 145.445C1195.37 153.849 1205.08 165.173 1212 174.1Z" fill="white"/>
</mask>
<g mask="url(#mask13_61_2)">
<path d="M1115.9 826.351C1128.83 834.466 1142.32 834.123 1148.72 833.077C986.831 720.083 587.985 672.701 257.813 727.242C260.932 729.424 267.567 732.192 273.96 726.34C585.944 674.784 962.912 719.569 1115.9 826.351Z" stroke="black" stroke-width="0.25" stroke-miterlimit="10"/>
<path d="M273.931 726.331C267.567 732.192 260.932 729.424 257.784 727.233C-72.3365 781.782 -208.754 917.643 -46.854 1030.58C-40.4907 1029.54 -26.9568 1025.43 -14.0027 1013.02C-167 906.228 -38.0833 777.887 273.931 726.331Z" stroke="black" stroke-width="0.25" stroke-miterlimit="10"/>
<path d="M26.6067 799.842C14.5847 807.38 2.01955 806.37 -3.88135 805.018" stroke="black" stroke-width="0.25" stroke-miterlimit="10"/>
<path d="M1148.72 833.077C1149.62 832.924 1150.38 832.762 1150.96 832.608C988.475 719.19 588.102 671.637 256.712 726.376C257.064 726.704 257.431 727.005 257.813 727.278C587.962 672.701 986.839 720.083 1148.72 833.077Z" stroke="black" stroke-width="0.25" stroke-miterlimit="10"/>
<path d="M1149.57 832.888C987.455 719.731 588.014 672.287 257.395 726.899" stroke="black" stroke-width="0.25" stroke-miterlimit="10"/>
<path d="M1150.32 832.762C987.998 719.47 588.058 671.962 257.028 726.647" stroke="black" stroke-width="0.25" stroke-miterlimit="10"/>
<path d="M257.813 727.242C257.431 726.969 257.064 726.668 256.712 726.34C-74.6778 781.088 -211.595 917.408 -49.0998 1030.83C-48.5127 1030.78 -47.7568 1030.7 -46.854 1030.55C-208.754 917.643 -72.3365 781.783 257.813 727.242Z" stroke="black" stroke-width="0.25" stroke-miterlimit="10"/>
<path d="M257.395 726.935C-73.2245 781.557 -209.819 917.561 -47.7052 1030.71" stroke="black" stroke-width="0.25" stroke-miterlimit="10"/>
<path d="M257.028 726.647C-73.9803 781.341 -210.78 917.516 -48.4538 1030.81" stroke="black" stroke-width="0.25" stroke-miterlimit="10"/>
<path d="M1150.96 832.608C1201.49 819.426 1312.75 537.139 1264.53 353.041C1071.5 218.299 595.786 161.792 202.063 226.81C177.982 402.316 231.949 704.223 256.712 726.322C588.102 671.637 988.475 719.19 1150.96 832.608Z" stroke="black" stroke-width="0.25" stroke-miterlimit="10"/>
<path d="M1213.58 743.327C1034.16 618.097 592.087 565.586 226.188 626.032" stroke="black" stroke-width="0.25" stroke-miterlimit="10"/>
<path d="M1267.75 556.263C1073.73 420.835 595.698 364.032 200.052 429.437" stroke="black" stroke-width="0.25" stroke-miterlimit="10"/>
<path d="M256.712 726.376C231.949 704.25 177.982 402.343 202.063 226.864C-191.661 291.909 -354.332 453.872 -161.239 588.614C-210.046 788.779 -99.5879 1034.4 -49.0706 1030.89C-211.595 917.444 -74.6779 781.124 256.712 726.376Z" stroke="black" stroke-width="0.25" stroke-miterlimit="10"/>
<path d="M226.188 626.032C-139.72 686.487 -290.89 837.017 -111.477 962.229" stroke="black" stroke-width="0.25" stroke-miterlimit="10"/>
<path d="M200.052 429.437C-195.624 494.797 -359.095 657.554 -165.085 792.981" stroke="black" stroke-width="0.25" stroke-miterlimit="10"/>
<path d="M-49.0997 1030.86C-99.6097 1034.37 -210.075 788.716 -161.268 588.587C31.7587 723.338 507.471 779.844 901.195 714.817C924.681 923.53 869.929 1149.55 845.151 1137.11C513.761 1191.83 113.395 1144.28 -49.0997 1030.86Z" stroke="black" stroke-width="0.25" stroke-miterlimit="10"/>
<path d="M-165.107 792.981C28.9109 928.39 506.943 985.176 902.611 919.806" stroke="black" stroke-width="0.25" stroke-miterlimit="10"/>
<path d="M181.321 1120.97C150.21 1132.06 82.3198 903.063 112.492 695.648" stroke="black" stroke-width="0.25" stroke-miterlimit="10"/>
<path d="M1264.53 353.041C1237.96 251.642 1185.44 80.9149 1000.24 9.28809C878.912 -75.3945 579.97 -110.91 332.528 -70.0568C241.519 -31.286 215.325 130.109 202.062 226.81C595.786 161.793 1071.47 218.299 1264.53 353.041Z" stroke="black" stroke-width="0.25" stroke-miterlimit="10"/>
<path d="M1225.37 234.772C1042.97 107.459 593.556 54.0726 221.564 115.529" stroke="black" stroke-width="0.25" stroke-miterlimit="10"/>
<path d="M1145.17 107.712C984.542 -4.39915 588.77 -51.42 261.189 2.69683" stroke="black" stroke-width="0.25" stroke-miterlimit="10"/>
<path d="M202.063 226.837C215.325 130.163 241.49 -31.2231 332.528 -70.03C85.0868 -29.1583 -17.1441 72.6285 104.191 157.32C-81.3201 290.187 -134.384 478.36 -161.269 588.587C-354.332 453.845 -191.661 291.9 202.063 226.837Z" stroke="black" stroke-width="0.25" stroke-miterlimit="10"/>
<path d="M221.549 115.529C-150.435 176.985 -304.123 330.004 -121.724 457.316" stroke="black" stroke-width="0.25" stroke-miterlimit="10"/>
<path d="M261.19 2.69684C-66.3912 56.7956 -201.73 191.574 -41.1069 303.684" stroke="black" stroke-width="0.25" stroke-miterlimit="10"/>
<path d="M-110.024 319.589C-85.0704 219.444 -35.7861 51.1874 136.397 -11.7385" stroke="black" stroke-width="0.25" stroke-miterlimit="10"/>
<path d="M-240.373 449.363C-210.523 344.358 -151.565 166.49 54.4743 69.8244" stroke="black" stroke-width="0.25" stroke-miterlimit="10"/>
<path d="M-161.269 588.587C-134.384 478.36 -81.3201 290.142 104.191 157.32C225.519 242.003 524.462 277.51 771.903 236.665C862.633 402.352 888.248 599.875 901.195 714.835C507.471 779.844 31.7878 723.338 -161.269 588.587Z" stroke="black" stroke-width="0.25" stroke-miterlimit="10"/>
<path d="M-121.724 457.316C60.6759 584.619 510.099 638.006 882.083 576.55" stroke="black" stroke-width="0.25" stroke-miterlimit="10"/>
<path d="M-41.1069 303.684C119.516 415.795 515.288 462.807 842.869 408.69" stroke="black" stroke-width="0.25" stroke-miterlimit="10"/>
<path d="M112.492 695.648C129.116 581.41 161.909 385.301 276.235 224.601" stroke="black" stroke-width="0.25" stroke-miterlimit="10"/>
<path d="M1212 174.1C1217.49 181.403 1224.97 190.979 1230.32 198.444C1236.01 206.424 1243.34 217.379 1248.67 225.683C1253.07 232.986 1259.13 242.607 1263.41 250.027C1267.81 257.682 1273.48 268.06 1277.58 275.977C1281.1 283.1 1285.91 292.513 1289.33 299.726C1292.74 306.939 1297.11 316.758 1300.28 324.17C1303.05 330.95 1306.83 339.922 1309.5 346.711C1312.17 353.5 1315.51 362.499 1317.96 369.324C1320.11 375.582 1323.04 383.877 1325.13 390.161C1327.15 396.238 1329.74 404.38 1331.64 410.512C1333.3 416.048 1335.55 423.414 1337.18 428.959C1338.72 434.216 1340.72 441.24 1342.2 446.514C1345.6 460.941 1350.21 480.281 1352.8 494.996C1354.1 505.617 1356.21 519.728 1357.13 530.412C1358.15 542.278 1358.83 558.192 1358.99 570.085C1358.77 580.751 1358.79 594.979 1358.26 605.628C1357.69 617.052 1356.42 632.253 1355.18 643.596C1353.74 654.028 1352.09 667.995 1350.4 678.364C1348.64 689.183 1345.89 703.61 1343.59 714.339C1341.22 724.257 1338.25 737.638 1335.66 747.502C1332.99 757.654 1329.11 771.071 1326.01 781.025C1322.9 790.276 1318.94 802.664 1315.64 811.843C1312.33 821.022 1307.56 833.375 1303.82 842.436C1300.15 850.803 1295.42 862.083 1291.56 870.324C1287.65 878.709 1282.16 889.7 1277.87 897.797C1273.66 905.227 1268.23 915.298 1263.83 922.565C1259.12 930.32 1252.54 940.382 1247.41 947.721C1242.27 954.394 1235.7 963.554 1230.38 969.956C1222.49 979.414 1211.18 991.009 1202.52 999.386C1195.98 1004.8 1187.45 1012.45 1180.73 1017.55C1165.32 1029.28 1143.59 1042.61 1126.98 1051.52C1107.44 1062 1080.67 1073.93 1060.36 1081.86C1037.05 1090.96 1005.52 1101.27 981.694 1108.01C968.673 1111.7 951.228 1116.21 938.105 1119.35C911.206 1125.79 875.059 1132.49 847.955 1137.38C832.733 1139.65 812.454 1142.9 797.21 1144.91C781.797 1146.96 761.136 1149.36 745.65 1150.93C730.039 1152.28 709.239 1154.3 693.614 1155.43C677.988 1156.57 656.961 1157.78 641.24 1158.47C625.504 1158.95 604.542 1159.81 588.784 1160.07C573.027 1160.33 552.154 1160.41 536.454 1160.26C520.858 1159.9 500.066 1159.63 484.469 1159.07C469.056 1158.51 448.506 1157.49 433.057 1156.52C417.871 1155.35 397.607 1154.01 382.414 1152.64C367.515 1151.29 347.662 1149.22 332.785 1147.45C318.268 1145.52 298.892 1143.15 284.396 1141C270.283 1138.89 251.494 1135.81 237.424 1133.27C223.846 1130.57 205.696 1127.24 192.147 1124.31C179.061 1121.49 161.652 1117.42 148.646 1114.11C136.243 1110.69 119.656 1106.41 107.303 1102.72C95.4648 1099.18 79.729 1094.13 68.0006 1090.04C56.9914 1085.89 42.3126 1080.69 31.3842 1076.22C20.8888 1071.91 6.99531 1065.78 -3.30924 1060.82C-12.6597 1055.91 -25.2689 1049.74 -34.4872 1044.44C-43.8817 1039.03 -56.1972 1031.29 -65.2394 1025.04C-79.2723 1014.27 -97.9879 999.692 -110.744 986.736C-117.203 980.181 -125.474 970.903 -131.39 963.599C-136.058 957.342 -142.465 949.173 -146.949 942.735C-152.579 934.621 -159.661 923.341 -164.777 914.721C-168.791 907.409 -174.318 897.806 -178.164 890.377C-182.567 881.937 -188.05 870.459 -192.013 861.731C-195.58 853.355 -200.505 842.292 -203.896 833.78C-207.566 824.547 -212.226 812.078 -215.529 802.628C-218.538 793.305 -222.758 780.989 -225.577 771.576C-228.578 761.558 -232.292 748.07 -234.854 737.872C-237.136 727.828 -240.402 714.511 -242.443 704.394C-244.6 693.719 -247.132 679.382 -248.777 668.563C-250.083 658.031 -252.109 644.029 -253.129 633.453C-254.215 622.254 -255.228 607.305 -255.661 595.989C-255.734 585.223 -256.175 570.851 -255.896 560.086C-255.595 548.445 -254.619 532.946 -253.503 521.378C-252.035 510.639 -250.472 496.222 -248.571 485.592C-246.266 472.662 -242.274 455.666 -238.839 443.124C-237.32 437.876 -235.331 430.871 -233.775 425.65C-232.123 420.078 -229.885 412.675 -228.16 407.148C-226.208 401.116 -223.676 393.038 -221.657 387.033C-219.529 380.676 -216.608 372.255 -214.318 365.979C-211.815 359.343 -208.571 350.444 -205.98 343.862C-203.228 336.883 -199.441 327.632 -196.49 320.816C-193.298 313.747 -189.151 304.243 -185.856 297.256C-182.318 289.772 -177.415 279.926 -173.621 272.632C-169.591 265.301 -164.366 255.401 -160.204 248.188C-155.646 240.299 -149.357 229.966 -144.498 222.365C-139.478 214.935 -132.946 204.873 -127.771 197.606C-121.9 189.356 -113.826 178.671 -107.588 170.809C-101.423 163.487 -93.3568 153.524 -87.0375 146.41C-79.3752 137.8 -68.8357 126.763 -60.777 118.712C-53.3422 111.76 -43.5807 102.248 -35.9991 95.5483C-25.7239 86.4507 -11.5735 75.0449 -0.850554 66.6956C7.85401 60.4743 19.3329 51.8996 28.1622 45.9578C42.8411 36.0397 63.0024 24.1019 78.1804 15.374C97.7473 5.21244 123.942 -8.13203 144 -16.7428C157.894 -22.7026 176.646 -29.8977 190.753 -35.0551C230.385 -49.1749 277.93 -61.2029 332.55 -70.2193C533.247 -103.373 767.83 -86.2776 914.039 -33.4502C924.975 -33.4502 938.457 -24.2714 948.82 -19.9255C960.784 -14.9664 976.607 -7.85243 988.38 -2.22616C998.398 2.93126 1011.87 9.4952 1021.77 14.9682C1040.55 25.292 1064.86 40.9716 1082.99 52.9185C1202.4 136.267 1242.46 268.565 1264.55 352.896C1312.78 536.994 1201.51 819.282 1150.98 832.464C1150.4 832.617 1149.64 832.78 1148.74 832.933C1144.53 829.987 1140.15 827.09 1135.62 824.241C966.141 717.54 579.39 673.972 257.828 727.097C129.388 748.313 30.3053 781.836 -33.3643 821.518C-133.305 883.858 -145.746 961.408 -46.8394 1030.44C115.046 1143.43 513.893 1190.81 844.065 1136.27C1174.24 1081.73 1310.62 945.918 1148.73 832.933C1149.63 832.78 1150.39 832.617 1150.98 832.464C1201.5 819.282 1312.77 536.994 1264.54 352.896C1242.45 268.565 1202.4 136.267 1082.99 52.9185C1087.48 63.9636 1103.23 67.5252 1111.7 74.1794C1119.96 80.6712 1130.78 89.6877 1138.76 96.7205C1146.94 103.934 1157.63 113.978 1165.47 121.768C1172.21 128.873 1181.36 138.124 1187.95 145.445C1195.37 153.849 1205.08 165.173 1212 174.1Z" stroke="black" stroke-width="0.25" stroke-miterlimit="10"/>
</g>
<mask id="mask14_61_2" style="mask-type:luminance" maskUnits="userSpaceOnUse" x="53" y="-88" width="999" height="342">
<path d="M1000.24 9.2881C996.299 9.44138 921.327 12.3357 830.699 27.321C755.279 -25.3081 569.474 -47.3804 415.676 -21.972C261.879 3.43638 198.334 66.6959 273.747 119.334C349.159 171.972 534.971 194.044 688.769 168.636C842.567 143.228 906.112 79.9592 830.699 27.321C921.319 12.3537 996.284 9.45942 1000.24 9.2881C1121.57 93.9707 1019.32 195.758 771.903 236.629C524.483 277.501 225.519 242.039 104.191 157.284C-17.1371 72.5295 85.1085 -29.1942 332.528 -70.0658C579.948 -110.937 878.949 -75.3945 1000.24 9.2881Z" fill="white"/>
</mask>
<g mask="url(#mask14_61_2)">
<path d="M1000.24 9.28816C996.299 9.44144 921.326 12.3357 830.699 27.3211C755.279 -25.308 569.474 -47.3804 415.676 -21.972C371.243 -52.9886 334.458 -69.1642 332.521 -70.0117C579.969 -110.91 878.948 -75.3945 1000.24 9.28816Z" stroke="black" stroke-width="0.25" stroke-miterlimit="10"/>
<path d="M974.669 10.6945C860.27 -69.1463 578.384 -102.633 345.071 -64.088" stroke="black" stroke-width="0.25" stroke-miterlimit="10"/>
<path d="M332.528 -70.03C334.466 -69.1824 371.251 -53.0069 415.684 -21.9902C261.886 3.40915 198.341 66.6776 273.754 119.316C183.134 134.283 108.132 156.166 104.213 157.32C-17.1445 72.6285 85.0864 -29.1583 332.528 -70.03Z" stroke="black" stroke-width="0.25" stroke-miterlimit="10"/>
<path d="M345.071 -64.088C111.758 -25.5426 15.3616 70.4286 129.769 150.278" stroke="black" stroke-width="0.25" stroke-miterlimit="10"/>
<path d="M374.803 -48.0208C174.973 -15.0025 92.4113 67.2007 190.393 135.591" stroke="black" stroke-width="0.25" stroke-miterlimit="10"/>
<path d="M136.396 -11.7385C140.066 -11.4049 209.665 -4.98514 293.775 14.238" stroke="black" stroke-width="0.25" stroke-miterlimit="10"/>
<path d="M54.4736 69.8244C58.8773 69.4367 142.18 62.2056 242.855 64.9285" stroke="black" stroke-width="0.25" stroke-miterlimit="10"/>
<path d="M104.191 157.32C108.132 156.166 183.134 134.283 273.732 119.316C349.144 171.954 534.957 194.026 688.755 168.618C733.188 199.625 769.943 234.781 771.881 236.629C524.454 277.474 225.519 242.003 104.191 157.32Z" stroke="black" stroke-width="0.25" stroke-miterlimit="10"/>
<path d="M129.769 150.278C244.169 230.128 526.054 263.615 759.367 225.115" stroke="black" stroke-width="0.25" stroke-miterlimit="10"/>
<path d="M190.393 135.563C288.381 203.953 529.812 232.635 729.65 199.625" stroke="black" stroke-width="0.25" stroke-miterlimit="10"/>
<path d="M276.234 224.601C309.973 200.866 344.859 179.68 380.696 161.161" stroke="black" stroke-width="0.25" stroke-miterlimit="10"/>
<path d="M1000.24 9.2881C996.299 9.44138 921.327 12.3357 830.699 27.321M1000.24 9.2881C996.284 9.45942 921.319 12.3537 830.699 27.321M1000.24 9.2881C1121.57 93.9707 1019.32 195.758 771.903 236.629C524.483 277.501 225.519 242.039 104.191 157.284C-17.1371 72.5295 85.1085 -29.1942 332.528 -70.0658C579.948 -110.937 878.949 -75.3945 1000.24 9.2881ZM830.699 27.321C755.279 -25.3081 569.474 -47.3804 415.676 -21.972C261.879 3.43638 198.334 66.6959 273.747 119.334C349.159 171.972 534.971 194.044 688.769 168.636C842.567 143.228 906.112 79.9592 830.699 27.321Z" stroke="black" stroke-width="0.25" stroke-miterlimit="10"/>
</g>
</g>
</g>
<path opacity="0.42" d="M-132 693.642C-62.3272 723.551 11.4204 742.283 86.6515 749.177C249.628 763.968 378.915 718.848 446.896 689C452.931 720.544 458.965 752.091 465 783.641C263.775 777.989 66.3689 840.693 -96.5118 962L-132 693.642Z" fill="#EA6549"/>
<g opacity="0.6" clip-path="url(#clip1_61_2)">
<g style="mix-blend-mode:multiply" opacity="0.59">
<path d="M-131.099 5.17266C-130.644 4.15727 -128.409 -0.263469 -120.155 -5.14628C-99.2225 -17.5057 -58.6594 -22.6992 -58.6594 -22.6992C17.8345 -32.4939 60.5637 -34.6431 60.5637 -34.6431C102.292 -36.7418 176.661 -40.4811 246.543 -45.0436C319.141 -49.7827 339.905 -52.3435 354.421 -58.2456C358.303 -59.8279 370.889 -65.3747 388.964 -65.9436C400.854 -66.3163 410.606 -64.3904 413.427 -63.6682C443.352 -55.9663 448.812 11.5776 373.197 43.4877C331.56 61.058 256.326 89.8753 117.904 85.5652C117.904 85.5652 -110.435 47.3065 -129.533 18.0311C-132.169 13.8396 -132.703 9.45805 -131.099 5.17266Z" fill="#EB6549"/>
</g>
</g>
<circle cx="115.5" cy="313.5" r="13.5" fill="#EA6549" fill-opacity="0.4"/>
<circle cx="315.5" cy="170.5" r="38.5" fill="#EA6549" fill-opacity="0.4"/>
<circle cx="61" cy="278" r="44" fill="#EA6549" fill-opacity="0.4"/>
</g>
<defs>
<clipPath id="clip0_61_2">
<rect width="360" height="930" fill="white"/>
</clipPath>
<clipPath id="clip1_61_2">
<rect width="566" height="152" fill="white" transform="translate(-132 -66)"/>
</clipPath>
</defs>
</svg>
