<svg width="754" height="517" viewBox="0 0 754 517" fill="none" xmlns="http://www.w3.org/2000/svg">
<g clip-path="url(#clip0_37_1217)">
<path d="M169.644 388.308L154.026 330.396L148.106 344.724C145.188 351.416 142.356 358.193 139.525 364.885C139.318 365.198 139.183 365.553 139.127 365.924C139.072 366.295 139.098 366.673 139.205 367.032C139.311 367.392 139.494 367.724 139.742 368.005C139.99 368.287 140.297 368.51 140.64 368.66L166.898 388.222L168.099 389.166L151.71 406.325L133.003 380.586L96.6205 462.435L149.05 474.875V474.36C148.191 473.673 147.333 472.472 146.304 472.301C143.901 472.301 143.215 470.413 142.528 468.612C141.842 466.81 141.413 465.609 140.726 463.721C142.182 463.063 143.762 462.722 145.36 462.722C146.958 462.722 148.537 463.063 149.993 463.721C152.159 465.001 154.124 466.591 155.828 468.44C159.518 472.215 161.234 472.301 164.409 468.44C165.608 466.794 167.149 465.428 168.926 464.436C170.704 463.443 172.676 462.848 174.706 462.692C176.533 462.575 178.364 462.861 180.069 463.528C181.774 464.195 183.311 465.227 184.574 466.553L187.234 469.384C187.617 469.968 188.139 470.448 188.753 470.78C189.367 471.112 190.054 471.285 190.753 471.285C191.451 471.285 192.138 471.112 192.752 470.78C193.366 470.448 193.888 469.968 194.271 469.384L197.36 466.124C199.683 463.94 202.752 462.724 205.941 462.724C209.129 462.724 212.198 463.94 214.521 466.124C215.723 467.153 216.667 468.354 217.782 469.469C218.18 470.019 218.702 470.466 219.306 470.774C219.911 471.083 220.579 471.244 221.257 471.244C221.936 471.244 222.604 471.083 223.208 470.774C223.813 470.466 224.335 470.019 224.733 469.469C225.505 468.612 226.191 467.754 226.964 466.982C228.148 465.574 229.625 464.443 231.293 463.666C232.96 462.89 234.778 462.488 236.617 462.488C238.457 462.488 240.274 462.89 241.941 463.666C243.609 464.443 245.087 465.574 246.271 466.982C251.076 472.472 253.135 472.73 257.855 466.982C258.752 465.815 259.934 464.9 261.287 464.322C262.866 463.936 264.284 463.068 265.346 461.837C266.407 460.607 267.058 459.076 267.208 457.458L376.185 516.142V516.657L365.459 513.311L282.739 487.058C276.733 485.17 270.726 483.368 264.719 481.309C264.182 481.066 263.572 481.038 263.014 481.229C262.456 481.42 261.992 481.817 261.716 482.339C258.37 486.371 254.852 490.318 251.419 494.35C251.2 494.722 250.9 495.04 250.542 495.282C250.185 495.524 249.778 495.684 249.351 495.75C248.924 495.816 248.488 495.786 248.074 495.662C247.66 495.539 247.278 495.325 246.957 495.037C245.354 493.485 243.863 491.822 242.495 490.06C239.234 486.8 237.518 486.714 233.914 490.06L230.053 494.093C232.627 494.093 234.515 494.607 236.403 494.093C239.382 494.117 242.317 494.821 244.984 496.152C248.314 497.517 251.76 498.579 255.281 499.326C258.112 500.099 260.944 500.613 263.861 501.3V501.986L34.1519 495.637L113.782 311.693L40.5875 345.582L154.627 252.237L157.802 265.449C160.634 276.946 163.38 288.443 166.383 299.767C166.722 300.886 166.722 302.08 166.383 303.199C164.409 308.089 162.35 312.894 160.119 317.698C159.697 318.429 159.475 319.257 159.475 320.101C159.475 320.944 159.697 321.772 160.119 322.503C170.359 341.149 180.656 359.824 191.01 378.527C191.045 378.812 191.045 379.1 191.01 379.385L169.644 388.308ZM168.185 479.336C169.725 479.503 171.278 479.503 172.819 479.336C174.622 478.803 176.526 478.704 178.375 479.047C180.225 479.389 181.966 480.165 183.459 481.309C185.989 483.23 188.923 484.551 192.04 485.17C192.904 485.483 193.845 485.51 194.726 485.247C195.606 484.984 196.379 484.446 196.931 483.712C198.095 482.231 199.58 481.033 201.275 480.21C202.969 479.387 204.829 478.959 206.713 478.959C208.597 478.959 210.456 479.387 212.151 480.21C213.845 481.033 215.331 482.231 216.495 483.712C221.3 489.031 222.931 489.46 228.079 483.712C229.254 482.276 230.734 481.119 232.411 480.324C234.087 479.53 235.92 479.117 237.776 479.117C239.631 479.117 241.464 479.53 243.141 480.324C244.818 481.119 246.297 482.276 247.472 483.712C248.502 484.741 249.36 485.856 250.389 486.714C250.72 487.096 251.128 487.402 251.587 487.612C252.046 487.822 252.545 487.93 253.05 487.93C253.554 487.93 254.053 487.822 254.512 487.612C254.971 487.402 255.379 487.096 255.71 486.714C257.683 484.827 259.485 482.768 261.545 480.451C260.257 480.451 258.885 479.679 257.855 480.023C255.438 480.944 252.801 481.126 250.28 480.546C247.758 479.965 245.467 478.648 243.696 476.762L241.036 473.931C240.667 473.382 240.169 472.933 239.586 472.622C239.002 472.312 238.351 472.149 237.69 472.149C237.029 472.149 236.378 472.312 235.794 472.622C235.21 472.933 234.712 473.382 234.343 473.931C233.399 474.961 232.455 476.076 231.512 477.019C230.332 478.271 228.909 479.269 227.331 479.95C225.752 480.632 224.05 480.983 222.33 480.983C220.61 480.983 218.909 480.632 217.33 479.95C215.751 479.269 214.328 478.271 213.149 477.019C211.947 475.904 210.918 474.617 209.716 473.502C209.37 473.072 208.933 472.726 208.435 472.488C207.938 472.25 207.393 472.126 206.842 472.126C206.29 472.126 205.745 472.25 205.248 472.488C204.751 472.726 204.313 473.072 203.967 473.502C203.092 474.345 202.262 475.233 201.479 476.162C200.273 477.665 198.744 478.878 197.007 479.712C195.269 480.545 193.366 480.978 191.439 480.978C189.512 480.978 187.609 480.545 185.871 479.712C184.134 478.878 182.605 477.665 181.399 476.162C180.541 475.304 179.769 474.36 178.911 473.588C178.556 473.172 178.116 472.837 177.62 472.608C177.123 472.379 176.583 472.261 176.036 472.261C175.49 472.261 174.949 472.379 174.453 472.608C173.957 472.837 173.516 473.172 173.162 473.588C171.531 475.132 169.901 477.363 168.185 479.336Z" fill="#122438"/>
<path d="M7.80859 362.398L20.5941 348.156L110.693 247.089C111.187 246.647 111.546 246.074 111.728 245.436C111.91 244.798 111.908 244.123 111.723 243.486C108.548 227.785 105.545 212.085 102.37 196.385C102.2 195.678 102.278 194.935 102.591 194.28C102.903 193.624 103.431 193.095 104.086 192.781C130.944 174.163 157.716 155.461 184.574 136.929C185.387 136.46 186.061 135.784 186.528 134.97C186.995 134.157 187.239 133.234 187.234 132.296C187.921 117.281 188.779 102.182 189.723 87.1674C189.718 86.6303 189.831 86.0986 190.053 85.6095C190.276 85.1205 190.602 84.6863 191.01 84.3366C200.792 76.7866 210.746 69.4078 220.614 61.9437H221.386C221.413 62.315 221.413 62.6878 221.386 63.0591C215.465 71.6386 209.545 80.819 203.71 89.7417C203.133 90.6611 202.919 91.7618 203.109 92.8302C205.426 102.01 207.828 111.19 210.317 120.456C210.485 120.982 210.686 121.498 210.918 122L231.34 110.332C231.984 109.826 232.462 109.139 232.713 108.359C239.292 89.5413 245.813 70.7522 252.277 51.9917C252.583 50.7519 252.583 49.4565 252.277 48.2167L247.644 17.502C247.644 17.502 247.644 17.502 248.073 16.3866L257.683 35.3475L269.954 3.05176e-05H270.554C269.868 3.9466 269.096 7.8932 268.323 11.8398C263.69 37.3494 258.999 62.8877 254.251 88.4545C252.535 97.892 250.819 107.329 248.931 116.767C248.43 118.096 247.492 119.215 246.271 119.941L197.703 151.514L191.01 155.889C193.906 156.489 196.77 157.234 199.591 158.12C205.487 160.133 211.886 160.133 217.782 158.12C227.307 155.46 236.918 153.316 246.785 151.342C246.378 151.738 245.948 152.111 245.498 152.458C233.743 160.351 221.901 167.987 210.317 176.051C207.059 178.033 203.389 179.236 199.591 179.569L158.145 186.69C156.902 186.987 155.788 187.68 154.97 188.663C151.71 192.781 148.706 197.243 145.446 201.275C144.836 201.984 144.414 202.835 144.219 203.749C144.024 204.664 144.062 205.612 144.33 206.508C146.904 218.52 149.393 230.531 151.967 242.542C152.183 243.188 152.173 243.887 151.939 244.526C151.705 245.165 151.261 245.706 150.68 246.06L25.6568 348.499L9.868 361.368L8.06603 362.655L7.80859 362.398Z" fill="#122438"/>
<path d="M282.482 251.293V255.669C282.482 277.976 282.482 300.311 282.482 322.675C282.482 326.192 281.795 326.879 278.191 326.879H264.29C261.373 326.879 260.515 326.021 260.515 323.275C260.515 279.634 260.515 235.965 260.515 192.266C260.515 189.349 261.287 188.663 264.204 188.663C268.581 188.663 272.785 188.663 277.247 188.663C278.44 188.462 279.665 188.735 280.659 189.424C281.653 190.114 282.338 191.165 282.567 192.352C286.515 204.707 291.148 217.061 294.752 229.502C298.442 240.397 302.046 251.379 305.65 262.361C306.007 263.127 306.408 263.872 306.851 264.591C306.851 263.219 306.851 262.618 306.851 262.018C306.851 238.853 306.851 215.774 306.851 192.61C306.851 189.35 307.452 188.663 310.798 188.663H325.386C328.046 188.663 328.904 189.521 328.904 192.266C328.904 235.907 328.904 279.548 328.904 323.189C328.904 326.106 328.132 326.964 325.214 326.964H311.742C310.709 327.141 309.647 326.909 308.782 326.317C307.917 325.724 307.317 324.818 307.109 323.79C302.99 311.178 298.528 298.652 294.666 286.126C290.977 274.973 287.201 263.734 283.511 252.494C283.347 252.05 283.146 251.619 282.911 251.207L282.482 251.293Z" fill="#122438"/>
<path d="M517.082 280.378V323.275C517.082 326.021 516.139 327.05 513.307 327.05H498.891C495.373 327.05 494.601 326.192 494.601 322.761C494.601 299.768 494.601 276.689 494.601 253.696C494.601 233.534 494.601 213.286 494.601 193.125C494.601 189.264 495.115 188.749 498.891 188.749H537.591C541.021 188.476 544.466 189.036 547.633 190.38C550.8 191.724 553.596 193.814 555.782 196.471C559.1 201.212 560.787 206.902 560.587 212.686C560.587 227.356 560.587 242.113 560.587 256.784C560.8 260.262 560.268 263.745 559.024 267.001C557.781 270.256 555.857 273.208 553.38 275.659L552.865 276.174C548.832 277.718 549.261 280.549 550.205 283.981C553.551 296.85 556.554 309.72 559.729 322.761C560.587 326.021 559.729 327.05 556.469 327.05H542.053C541.556 327.11 541.053 327.07 540.572 326.934C540.091 326.798 539.642 326.567 539.251 326.256C538.86 325.945 538.534 325.559 538.294 325.121C538.053 324.683 537.901 324.201 537.848 323.704C534.587 309.977 531.241 296.336 527.894 282.694C527.894 281.236 526.95 280.635 525.406 280.721C523.861 280.807 519.743 280.378 517.082 280.378ZM517.082 257.299C522.66 257.299 527.98 257.299 533.214 257.299C534.007 257.316 534.795 257.163 535.524 256.852C536.254 256.54 536.908 256.077 537.444 255.492C537.98 254.907 538.385 254.215 538.633 253.462C538.88 252.708 538.963 251.91 538.878 251.122C538.878 239.683 538.878 228.443 538.878 217.404C538.878 214.058 537.162 211.656 534.158 211.485C528.495 211.485 522.832 211.485 516.997 211.485L517.082 257.299Z" fill="#122438"/>
<path d="M437.967 269.224V284.153C437.967 289.815 437.967 295.392 437.967 301.312C437.967 303.285 438.568 303.8 440.456 303.8H476.324C479.928 303.8 480.442 304.229 480.442 307.746C480.442 312.808 480.442 317.784 480.442 322.846C480.442 326.106 479.67 326.792 476.495 326.792H420.634C417.202 326.792 416.429 325.935 416.429 322.16C416.429 282.122 416.429 242.256 416.429 202.562C416.429 199.13 416.429 195.698 416.429 192.181C416.429 188.663 417.201 188.491 420.119 188.491H476.753C479.842 188.491 480.357 189.006 480.442 192.181V207.795C480.442 210.969 479.756 211.485 476.581 211.485H440.37C438.139 211.485 437.796 212.256 437.796 214.23C437.796 224.01 437.796 233.791 437.796 243.572C437.796 245.545 438.31 245.888 440.112 245.888H466.456C470.317 245.888 471.003 246.489 471.003 250.349V264.677C471.003 268.624 470.489 269.139 466.456 269.139H439.855L437.967 269.224Z" fill="#122438"/>
<path d="M339.116 348.241V367.459H358.079C361.597 367.459 362.541 368.489 362.627 371.92V375.953C367.003 374.495 371.208 373.293 375.241 371.835C375.756 371.835 376.099 370.291 376.099 369.518C376.099 361.883 376.099 354.247 376.099 346.611C375.868 343.342 376.672 340.083 378.397 337.296C380.122 334.509 382.68 332.334 385.71 331.082C387.621 330.293 389.651 329.829 391.716 329.71C397.637 329.71 403.558 329.71 409.393 329.71C411.469 329.696 413.526 330.104 415.439 330.908C417.353 331.712 419.084 332.895 420.528 334.387C421.971 335.878 423.098 337.647 423.839 339.586C424.579 341.524 424.92 343.593 424.838 345.667C424.838 350.3 424.838 355.019 424.838 359.652C424.893 360.138 424.837 360.631 424.675 361.093C424.514 361.555 424.25 361.975 423.904 362.321C423.557 362.667 423.138 362.93 422.676 363.092C422.214 363.254 421.721 363.31 421.234 363.255H410.508C410.004 363.324 409.49 363.276 409.007 363.116C408.524 362.956 408.083 362.689 407.719 362.333C407.355 361.977 407.077 361.543 406.906 361.064C406.735 360.584 406.676 360.072 406.733 359.566C406.733 357.335 406.733 355.105 406.733 352.788C406.733 348.07 406.733 347.898 401.756 347.898H397.551C397.203 347.857 396.85 347.895 396.519 348.01C396.188 348.124 395.887 348.313 395.639 348.56C395.391 348.808 395.203 349.109 395.088 349.44C394.974 349.771 394.936 350.124 394.977 350.472V365.486L401.241 363.599V364.199L396.779 366.344C396.13 366.54 395.57 366.955 395.194 367.519C394.819 368.082 394.651 368.759 394.72 369.433C394.72 380.071 394.72 390.709 394.72 401.348C394.72 404.694 395.234 405.295 398.667 405.295H403.043C405.531 405.295 406.561 404.18 406.475 401.777C406.389 399.375 406.475 396.63 406.475 394.056C406.475 391.482 407.677 389.852 410.508 389.852H420.891C422.865 389.852 424.581 390.709 424.581 392.769C424.84 399.156 424.581 405.555 423.809 411.901C423.363 414.996 421.833 417.833 419.492 419.907C417.151 421.98 414.15 423.157 411.023 423.226C403.856 423.828 396.652 423.828 389.485 423.226C385.49 422.793 381.826 420.803 379.288 417.688C376.75 414.572 375.543 410.582 375.927 406.582C375.927 398.002 375.927 388.737 375.927 379.814C375.927 379.042 375.927 378.184 375.927 376.554C370.865 379.471 366.231 382.216 361.512 385.133C360.31 385.734 358.852 385.819 357.65 386.42L340.059 394.999C339.758 395.217 339.508 395.5 339.33 395.826C339.152 396.153 339.049 396.516 339.03 396.887C339.03 399.633 339.03 402.378 339.03 405.467H341.861H364.772C368.29 405.467 369.234 406.41 369.32 409.842V419.451C369.32 422.626 368.205 423.741 365.116 423.741H325.901C321.696 423.741 320.753 422.797 320.753 418.593V404.694C320.036 404.901 319.345 405.19 318.693 405.552L302.819 413.36C302.224 413.567 301.716 413.966 301.375 414.494C301.033 415.023 300.877 415.65 300.931 416.277C300.931 423.484 300.931 423.998 293.551 423.741H283.683C282.825 423.831 282.002 424.125 281.281 424.599L269.696 430.433H268.924L260.343 408.727L277.934 403.15C282.568 401.691 282.568 401.691 282.568 396.715V381.272L259.657 406.238L242.495 389.938L258.026 376.296C264.634 370.462 271.155 364.456 278.02 359.137C279.815 358.039 281.178 356.357 281.881 354.373C282.584 352.39 282.584 350.225 281.881 348.241H272.442C268.238 348.241 267.294 347.297 267.294 343.008V334.428C267.294 331.082 268.238 330.138 271.67 330.138H300.588C304.363 330.138 308.224 330.138 312 330.138C313.406 330.322 314.692 331.026 315.604 332.112C317.234 334.257 319.637 334.429 320.924 332.112C321.362 331.414 321.991 330.857 322.736 330.507C323.482 330.157 324.312 330.029 325.129 330.138H364.601C368.376 330.138 369.234 330.997 369.234 334.686C369.234 338.375 369.234 341.035 369.234 344.295C369.234 347.555 368.033 348.499 364.944 348.499H340.918L339.116 348.241ZM421.406 359.995C421.406 354.333 421.835 348.928 421.406 343.694C421.321 340.982 420.212 338.404 418.301 336.477C416.39 334.551 413.82 333.42 411.109 333.313C404.231 332.669 397.307 332.669 390.429 333.313C388.913 333.314 387.414 333.637 386.031 334.26C384.648 334.882 383.413 335.791 382.408 336.926C381.402 338.062 380.649 339.397 380.198 340.844C379.746 342.292 379.607 343.819 379.789 345.324C379.789 366.516 379.789 388.222 379.789 408.984C379.852 411.415 380.734 413.754 382.291 415.622C383.848 417.49 385.99 418.778 388.37 419.279C396.564 420.824 404.974 420.824 413.168 419.279C414.921 418.878 416.53 418 417.816 416.744C419.103 415.488 420.019 413.901 420.462 412.158C421.576 406.019 421.922 399.765 421.492 393.541H420.29H411.71C410.079 393.541 409.65 394.142 409.65 395.686C409.778 398.029 409.778 400.378 409.65 402.721C409.688 403.572 409.546 404.421 409.235 405.214C408.923 406.007 408.449 406.726 407.843 407.324C407.236 407.923 406.511 408.387 405.714 408.688C404.917 408.989 404.065 409.119 403.215 409.07H398.495C393.175 409.07 391.116 407.011 391.03 401.692V383.245C391.03 372.778 391.03 362.312 391.03 351.845C391.03 346.869 393.175 344.724 398.152 344.724H403.043C403.919 344.645 404.802 344.759 405.629 345.059C406.456 345.359 407.207 345.837 407.829 346.458C408.451 347.08 408.929 347.831 409.229 348.658C409.529 349.485 409.643 350.368 409.564 351.244C409.564 353.646 409.564 356.134 409.564 358.536C409.564 359.137 410.423 360.167 410.852 360.167C414.799 360.081 418.059 359.995 421.406 359.995ZM365.974 408.813H338.258C336.37 408.813 335.683 408.812 335.769 406.324C335.769 401.005 335.769 395.6 335.769 390.281C335.769 387.793 334.997 384.19 336.284 383.074C337.571 381.959 341.089 382.388 343.663 382.388H359.023V370.891H356.277C350.442 370.891 344.521 370.891 338.601 370.891C336.112 370.891 335.597 370.119 335.683 367.802C335.683 360.939 335.683 354.075 335.683 347.212C335.683 344.981 336.456 344.466 338.515 344.552H365.802V333.056H324.271V420.052H365.974V408.813ZM297.327 420.309V417.392C297.327 396.887 297.327 376.468 297.327 356.049C297.327 352.359 297.327 348.67 297.327 344.981L308.396 344.552H311.828V333.399H270.812V344.209C274.931 344.209 278.792 344.209 282.654 344.209C285.056 344.209 285.743 344.809 285.743 347.212C285.743 370.462 285.743 393.626 285.743 416.877V419.966L297.327 420.309ZM300.502 395.257L302.561 394.828C307.538 393.284 312.515 391.482 317.578 390.109C319.894 389.508 320.323 388.393 320.323 386.334C320.323 371.32 320.323 356.392 320.323 341.463C320.323 340.691 320.323 340.005 320.323 338.547C318.612 340.171 317.164 342.052 316.033 344.123C315.347 346.182 314.66 347.641 312.343 348.156C311.657 348.156 311.142 349.013 310.627 349.528C307.795 352.617 304.964 355.62 302.046 358.794C301.155 359.889 300.643 361.244 300.588 362.655C300.588 372.693 300.588 382.731 300.588 392.769L300.502 395.257Z" fill="#122438"/>
<path d="M103.743 320.958C100.997 327.307 98.3366 333.656 95.5908 339.919L58.0066 426.744C48.2244 449.222 38.5281 471.786 28.7459 494.264C28.5144 494.774 28.1701 495.224 27.739 495.581C27.3079 495.937 26.8012 496.191 26.2574 496.323C17.6766 496.323 9.69637 496.323 1.37294 496.323H0L62.297 357.679L8.23763 368.146V367.545L103.828 320.53L103.743 320.958Z" fill="#122438"/>
<path d="M384.337 211.399V214.744C384.337 250.607 384.337 286.469 384.337 322.332C384.337 326.45 384.337 326.792 379.961 326.792H366.574C363.228 326.792 362.541 326.021 362.541 322.675C362.541 286.698 362.541 250.75 362.541 214.83V211.399H348.126C341.347 211.399 341.347 211.398 341.347 204.535C341.347 200.417 341.347 195.956 341.347 192.095C341.347 189.264 342.119 188.491 344.865 188.491H402.013C404.502 188.491 405.532 189.607 405.532 191.923C405.532 197.242 405.532 202.476 405.532 207.795C405.532 210.626 404.673 211.399 401.67 211.399H384.337Z" fill="#122438"/>
<path d="M709.294 211.055H692.132C688.528 211.055 688.013 210.541 688.013 207.023V191.751C688.013 188.92 688.7 188.148 691.531 188.148H748.766C751.683 188.148 752.284 188.663 752.37 191.58V207.452C752.37 210.541 751.855 210.969 748.594 210.969H733.835C731.861 210.969 731.347 211.484 731.347 213.458C731.347 249.606 731.347 285.726 731.347 321.817C731.347 325.849 730.832 326.449 726.713 326.449H713.584C709.98 326.449 709.465 325.935 709.465 322.332C709.465 286.012 709.465 249.749 709.465 213.544L709.294 211.055Z" fill="#122438"/>
<path d="M428.013 445.705L411.967 446.734L342.72 451.195L279.135 455.314H278.621C276.304 455.314 273.729 455.314 273.987 458.66H273.129C269.182 454.971 267.894 455.056 264.548 458.66C262.751 461.403 259.974 463.357 256.784 464.123C253.595 464.888 250.233 464.407 247.386 462.778C245.606 461.697 244.012 460.335 242.667 458.745C238.634 454.541 237.089 454.455 233.228 458.745C232.092 460.282 230.653 461.57 229 462.529C227.347 463.488 225.515 464.098 223.617 464.322C221.662 464.467 219.699 464.173 217.873 463.46C216.046 462.747 214.403 461.635 213.063 460.204L210.231 457.201C209.864 456.704 209.386 456.301 208.834 456.023C208.283 455.744 207.674 455.6 207.056 455.6C206.439 455.6 205.83 455.744 205.278 456.023C204.727 456.301 204.248 456.704 203.881 457.201C202.852 458.145 201.993 459.26 201.05 460.204C199.859 461.513 198.409 462.558 196.791 463.274C195.173 463.989 193.423 464.359 191.654 464.359C189.884 464.359 188.135 463.989 186.516 463.274C184.898 462.558 183.448 461.513 182.257 460.204C181.228 459.174 180.284 457.973 179.254 456.944C178.884 456.509 178.423 456.16 177.905 455.921C177.386 455.682 176.822 455.558 176.251 455.558C175.68 455.558 175.116 455.682 174.597 455.921C174.079 456.16 173.618 456.509 173.248 456.944C172.132 457.973 171.102 459.175 169.987 460.29C168.814 461.553 167.394 462.56 165.814 463.249C164.234 463.938 162.529 464.293 160.805 464.293C159.082 464.293 157.377 463.938 155.797 463.249C154.217 462.56 152.796 461.553 151.624 460.29C150.766 459.518 149.993 458.574 149.135 457.716C146.389 454.799 144.33 454.799 141.756 457.716C141.373 458.216 141.056 458.764 140.812 459.346L139.868 458.917C139.868 455.828 138.838 452.74 138.495 449.566C138.495 449.051 139.525 448.021 140.297 447.764C142.474 446.733 144.907 446.37 147.289 446.722C149.672 447.073 151.897 448.122 153.683 449.737C154.876 450.744 155.968 451.865 156.944 453.083C159.861 456.086 161.835 456.086 164.753 453.083C165.48 452.213 166.253 451.383 167.069 450.595C168.242 449.332 169.663 448.324 171.243 447.635C172.822 446.946 174.527 446.591 176.251 446.591C177.974 446.591 179.679 446.946 181.259 447.635C182.839 448.324 184.26 449.332 185.432 450.595C186.548 451.71 187.492 452.911 188.607 454.027C188.986 454.448 189.449 454.786 189.966 455.017C190.484 455.248 191.044 455.368 191.611 455.368C192.177 455.368 192.738 455.248 193.255 455.017C193.773 454.786 194.236 454.448 194.614 454.027C195.901 452.825 197.017 451.453 198.218 450.252C200.541 448.068 203.61 446.852 206.799 446.852C209.987 446.852 213.056 448.068 215.38 450.252C216.589 451.389 217.735 452.592 218.812 453.855C219.207 454.324 219.699 454.701 220.255 454.96C220.811 455.219 221.417 455.353 222.03 455.353C222.643 455.353 223.249 455.219 223.805 454.96C224.36 454.701 224.853 454.324 225.248 453.855C226.277 452.826 227.221 451.625 228.251 450.595C229.425 449.304 230.856 448.273 232.452 447.568C234.048 446.862 235.773 446.497 237.518 446.497C239.263 446.497 240.989 446.862 242.585 447.568C244.181 448.273 245.611 449.304 246.786 450.595C247.815 451.539 248.673 452.654 249.617 453.598C250.011 454.097 250.512 454.501 251.085 454.779C251.657 455.057 252.285 455.201 252.921 455.201C253.557 455.201 254.185 455.057 254.757 454.779C255.329 454.501 255.831 454.097 256.224 453.598L257.597 452.053C258.916 450.323 260.617 448.919 262.566 447.952C264.516 446.984 266.662 446.48 268.838 446.477C268.838 442.53 268.838 438.669 268.838 434.894C268.838 432.492 269.439 431.891 271.756 432.063C288.918 433.607 306.68 434.98 324.099 436.353L394.634 441.93C404.588 442.788 414.627 443.474 424.667 444.246C425.696 444.246 426.64 444.246 427.67 444.246L428.013 445.705Z" fill="#122438"/>
<path d="M616.02 257.385V192.438C616.02 188.663 616.02 188.234 620.139 188.234C624.258 188.234 629.578 188.234 634.211 188.234C637.129 188.234 637.987 189.006 637.987 191.837C637.987 235.478 637.987 279.119 637.987 322.76C637.987 325.506 637.043 326.535 634.297 326.535H620.053C616.792 326.535 616.106 325.763 616.106 322.503V257.299L616.02 257.385Z" fill="#122438"/>
<path d="M653.69 257.471V192.524C653.69 188.749 654.291 188.148 658.066 188.148H671.538C675.314 188.148 675.914 188.835 675.914 192.524C675.914 219.635 675.914 246.746 675.914 273.857C675.914 289.815 675.914 305.859 675.914 321.903C675.914 325.935 675.4 326.45 671.281 326.535H657.98C654.548 326.535 653.947 325.935 653.947 322.332V257.471H653.69Z" fill="#122438"/>
<path d="M244.726 257.814V322.503C244.726 326.535 244.726 326.964 240.178 326.964H226.964C223.531 326.964 222.845 326.278 222.845 322.932C222.845 280.55 222.845 238.196 222.845 195.87C222.845 187.977 222.845 188.577 229.967 188.663H239.921C244.211 188.663 244.554 188.663 244.554 193.21V257.814H244.726Z" fill="#122438"/>
<path d="M216.753 379.214H213.578C207.657 379.214 201.822 378.785 195.901 378.785C193.756 378.785 193.069 378.184 193.241 375.953C194.357 361.111 195.3 346.268 196.244 331.426C198.046 303.457 199.934 275.573 201.736 247.69L204.568 203.076C204.568 202.133 204.568 201.189 204.568 200.331H205.254C209.63 259.787 213.406 319.329 216.753 379.214Z" fill="#122438"/>
<path d="M567.366 382.044L565.564 390.624C563.505 400.233 561.36 409.928 559.3 419.537C559.171 420.629 558.627 421.63 557.78 422.333C556.934 423.035 555.85 423.385 554.752 423.312C546.172 423.312 546.172 424.084 544.37 415.505C542.224 405.295 539.993 395.085 537.762 384.79C537.603 383.802 537.222 382.863 536.647 382.044C536.604 382.644 536.604 383.246 536.647 383.846C536.647 395.343 536.647 406.839 536.647 418.164C536.647 422.025 535.531 423.14 531.756 423.14H523.175C520.086 423.14 518.627 421.768 518.627 418.765V333.828C518.627 330.31 519.742 329.109 523.261 329.109H536.818C539.908 329.109 541.023 329.967 541.709 332.97C545.142 348.585 548.603 364.2 552.092 379.814C552.275 380.321 552.505 380.809 552.779 381.273C553.809 376.468 554.752 372.178 555.696 367.974C558.271 356.392 560.759 344.81 563.333 333.656C563.386 333.042 563.563 332.445 563.853 331.901C564.144 331.357 564.542 330.878 565.024 330.493C565.505 330.107 566.06 329.824 566.655 329.66C567.249 329.496 567.871 329.454 568.482 329.538H581.954C585.3 329.538 586.587 330.825 586.587 334.085C586.587 362.398 586.587 390.71 586.587 419.022C586.587 422.368 585.3 423.569 582.039 423.655H572.686C569.082 423.655 567.881 422.368 567.881 418.679C567.881 406.839 567.881 395 567.881 383.074C567.881 383.074 567.881 383.074 567.881 382.388L567.366 382.044ZM582.726 332.712C577.577 332.712 572.772 332.712 567.967 332.712C567.28 332.712 566.422 333.914 566.165 334.772C565.393 337.775 564.792 340.777 564.106 343.866L554.581 386.764C553.98 389.681 553.294 392.512 552.521 396.115C552.197 395.563 551.911 394.989 551.663 394.399C547.373 375.352 543.082 356.392 538.964 337.431C537.762 332.284 537.676 332.283 532.356 332.283H521.802V419.451H533.472V366.687C536.218 365.829 537.247 366.687 537.848 369.261C541.109 384.418 544.427 399.604 547.802 414.818C549.089 420.824 547.802 419.451 553.894 419.623C555.353 419.623 555.954 419.108 556.297 417.564C559.729 401.177 563.333 384.79 566.851 368.403C566.851 366.602 568.224 366.259 569.769 366.344C571.313 366.43 571.313 367.631 571.313 368.746V387.107C571.313 397.145 571.313 407.183 571.313 417.307C571.313 418.079 571.914 419.623 572.343 419.623C575.775 419.623 579.208 419.623 582.64 419.623L582.726 332.712Z" fill="#122438"/>
<path d="M451.954 385.562V390.539C451.954 399.976 451.954 409.413 451.954 418.851C451.954 422.368 450.838 423.484 447.32 423.569H437.538C434.277 423.569 433.162 422.368 433.162 419.108C433.162 390.51 433.162 361.911 433.162 333.313C433.082 332.787 433.123 332.251 433.28 331.743C433.438 331.235 433.709 330.77 434.072 330.382C434.435 329.993 434.882 329.693 435.378 329.502C435.875 329.312 436.408 329.236 436.937 329.281H448.436C450.924 329.281 452.04 330.739 452.04 333.399C452.04 343.952 452.04 354.504 452.04 365.057C452.04 366.773 452.04 367.374 454.185 367.288C456.441 367.116 458.707 367.116 460.964 367.288C462.766 367.288 463.366 366.773 463.281 364.885C463.281 354.418 463.281 343.952 463.281 333.485C463.281 330.482 464.31 329.281 467.228 329.195H477.868C480.786 329.195 481.901 330.396 481.901 333.399C481.901 361.997 481.901 390.595 481.901 419.194C481.901 422.025 480.786 423.141 478.04 423.226H467.571C464.31 423.226 463.195 422.197 463.195 418.851C463.195 408.555 463.195 398.26 463.195 387.964C463.195 385.648 462.423 385.133 460.363 385.305L451.954 385.562ZM478.383 419.88V332.884H466.541V335.63C466.541 346.268 466.541 356.906 466.541 367.545C466.541 369.776 466.027 370.72 463.71 370.634C459.505 370.634 455.129 370.634 451.182 370.634C448.865 370.634 448.35 369.862 448.35 367.631C448.35 356.907 448.35 346.182 448.35 335.372C448.35 334.6 448.35 333.742 448.35 332.884H436.766V419.88H448.436V416.877C448.436 406.153 448.436 395.428 448.436 384.704C448.436 382.559 449.036 381.959 451.096 381.959C455.3 381.959 459.677 381.959 463.795 381.959C465.941 381.959 466.713 382.473 466.627 384.704C466.627 395.428 466.627 406.153 466.627 416.963V419.794L478.383 419.88Z" fill="#122438"/>
<path d="M612.759 385.562V405.209H638.501C642.105 405.209 643.049 406.153 643.049 409.671V419.28C643.049 422.368 641.934 423.484 638.845 423.569H599.201C595.34 423.569 594.31 422.54 594.31 418.679C594.31 390.538 594.31 362.398 594.31 334.257C594.31 330.482 595.254 329.453 599.03 329.453H637.987C642.105 329.453 642.964 330.31 642.964 334.342V343.694C642.964 346.697 641.762 347.898 638.673 347.898H612.931V367.202H632.323C635.155 367.202 636.27 368.403 636.356 371.235C636.442 374.066 636.356 377.927 636.356 381.358C636.356 384.79 635.241 385.562 632.152 385.648H612.931L612.759 385.562ZM639.445 332.884H637.643H599.63C597.828 332.884 597.571 333.656 597.571 335.201C597.571 362.741 597.571 390.281 597.571 417.821C597.571 418.593 597.571 419.279 597.571 420.137H639.188V408.727H611.472C609.67 408.727 609.069 408.727 609.069 406.41C609.069 399.204 609.069 391.997 609.069 384.79C609.069 382.645 609.841 382.216 611.729 382.216H632.495V370.72H629.577C623.571 370.72 617.564 370.72 611.643 370.72C609.756 370.72 608.983 370.72 609.069 368.317C609.069 361.196 609.069 354.076 609.069 347.04C609.069 345.067 609.584 344.467 611.558 344.467H637.214H639.874L639.445 332.884Z" fill="#122438"/>
<path d="M669.479 347.641V367.116H688.7C691.617 367.116 692.818 368.318 692.818 371.235C692.818 374.152 692.818 378.012 692.818 381.358C692.906 381.919 692.861 382.493 692.685 383.033C692.509 383.572 692.208 384.063 691.806 384.465C691.405 384.866 690.914 385.167 690.374 385.343C689.834 385.519 689.261 385.564 688.7 385.476C683.208 385.476 677.716 385.476 672.31 385.476H669.564V404.952H671.881H695.049C698.653 404.952 699.512 405.81 699.512 409.328C699.512 412.845 699.512 415.934 699.512 419.194C699.512 422.454 698.396 423.226 695.564 423.226H655.063C651.974 423.226 650.944 421.939 650.944 418.507V338.718C650.944 337.088 650.944 335.458 650.944 333.742C650.944 329.796 651.716 329.023 655.578 329.023H695.65C698.396 329.023 699.34 330.053 699.426 332.884C699.512 335.715 699.426 339.662 699.426 343.008C699.426 346.354 698.396 347.383 695.135 347.383H669.393L669.479 347.641ZM695.908 332.712H654.376V419.794H695.822V408.469H692.733C684.667 408.469 676.601 408.469 668.535 408.469C666.389 408.469 665.789 407.783 665.789 405.638C665.789 398.717 665.789 391.768 665.789 384.79C665.789 382.473 666.475 381.873 668.792 381.959C674.884 381.959 681.063 381.959 687.241 381.959C687.927 381.959 689.214 381.273 689.214 380.844C689.214 377.498 689.214 374.151 689.214 370.462H668.363C666.389 370.462 665.617 370.033 665.703 367.803C665.703 360.939 665.703 353.99 665.703 347.04C665.703 344.638 666.475 344.123 668.706 344.209H695.736L695.908 332.712Z" fill="#122438"/>
<path d="M254.079 308.004V316.583C254.079 318.385 254.079 320.186 254.079 321.988C253.642 324.439 254.164 326.964 255.538 329.04C256.912 331.117 259.032 332.586 261.459 333.142L240.865 388.737L219.155 379.557C219.155 378.441 219.928 377.498 220.357 376.554C226.964 362.827 233.485 349.185 240.007 335.458C240.22 334.809 240.618 334.237 241.151 333.81C241.684 333.384 242.33 333.122 243.01 333.056C244.197 333.06 245.372 332.817 246.46 332.344C247.549 331.87 248.527 331.176 249.334 330.305C250.14 329.434 250.757 328.406 251.146 327.284C251.534 326.163 251.686 324.973 251.591 323.79C251.591 320.701 251.591 317.698 251.591 314.696C251.9 312.282 252.417 309.899 253.135 307.574L254.079 308.004Z" fill="#122438"/>
<path d="M457.017 457.201C463.366 447.249 469.545 437.726 475.723 428.288C476.37 427.181 477.39 426.34 478.601 425.916C479.811 425.492 481.133 425.512 482.33 425.972C482.617 426.157 482.854 426.411 483.019 426.71C483.184 427.01 483.271 427.346 483.274 427.687C483.274 442.273 483.274 456.772 483.274 471.357C483.274 472.816 483.274 473.416 481.386 473.33H476.667V439.012H476.066L457.017 468.784L437.967 439.356H437.452V446.477C437.452 454.541 437.452 462.606 437.452 470.671C437.452 472.644 437.023 473.588 434.878 473.33H432.99C430.931 473.33 430.33 472.816 430.33 470.671C430.33 456.858 430.33 443.045 430.33 429.146C430.33 428.031 430.931 426.057 431.36 426.057C433.419 426.057 435.736 424.771 437.366 427.43L452.125 450.337L457.017 457.201Z" fill="#122438"/>
<path d="M602.891 454.112V469.384C602.891 472.987 600.574 474.532 597.228 473.073C596.934 472.874 596.693 472.606 596.529 472.291C596.364 471.977 596.28 471.626 596.284 471.271C596.284 456.772 596.284 442.187 596.284 427.601C596.284 426.057 596.884 425.714 598.257 425.714C609.155 425.714 620.139 425.714 631.036 425.714C632.138 425.529 633.267 425.597 634.339 425.913C635.411 426.228 636.397 426.782 637.223 427.534C638.05 428.286 638.694 429.215 639.109 430.253C639.524 431.29 639.697 432.407 639.617 433.521C639.617 437.897 639.617 442.101 639.617 446.734C639.647 448.111 639.215 449.458 638.391 450.562C637.567 451.666 636.398 452.462 635.069 452.825C632.738 453.447 630.354 453.849 627.947 454.026C626.347 454.113 624.742 454.113 623.142 454.026V454.713L641.419 472.387V473.073C637.386 473.073 633.353 474.189 629.835 469.899C626.317 465.609 620.653 460.547 616.02 455.828C615.465 455.176 614.764 454.665 613.973 454.337C613.183 454.009 612.325 453.873 611.472 453.941C607.782 454.198 605.38 454.112 602.891 454.112ZM602.891 447.935C611.472 447.935 620.568 447.935 629.234 447.935C631.637 447.935 632.752 446.219 632.838 443.989C632.924 441.758 632.838 439.27 632.838 436.953C632.838 432.664 631.894 431.806 627.518 431.72H602.891V447.935Z" fill="#122438"/>
<path d="M705.26 460.719V466.982H735.551V451.195H732.805H706.29C701.485 451.195 699.94 449.651 699.855 444.76V431.291C699.855 427.602 701.313 425.886 705.003 425.886C715.643 425.886 726.369 425.886 737.01 425.886C740.356 425.886 741.558 427.345 741.815 430.776C741.815 436.267 741.815 436.954 735.465 436.61C735.465 436.61 735.465 435.838 735.465 435.409C735.465 431.463 735.465 431.462 731.175 431.462C723.881 431.462 716.587 431.462 709.293 431.462C707.32 431.462 706.462 431.891 706.633 434.122C706.795 436.98 706.795 439.844 706.633 442.701C706.633 444.589 707.32 445.018 709.036 445.018H734.779H738.383C739.49 445.106 740.521 445.62 741.257 446.452C741.993 447.284 742.378 448.37 742.33 449.48C742.33 455.657 742.33 461.834 742.33 467.925C742.344 468.571 742.222 469.212 741.973 469.808C741.725 470.404 741.354 470.941 740.886 471.385C740.417 471.83 739.861 472.172 739.252 472.388C738.644 472.605 737.997 472.692 737.353 472.644H703.029C702.487 472.704 701.939 472.65 701.42 472.483C700.901 472.316 700.422 472.042 700.017 471.677C699.612 471.312 699.288 470.866 699.068 470.367C698.848 469.868 698.736 469.329 698.739 468.783C698.739 467.925 698.739 467.067 698.739 466.209C698.482 460.976 699.082 460.461 705.26 460.719Z" fill="#122438"/>
<path d="M543.34 449.308C543.34 442.187 543.34 435.152 543.34 428.031C543.34 426.401 543.34 425.628 545.399 425.628C553.98 425.628 562.561 425.628 571.657 426.143C575.839 425.973 579.953 427.244 583.311 429.742C586.669 432.241 589.067 435.816 590.106 439.871C591.982 446.599 591.833 453.731 589.676 460.375C588.682 463.597 586.76 466.455 584.15 468.591C581.54 470.727 578.359 472.048 575.003 472.387C571.996 472.889 568.956 473.175 565.908 473.244H547.201C543.426 473.244 543.426 473.244 543.426 469.555V449.308H543.34ZM550.29 431.634V467.754C558.271 467.239 565.993 467.153 573.716 466.295C576.388 466.083 578.887 464.886 580.726 462.936C582.565 460.986 583.614 458.422 583.67 455.742C584.227 451.327 584.227 446.86 583.67 442.444C583.388 440.178 582.412 438.055 580.876 436.365C579.34 434.676 577.318 433.502 575.089 433.007C566.914 431.503 558.581 431.042 550.29 431.634Z" fill="#122438"/>
<path d="M720.363 347.555H709.809C706.462 347.555 705.347 346.354 705.347 343.008C705.347 339.662 705.347 336.573 705.347 333.399C705.347 330.224 706.548 329.281 709.465 329.281H750.225C752.885 329.281 753.914 330.224 754 332.884C754.086 335.544 754 340.091 754 343.78C754 347.469 752.799 347.469 750.139 347.555H739.241C739.241 348.499 739.241 349.271 739.241 349.957V418.593C739.241 422.711 738.383 423.655 734.35 423.655H725.769C721.736 423.655 720.792 422.711 720.792 418.593C720.792 395.943 720.792 373.379 720.792 350.73L720.363 347.555ZM735.723 419.794V416.706C735.723 393.541 735.723 370.291 735.723 347.126C735.723 344.724 736.324 343.952 738.726 344.037C742.673 344.037 746.621 344.037 750.568 344.037V332.712H709.036V344.209C713.069 344.209 716.845 344.209 720.621 344.209C724.396 344.209 723.881 344.81 723.881 347.383C723.881 370.548 723.881 393.798 723.881 416.963V419.966L735.723 419.794Z" fill="#122438"/>
<path d="M539.221 473.33C537.536 473.464 535.843 473.464 534.158 473.33C533.029 473.143 532.016 472.528 531.327 471.614C529.611 468.869 528.323 465.78 526.607 463.035C526.319 462.569 525.931 462.174 525.471 461.878C525.011 461.581 524.49 461.39 523.947 461.319C516.482 461.319 509.016 461.319 501.637 461.319C500.994 461.228 500.339 461.368 499.79 461.713C499.24 462.059 498.83 462.588 498.634 463.207C497.346 465.866 495.802 468.354 494.601 471.1C494.341 471.962 493.76 472.692 492.977 473.139C492.195 473.586 491.271 473.716 490.396 473.502C488.996 473.416 487.592 473.416 486.191 473.502C486.964 471.958 487.479 470.842 487.993 469.641C495.03 455.971 502.037 442.301 509.016 428.631C509.875 427.001 510.647 425.886 512.878 425.886C515.109 425.886 515.71 427.001 516.482 428.546L538.449 471.443C538.747 472.055 539.005 472.685 539.221 473.33ZM512.706 435.151L502.838 454.97H522.746L512.706 435.151Z" fill="#122438"/>
<path d="M695.393 472.902C693.478 473.03 691.558 473.03 689.643 472.902C688.795 472.641 688.086 472.055 687.67 471.272C686.039 468.354 684.666 465.352 682.95 462.692C682.644 462.232 682.238 461.847 681.763 461.565C681.288 461.282 680.755 461.111 680.204 461.062C672.825 461.062 665.445 461.062 658.152 461.062C657.475 460.967 656.787 461.113 656.207 461.473C655.626 461.834 655.191 462.386 654.977 463.035C653.775 465.609 652.317 467.925 651.201 470.499C650.885 471.477 650.221 472.305 649.336 472.826C648.45 473.348 647.404 473.527 646.396 473.331C645.196 473.242 643.992 473.242 642.792 473.331C642.762 472.873 642.762 472.415 642.792 471.958L665.36 427.859C665.666 427.155 666.189 426.568 666.853 426.182C667.516 425.796 668.286 425.632 669.049 425.714C669.77 425.698 670.476 425.914 671.064 426.332C671.651 426.749 672.088 427.345 672.31 428.031L695.049 472.301L695.393 472.902ZM679.089 454.713L669.049 434.895L659.181 454.713H679.089Z" fill="#122438"/>
<path d="M140.812 429.489L126.396 410.442L150.079 407.526L140.812 429.489Z" fill="#122438"/>
<path d="M107.261 457.458L125.195 441.758L129.828 465.18L107.261 457.458Z" fill="#122438"/>
<path d="M335.34 322.074C335.34 317.355 335.34 313.495 335.34 309.376C335.439 308.802 335.744 308.284 336.198 307.918L355.333 290.759H356.191C356.191 294.791 357.049 298.652 353.445 302.169C347.696 307.832 342.548 314.009 337.142 320.015L335.34 322.074Z" fill="#122438"/>
<path d="M331.05 146.28C328.819 152.2 326.502 158.12 324.271 164.126C322.04 170.131 320.409 174.249 318.693 179.397C317.835 182.142 316.205 182.572 313.373 181.799L330.535 146.023L331.05 146.28Z" fill="#122438"/>
<path d="M300.33 224.096C296.726 217.49 296.726 214.316 300.33 209.855V224.096Z" fill="#122438"/>
</g>
<defs>
<clipPath id="clip0_37_1217">
<rect width="754" height="517" fill="white"/>
</clipPath>
</defs>
</svg>
